<svg width="167" height="60" viewBox="0 0 167 60" fill="none" xmlns="http://www.w3.org/2000/svg">
<path d="M2.11621 6.1543H11.4404C11.8988 6.1543 12.2926 6.31543 12.6221 6.6377C12.9515 6.95996 13.1162 7.35384 13.1162 7.81934V14.6191C13.1162 15.0703 12.9479 15.4642 12.6113 15.8008C12.2819 16.1302 11.8916 16.2949 11.4404 16.2949H11.333L13.1592 21H9.4209L7.57324 16.2949H5.94043V21H2.11621V6.1543ZM9.30273 13.1045V9.55957C9.30273 9.50944 9.28125 9.46289 9.23828 9.41992C9.19531 9.36979 9.15234 9.34473 9.10938 9.34473H5.94043V13.2979H9.10938C9.15234 13.2979 9.19531 13.2764 9.23828 13.2334C9.28125 13.1904 9.30273 13.1475 9.30273 13.1045ZM20.3564 16.9717V21H16.2422V16.9717H20.3564ZM23.5791 13.9209H27.4141V17.5947C27.4141 17.6449 27.4355 17.6914 27.4785 17.7344C27.5215 17.7702 27.5645 17.7881 27.6074 17.7881H29.5625C29.627 17.7881 29.6842 17.7702 29.7344 17.7344C29.7845 17.6914 29.8096 17.6449 29.8096 17.5947V6.1543H33.6338V19.3027C33.6338 19.7826 33.4727 20.1872 33.1504 20.5166C32.8281 20.8389 32.4342 21 31.9688 21H25.2764C24.818 21 24.4206 20.8353 24.084 20.5059C23.7474 20.1764 23.5791 19.7754 23.5791 19.3027V13.9209ZM41.626 16.9717V21H37.5117V16.9717H41.626ZM61.7246 7.88379V21H57.9004V17.3047H54.5381V21H50.7031V7.88379C50.7031 7.36816 50.8643 6.9528 51.1865 6.6377C51.5088 6.31543 51.9277 6.1543 52.4434 6.1543H59.9951C60.5107 6.1543 60.9261 6.31543 61.2412 6.6377C61.5635 6.9528 61.7246 7.36816 61.7246 7.88379ZM54.5381 14.0928H57.9004V9.62402C57.9004 9.48796 57.8503 9.38053 57.75 9.30176C57.6569 9.22298 57.5316 9.18359 57.374 9.18359H55C54.8639 9.18359 54.7529 9.22656 54.667 9.3125C54.5811 9.39844 54.5381 9.50228 54.5381 9.62402V14.0928ZM73.0039 6.1543H76.7959L72.3701 21H68.6748L64.3564 6.1543H68.4492L70.5225 15.5859L73.0039 6.1543ZM90.4492 7.88379V21H86.625V17.3047H83.2627V21H79.4277V7.88379C79.4277 7.36816 79.5889 6.9528 79.9111 6.6377C80.2334 6.31543 80.6523 6.1543 81.168 6.1543H88.7197C89.2354 6.1543 89.6507 6.31543 89.9658 6.6377C90.2881 6.9528 90.4492 7.36816 90.4492 7.88379ZM83.2627 14.0928H86.625V9.62402C86.625 9.48796 86.5749 9.38053 86.4746 9.30176C86.3815 9.22298 86.2562 9.18359 86.0986 9.18359H83.7246C83.5885 9.18359 83.4775 9.22656 83.3916 9.3125C83.3057 9.39844 83.2627 9.50228 83.2627 9.62402V14.0928ZM102.395 21L98.0547 12.8359V21H94.542V6.1543H98.0547L102.502 14.3291V6.1543H106.025V21H102.395ZM117.176 15.457H121V19.3027C121 19.7826 120.828 20.1872 120.484 20.5166C120.148 20.8389 119.74 21 119.26 21H111.805C111.332 21 110.931 20.8389 110.602 20.5166C110.272 20.1872 110.107 19.7826 110.107 19.3027V7.81934C110.107 7.36816 110.272 6.97786 110.602 6.64844C110.931 6.31901 111.332 6.1543 111.805 6.1543H119.26C119.732 6.1543 120.141 6.31901 120.484 6.64844C120.828 6.97786 121 7.36816 121 7.81934V11.6543H117.176V9.58105C117.176 9.5166 117.151 9.46289 117.101 9.41992C117.058 9.36979 117.015 9.34473 116.972 9.34473H114.179C114.114 9.34473 114.057 9.36979 114.007 9.41992C113.964 9.46289 113.942 9.5166 113.942 9.58105V17.5732C113.942 17.6377 113.964 17.6914 114.007 17.7344C114.057 17.7702 114.114 17.7881 114.179 17.7881H116.972C117.022 17.7881 117.068 17.7666 117.111 17.7236C117.154 17.6807 117.176 17.6305 117.176 17.5732V15.457ZM124.642 21V6.1543H134.342V9.34473H128.444V11.9336H133.547V15.1025H128.444V17.7881H134.342V21H124.642ZM145.9 21L141.561 12.8359V21H138.048V6.1543H141.561L146.008 14.3291V6.1543H149.531V21H145.9ZM142.162 1.33105C142.52 1.33105 142.857 1.39551 143.172 1.52441C143.494 1.64616 143.752 1.78223 143.945 1.93262C144.139 2.07585 144.346 2.21191 144.568 2.34082C144.79 2.46257 144.991 2.52344 145.17 2.52344C145.456 2.52344 145.678 2.41243 145.836 2.19043C145.993 1.96842 146.072 1.69629 146.072 1.37402H148.124C148.124 2.4196 147.884 3.22526 147.404 3.79102C146.932 4.34961 146.291 4.62891 145.481 4.62891C145.131 4.62891 144.79 4.56803 144.461 4.44629C144.139 4.32454 143.877 4.18848 143.677 4.03809C143.476 3.8877 143.261 3.75163 143.032 3.62988C142.803 3.50814 142.599 3.44727 142.42 3.44727C142.141 3.44727 141.922 3.55827 141.765 3.78027C141.614 3.99512 141.539 4.26367 141.539 4.58594H139.498C139.498 3.54036 139.734 2.73828 140.207 2.17969C140.687 1.61393 141.339 1.33105 142.162 1.33105ZM164.635 7.88379V21H160.811V17.3047H157.448V21H153.613V7.88379C153.613 7.36816 153.774 6.9528 154.097 6.6377C154.419 6.31543 154.838 6.1543 155.354 6.1543H162.905C163.421 6.1543 163.836 6.31543 164.151 6.6377C164.474 6.9528 164.635 7.36816 164.635 7.88379ZM157.448 14.0928H160.811V9.62402C160.811 9.48796 160.76 9.38053 160.66 9.30176C160.567 9.22298 160.442 9.18359 160.284 9.18359H157.91C157.774 9.18359 157.663 9.22656 157.577 9.3125C157.491 9.39844 157.448 9.50228 157.448 9.62402V14.0928Z" fill="black"/>
<path d="M12.1162 53V38.1543H21.8164V41.3447H15.9189V43.9336H21.0215V47.1025H15.9189V49.7881H21.8164V53H12.1162ZM33.375 53L29.0352 44.8359V53H25.5225V38.1543H29.0352L33.4824 46.3291V38.1543H37.0059V53H33.375ZM39.8418 38.1543H50.4014V41.3662H47.0283V53H43.2041V41.3662H39.8418V38.1543ZM53.2373 53V38.1543H62.9375V41.3447H57.04V43.9336H62.1426V47.1025H57.04V49.7881H62.9375V53H53.2373ZM66.6436 38.1543H75.9678C76.4261 38.1543 76.82 38.3154 77.1494 38.6377C77.4788 38.96 77.6436 39.3538 77.6436 39.8193V46.6191C77.6436 47.0703 77.4753 47.4642 77.1387 47.8008C76.8092 48.1302 76.4189 48.2949 75.9678 48.2949H75.8604L77.6865 53H73.9482L72.1006 48.2949H70.4678V53H66.6436V38.1543ZM73.8301 45.1045V41.5596C73.8301 41.5094 73.8086 41.4629 73.7656 41.4199C73.7227 41.3698 73.6797 41.3447 73.6367 41.3447H70.4678V45.2979H73.6367C73.6797 45.2979 73.7227 45.2764 73.7656 45.2334C73.8086 45.1904 73.8301 45.1475 73.8301 45.1045ZM81.5752 38.1543H90.6523C91.1107 38.1543 91.5046 38.3154 91.834 38.6377C92.1634 38.96 92.3281 39.3538 92.3281 39.8193V47.457C92.3281 47.901 92.1598 48.2913 91.8232 48.6279C91.4938 48.9645 91.1035 49.1328 90.6523 49.1328H85.3994V53H81.5752V38.1543ZM85.3994 45.9854H88.2998C88.3499 45.9854 88.3965 45.9639 88.4395 45.9209C88.4824 45.8708 88.5039 45.8242 88.5039 45.7812V41.5596C88.5039 41.5023 88.4824 41.4521 88.4395 41.4092C88.3965 41.3662 88.3499 41.3447 88.2998 41.3447H85.3994V45.9854ZM95.9268 38.1543H105.251C105.709 38.1543 106.103 38.3154 106.433 38.6377C106.762 38.96 106.927 39.3538 106.927 39.8193V46.6191C106.927 47.0703 106.758 47.4642 106.422 47.8008C106.092 48.1302 105.702 48.2949 105.251 48.2949H105.144L106.97 53H103.231L101.384 48.2949H99.751V53H95.9268V38.1543ZM103.113 45.1045V41.5596C103.113 41.5094 103.092 41.4629 103.049 41.4199C103.006 41.3698 102.963 41.3447 102.92 41.3447H99.751V45.2979H102.92C102.963 45.2979 103.006 45.2764 103.049 45.2334C103.092 45.1904 103.113 45.1475 103.113 45.1045ZM114.661 38.1543V53H110.858V38.1543H114.661ZM118.582 53V49.7881H124.146C124.311 49.7881 124.394 49.7236 124.394 49.5947V47.4355C124.394 47.3783 124.368 47.3317 124.318 47.2959C124.275 47.2529 124.218 47.2314 124.146 47.2314H120.322C119.807 47.2314 119.388 47.0739 119.065 46.7588C118.743 46.4365 118.582 46.0176 118.582 45.502V39.8838C118.582 39.3682 118.743 38.9528 119.065 38.6377C119.388 38.3154 119.807 38.1543 120.322 38.1543H127.992V41.3447H122.632C122.567 41.3447 122.514 41.3698 122.471 41.4199C122.428 41.4629 122.406 41.5166 122.406 41.5811V43.7617C122.406 43.8047 122.428 43.8477 122.471 43.8906C122.514 43.9336 122.567 43.9551 122.632 43.9551H126.456C126.972 43.9551 127.391 44.1162 127.713 44.4385C128.035 44.7607 128.196 45.1797 128.196 45.6953V51.2598C128.196 51.7754 128.035 52.1943 127.713 52.5166C127.391 52.8389 126.972 53 126.456 53H118.582ZM132.021 53V38.1543H141.721V41.3447H135.823V43.9336H140.926V47.1025H135.823V49.7881H141.721V53H132.021ZM145.115 53V49.7881H150.68C150.844 49.7881 150.927 49.7236 150.927 49.5947V47.4355C150.927 47.3783 150.902 47.3317 150.852 47.2959C150.809 47.2529 150.751 47.2314 150.68 47.2314H146.855C146.34 47.2314 145.921 47.0739 145.599 46.7588C145.276 46.4365 145.115 46.0176 145.115 45.502V39.8838C145.115 39.3682 145.276 38.9528 145.599 38.6377C145.921 38.3154 146.34 38.1543 146.855 38.1543H154.525V41.3447H149.165C149.101 41.3447 149.047 41.3698 149.004 41.4199C148.961 41.4629 148.939 41.5166 148.939 41.5811V43.7617C148.939 43.8047 148.961 43.8477 149.004 43.8906C149.047 43.9336 149.101 43.9551 149.165 43.9551H152.989C153.505 43.9551 153.924 44.1162 154.246 44.4385C154.568 44.7607 154.729 45.1797 154.729 45.6953V51.2598C154.729 51.7754 154.568 52.1943 154.246 52.5166C153.924 52.8389 153.505 53 152.989 53H145.115Z" fill="black"/>
<rect y="28" width="167" height="4" fill="black"/>
</svg>
