<svg width="146" height="146" viewBox="0 0 146 146" fill="none" xmlns="http://www.w3.org/2000/svg">
<path d="M30.1513 53.0024H13.0073C11.4367 53.0024 10.1537 54.2854 10.1537 55.856C10.1537 57.4266 11.4367 58.7097 13.0073 58.7097H30.1513C31.7219 58.7097 33.0049 57.4266 33.0049 55.856C33.0049 54.2633 31.7219 53.0024 30.1513 53.0024ZM27.2976 73C27.2976 71.4294 26.0146 70.1463 24.444 70.1463H7.27795C5.70735 70.1463 4.42432 71.4072 4.42432 73C4.42432 74.5706 5.70735 75.8536 7.27795 75.8536H24.4219C26.0146 75.8536 27.2976 74.5706 27.2976 73ZM30.1513 87.2903H13.0073C11.4367 87.2903 10.1537 88.5733 10.1537 90.1439C10.1537 91.7145 11.4367 92.9976 13.0073 92.9976H30.1513C31.7219 92.9976 33.0049 91.7145 33.0049 90.1439C33.0049 88.5512 31.7219 87.2903 30.1513 87.2903ZM93.5064 75.8315L139.165 38.4909C137.594 36.8539 135.382 35.8585 133.015 35.8585H47.2731C44.884 35.8585 42.694 36.8539 41.1234 38.4909L86.7816 75.8536C88.7282 77.4463 91.5598 77.4463 93.5064 75.8315Z" fill="#0D6EFD"/>
<path d="M140.608 44.2423L96.5867 80.2778C94.5515 81.9369 92.0739 82.7553 89.5964 82.7553C87.1188 82.7553 84.6412 81.9369 82.6061 80.2778L38.2088 43.9326C38.1867 43.9547 38.1867 43.9326 38.1646 43.9547V104.412C38.1646 107.575 40.7306 110.119 43.8718 110.119H135.299C138.462 110.119 141.006 107.553 141.006 104.412V44.4193C140.829 44.3308 140.807 44.3308 140.608 44.2423ZM68.7582 83.596L54.4679 97.8863C52.9858 99.479 50.9949 98.4393 50.4197 97.8863C49.3136 96.7802 49.3136 94.9662 50.4197 93.8381L64.71 79.5478C65.8161 78.4417 67.63 78.4417 68.7582 79.5478C69.8864 80.6538 69.8864 82.4678 68.7582 83.596ZM128.751 97.8641C128.198 98.4172 126.45 99.4126 124.703 97.8641L110.412 83.5738C109.306 82.4678 109.306 80.6538 110.412 79.5256C111.518 78.3975 113.332 78.4196 114.461 79.5256L128.751 93.8159C129.879 94.9441 129.879 96.7581 128.751 97.8641Z" fill="#0D6EFD"/>
</svg>
