<svg width="220" height="172" viewBox="0 0 220 172" fill="none" xmlns="http://www.w3.org/2000/svg">
<path d="M80.9156 77.9312C96.3071 77.9312 108.784 65.547 108.784 50.2703C108.784 34.9936 96.3071 22.6094 80.9156 22.6094C65.5241 22.6094 53.0469 34.9936 53.0469 50.2703C53.0469 65.547 65.5241 77.9312 80.9156 77.9312Z" fill="#DBE8EC"/>
<path d="M62.7158 41.2495H73.6491" stroke="#B9D4DB" stroke-width="3" stroke-miterlimit="10" stroke-linecap="round"/>
<path d="M62.7158 44.3772H73.6491" stroke="#B9D4DB" stroke-width="3" stroke-miterlimit="10" stroke-linecap="round"/>
<path d="M62.7158 47.5051H73.6491" stroke="#B9D4DB" stroke-width="3" stroke-miterlimit="10" stroke-linecap="round"/>
<path d="M206.09 90.5732V84.4621C206.09 83.2968 205.624 82.1792 204.794 81.3551C203.964 80.5311 202.838 80.0682 201.664 80.0682H186.038C185.457 80.0682 184.881 79.9546 184.344 79.7337C183.807 79.5129 183.319 79.1893 182.908 78.7813C182.497 78.3733 182.171 77.8889 181.948 77.3558C181.726 76.8227 181.611 76.2513 181.611 75.6743V69.5632C181.611 68.9862 181.726 68.4149 181.948 67.8818C182.171 67.3487 182.497 66.8643 182.908 66.4563C183.319 66.0483 183.807 65.7246 184.344 65.5038C184.881 65.283 185.457 65.1694 186.038 65.1694H186.531C187.706 65.1694 188.832 64.7064 189.662 63.8824C190.492 63.0584 190.958 61.9408 190.958 60.7755V54.6644C190.958 53.4991 190.492 52.3815 189.662 51.5574C188.832 50.7334 187.706 50.2705 186.531 50.2705H43.7322C42.5581 50.2705 41.4321 50.7334 40.6019 51.5574C39.7717 52.3815 39.3053 53.4991 39.3053 54.6644V60.7755C39.3053 61.9408 39.7717 63.0584 40.6019 63.8824C41.4321 64.7064 42.5581 65.1694 43.7322 65.1694V65.1694C44.9062 65.1694 46.0322 65.6323 46.8624 66.4563C47.6926 67.2803 48.159 68.3979 48.159 69.5632V75.6743C48.159 76.8397 47.6926 77.9573 46.8624 78.7813C46.0322 79.6053 44.9062 80.0682 43.7322 80.0682H26.613C25.4389 80.0682 24.3129 80.5311 23.4827 81.3551C22.6525 82.1792 22.1861 83.2968 22.1861 84.4621V90.5732C22.1861 91.7385 22.6525 92.8561 23.4827 93.6801C24.3129 94.5041 25.4389 94.9671 26.613 94.9671H33.3303C34.5044 94.9671 35.6304 95.43 36.4606 96.254C37.2908 97.078 37.7572 98.1956 37.7572 99.3609V105.472C37.7572 106.637 37.2908 107.755 36.4606 108.579C35.6304 109.403 34.5044 109.866 33.3303 109.866H33.314C32.14 109.866 31.014 110.329 30.1838 111.153C29.3536 111.977 28.8872 113.094 28.8872 114.26V120.371C28.8872 121.536 29.3536 122.654 30.1838 123.478C31.014 124.302 32.14 124.765 33.3141 124.765H34.2859C34.8673 124.765 35.4429 124.878 35.98 125.099C36.5171 125.32 37.0051 125.644 37.4162 126.052C37.8273 126.46 38.1534 126.944 38.3758 127.477C38.5983 128.01 38.7128 128.582 38.7128 129.159V135.27C38.7128 135.847 38.5983 136.418 38.3758 136.951C38.1534 137.484 37.8273 137.969 37.4162 138.377C37.0051 138.785 36.5171 139.108 35.98 139.329C35.4429 139.55 34.8673 139.664 34.2859 139.664H18.3361C17.162 139.664 16.036 140.127 15.2058 140.951C14.3756 141.775 13.9092 142.892 13.9092 144.058V150.169C13.9092 150.746 14.0237 151.317 14.2462 151.85C14.4686 152.383 14.7947 152.868 15.2058 153.276C15.6169 153.684 16.1049 154.007 16.642 154.228C17.1791 154.449 17.7547 154.562 18.3361 154.562H188.908C190.082 154.562 191.208 154.1 192.038 153.276C192.869 152.452 193.335 151.334 193.335 150.169V144.058C193.335 142.892 192.869 141.775 192.038 140.951C191.208 140.127 190.082 139.664 188.908 139.664H185.07C184.488 139.664 183.913 139.55 183.376 139.329C182.839 139.108 182.351 138.785 181.94 138.377C181.528 137.969 181.202 137.484 180.98 136.951C180.757 136.418 180.643 135.847 180.643 135.27V129.159C180.643 128.582 180.757 128.01 180.98 127.477C181.202 126.944 181.528 126.46 181.94 126.052C182.351 125.644 182.839 125.32 183.376 125.099C183.913 124.878 184.488 124.765 185.07 124.765H194.12C195.294 124.765 196.42 124.302 197.251 123.478C198.081 122.654 198.547 121.536 198.547 120.371V114.26C198.547 113.683 198.433 113.111 198.21 112.578C197.988 112.045 197.662 111.561 197.251 111.153C196.839 110.745 196.351 110.421 195.814 110.2C195.277 109.98 194.702 109.866 194.12 109.866H191.375C190.201 109.866 189.075 109.403 188.244 108.579C187.414 107.755 186.948 106.637 186.948 105.472V99.3609C186.948 98.1956 187.414 97.078 188.244 96.254C189.075 95.43 190.201 94.9671 191.375 94.9671H201.664C202.838 94.9671 203.964 94.5041 204.794 93.6801C205.624 92.8561 206.09 91.7385 206.09 90.5732V90.5732Z" fill="#DBE8EC"/>
<path d="M158.588 17.4377H73.6096C71.9273 17.4377 70.5635 18.7914 70.5635 20.4612V146.962C70.5635 148.632 71.9273 149.985 73.6096 149.985H158.588C160.271 149.985 161.634 148.632 161.634 146.962V20.4612C161.634 18.7914 160.271 17.4377 158.588 17.4377Z" fill="#3086A3"/>
<path d="M153.088 23.9231H79.1106C77.4283 23.9231 76.0645 25.2767 76.0645 26.9465V140.476C76.0645 142.146 77.4283 143.5 79.1106 143.5H153.088C154.771 143.5 156.134 142.146 156.134 140.476V26.9465C156.134 25.2767 154.771 23.9231 153.088 23.9231Z" fill="#DBE8EC"/>
<path d="M116.099 71.4075C124.388 71.4075 131.107 64.7382 131.107 56.5111C131.107 48.2841 124.388 41.6147 116.099 41.6147C107.81 41.6147 101.091 48.2841 101.091 56.5111C101.091 64.7382 107.81 71.4075 116.099 71.4075Z" fill="#F9AE2B"/>
<path d="M113.578 55.212V52.1145C113.578 51.8039 113.64 51.4964 113.76 51.2097C113.881 50.923 114.057 50.6629 114.279 50.4443C114.502 50.2257 114.765 50.053 115.055 49.9362C115.345 49.8193 115.656 49.7607 115.969 49.7636H116.229C116.542 49.7605 116.852 49.8191 117.142 49.9359C117.432 50.0527 117.696 50.2254 117.918 50.444C118.141 50.6626 118.317 50.9228 118.438 51.2095C118.558 51.4963 118.62 51.8038 118.62 52.1145V53.1579C118.62 53.2279 118.649 53.2949 118.698 53.3445C118.748 53.3941 118.815 53.4224 118.886 53.4233L120.145 53.429C120.18 53.4291 120.215 53.4224 120.248 53.4091C120.28 53.3958 120.31 53.3763 120.335 53.3516C120.36 53.327 120.38 53.2977 120.393 53.2654C120.407 53.2332 120.414 53.1985 120.414 53.1636V52.2871C120.414 51.7495 120.307 51.217 120.1 50.7203C119.893 50.2236 119.588 49.7723 119.205 49.3924C118.822 49.0124 118.367 48.7111 117.866 48.5059C117.366 48.3006 116.829 48.1953 116.287 48.196H115.91C115.369 48.1956 114.832 48.301 114.332 48.5064C113.831 48.7118 113.377 49.0131 112.993 49.393C112.61 49.773 112.306 50.2241 112.099 50.7207C111.892 51.2173 111.785 51.7496 111.785 52.2871V55.2948L113.578 55.212Z" fill="#409CB5"/>
<path d="M121.009 64.1186C121.325 64.1179 121.627 63.9933 121.849 63.7721C122.072 63.5508 122.198 63.2511 122.199 62.9382V56.2249C122.198 55.912 122.072 55.6122 121.849 55.391C121.627 55.1698 121.325 55.0452 121.009 55.0444H111.189C110.874 55.0452 110.572 55.1698 110.349 55.391C110.126 55.6122 110.001 55.912 110 56.2249V62.9382C110.001 63.2511 110.126 63.5509 110.349 63.7721C110.572 63.9933 110.874 64.1179 111.189 64.1186L121.009 64.1186Z" fill="#3086A3"/>
<path d="M116.099 57.3474C115.762 57.3486 115.438 57.4822 115.2 57.7192C114.961 57.9562 114.826 58.2773 114.825 58.6124C114.831 58.8027 114.881 58.9891 114.971 59.1573C115.06 59.3255 115.188 59.471 115.343 59.5826V61.067C115.343 61.266 115.423 61.4569 115.565 61.5976C115.706 61.7384 115.899 61.8175 116.099 61.8175C116.3 61.8175 116.492 61.7384 116.634 61.5976C116.776 61.4569 116.855 61.266 116.855 61.067V59.5826C117.011 59.4708 117.138 59.3252 117.228 59.157C117.317 58.9889 117.367 58.8026 117.373 58.6124C117.372 58.2773 117.238 57.9562 116.999 57.7192C116.76 57.4822 116.437 57.3486 116.099 57.3474V57.3474Z" fill="#409CB5"/>
<path d="M76.0645 126.823V140.966C76.0645 141.299 76.1305 141.628 76.2587 141.936C76.387 142.243 76.575 142.522 76.812 142.758C77.0491 142.993 77.3304 143.179 77.6401 143.307C77.9498 143.434 78.2817 143.5 78.6169 143.5H153.582C153.917 143.5 154.249 143.434 154.559 143.307C154.868 143.179 155.15 142.993 155.387 142.758C155.624 142.522 155.812 142.243 155.94 141.936C156.068 141.628 156.134 141.299 156.134 140.966V126.823H76.0645Z" fill="#409CB5"/>
<path d="M156.134 26.4565C156.134 26.1238 156.068 25.7944 155.94 25.487C155.812 25.1796 155.624 24.9004 155.387 24.6651C155.15 24.4299 154.868 24.2433 154.559 24.1159C154.249 23.9886 153.917 23.9231 153.582 23.9231H78.6169C78.2817 23.9231 77.9498 23.9886 77.6401 24.1159C77.3304 24.2433 77.0491 24.4299 76.812 24.6651C76.575 24.9004 76.387 25.1796 76.2587 25.487C76.1305 25.7944 76.0645 26.1238 76.0645 26.4565V31.5233H156.134V26.4565Z" fill="#409CB5"/>
<path d="M116.1 28.1792C118.468 28.1792 120.388 26.2737 120.388 23.9231C120.388 21.5725 118.468 19.667 116.1 19.667C113.731 19.667 111.812 21.5725 111.812 23.9231C111.812 26.2737 113.731 28.1792 116.1 28.1792Z" fill="#F9AE2B"/>
<path d="M116.1 139.418C118.468 139.418 120.388 137.512 120.388 135.162C120.388 132.811 118.468 130.906 116.1 130.906C113.731 130.906 111.812 132.811 111.812 135.162C111.812 137.512 113.731 139.418 116.1 139.418Z" fill="#F9AE2B"/>
<path d="M108.345 76.6179H85.6687C85.1079 76.6179 84.6533 77.0691 84.6533 77.6257V84.17C84.6533 84.7266 85.1079 85.1778 85.6687 85.1778H108.345C108.906 85.1778 109.361 84.7266 109.361 84.17V77.6257C109.361 77.0691 108.906 76.6179 108.345 76.6179Z" fill="#F9AE2B"/>
<path d="M146.734 76.6179H118.748C118.187 76.6179 117.732 77.0691 117.732 77.6257V114.948C117.732 115.505 118.187 115.956 118.748 115.956H146.734C147.294 115.956 147.749 115.505 147.749 114.948V77.6257C147.749 77.0691 147.294 76.6179 146.734 76.6179Z" fill="#EE781D"/>
<path d="M108.345 92.0071H85.6687C85.1079 92.0071 84.6533 92.4583 84.6533 93.0149V99.5592C84.6533 100.116 85.1079 100.567 85.6687 100.567H108.345C108.906 100.567 109.361 100.116 109.361 99.5592V93.0149C109.361 92.4583 108.906 92.0071 108.345 92.0071Z" fill="#F9AE2B"/>
<path d="M108.345 107.396H85.6687C85.1079 107.396 84.6533 107.847 84.6533 108.404V114.948C84.6533 115.505 85.1079 115.956 85.6687 115.956H108.345C108.906 115.956 109.361 115.505 109.361 114.948V108.404C109.361 107.847 108.906 107.396 108.345 107.396Z" fill="#F9AE2B"/>
<path d="M132.741 104.666H124.092C123.925 104.666 123.761 104.622 123.616 104.539C123.472 104.456 123.352 104.337 123.268 104.194C123.185 104.05 123.141 103.887 123.141 103.722C123.141 103.556 123.185 103.393 123.268 103.25L127.593 95.815L131.917 88.3802C132.001 88.2367 132.121 88.1175 132.266 88.0347C132.41 87.9518 132.574 87.9082 132.741 87.9082C132.908 87.9082 133.072 87.9518 133.217 88.0347C133.361 88.1175 133.481 88.2367 133.565 88.3802L137.89 95.815L142.214 103.25C142.298 103.393 142.342 103.556 142.342 103.722C142.342 103.887 142.298 104.05 142.214 104.194C142.131 104.337 142.011 104.456 141.866 104.539C141.722 104.622 141.558 104.666 141.391 104.666H132.741Z" fill="#F9AE2B"/>
<path d="M132.741 91.8379H132.741C132.479 91.8379 132.266 92.0493 132.266 92.3101V99.3508C132.266 99.6116 132.479 99.8231 132.741 99.8231H132.741C133.004 99.8231 133.217 99.6116 133.217 99.3508V92.3101C133.217 92.0493 133.004 91.8379 132.741 91.8379Z" fill="#409CB5"/>
<path d="M133.874 102.03C133.936 101.409 133.479 100.855 132.853 100.794C132.228 100.732 131.67 101.186 131.608 101.807C131.546 102.428 132.003 102.981 132.629 103.043C133.255 103.104 133.812 102.651 133.874 102.03Z" fill="#409CB5"/>
<path d="M58.9102 127.251V119.344C58.9103 118.552 59.0686 117.767 59.376 117.035C59.6835 116.303 60.1339 115.639 60.7014 115.081C61.2689 114.523 61.9421 114.083 62.6821 113.784C63.4222 113.486 64.2145 113.336 65.0132 113.344H65.6774C66.4762 113.336 67.2686 113.486 68.0089 113.784C68.7491 114.082 69.4224 114.523 69.9899 115.081C70.5574 115.639 71.0079 116.303 71.3152 117.035C71.6226 117.766 71.7807 118.552 71.7805 119.344V122.008C71.7819 122.186 71.8537 122.357 71.9806 122.484C72.1075 122.611 72.2793 122.683 72.4593 122.685L75.6732 122.7C75.7631 122.7 75.8522 122.683 75.9353 122.649C76.0185 122.615 76.0941 122.565 76.1578 122.502C76.2216 122.439 76.2722 122.365 76.3067 122.282C76.3413 122.2 76.3592 122.112 76.3593 122.022V119.785C76.3597 118.413 76.0874 117.054 75.558 115.786C75.0287 114.518 74.2527 113.366 73.2744 112.396C72.2962 111.426 71.1348 110.658 69.8569 110.134C68.5789 109.61 67.2094 109.341 65.8267 109.343H64.864C63.4816 109.342 62.1126 109.611 60.8351 110.135C59.5577 110.659 58.3968 111.428 57.419 112.398C56.4412 113.368 55.6655 114.519 55.1363 115.787C54.6071 117.054 54.3348 118.413 54.335 119.785V127.462L58.9102 127.251Z" fill="#EE781D"/>
<path d="M77.8793 149.985C78.6837 149.983 79.4547 149.665 80.0236 149.1C80.5924 148.536 80.9129 147.771 80.9148 146.972V129.836C80.9129 129.038 80.5924 128.273 80.0236 127.708C79.4547 127.144 78.6837 126.825 77.8793 126.823H52.8139C52.0094 126.825 51.2385 127.144 50.6696 127.708C50.1008 128.273 49.7803 129.038 49.7783 129.836V146.972C49.7803 147.771 50.1008 148.536 50.6696 149.1C51.2385 149.665 52.0094 149.983 52.8139 149.985H77.8793Z" fill="#F9AE2B"/>
<path d="M65.3469 132.701C64.4851 132.704 63.6595 133.045 63.0502 133.65C62.4409 134.255 62.0974 135.075 62.0947 135.93C62.1096 136.416 62.2366 136.892 62.4658 137.321C62.695 137.75 63.0204 138.122 63.4169 138.407V142.195C63.4176 142.703 63.6212 143.19 63.9831 143.548C64.345 143.907 64.8355 144.109 65.3469 144.109C65.8583 144.109 66.3489 143.907 66.7107 143.548C67.0726 143.19 67.2762 142.703 67.2769 142.195V138.407C67.6728 138.121 67.9977 137.75 68.2269 137.32C68.456 136.891 68.5833 136.416 68.599 135.93C68.5963 135.075 68.2529 134.255 67.6436 133.65C67.0343 133.045 66.2087 132.704 65.3469 132.701V132.701Z" fill="#EE781D"/>
<path d="M21.002 144.116H31.9352" stroke="#B9D4DB" stroke-width="3" stroke-miterlimit="10" stroke-linecap="round"/>
<path d="M21.002 147.244H31.9352" stroke="#B9D4DB" stroke-width="3" stroke-miterlimit="10" stroke-linecap="round"/>
<path d="M21.002 150.371H31.9352" stroke="#B9D4DB" stroke-width="3" stroke-miterlimit="10" stroke-linecap="round"/>
<path d="M166.805 95.4182H177.738" stroke="#B9D4DB" stroke-width="3" stroke-miterlimit="10" stroke-linecap="round"/>
<path d="M166.805 98.5459H177.738" stroke="#B9D4DB" stroke-width="3" stroke-miterlimit="10" stroke-linecap="round"/>
<path d="M166.805 101.674H177.738" stroke="#B9D4DB" stroke-width="3" stroke-miterlimit="10" stroke-linecap="round"/>
<path d="M46.1589 107.616C49.2297 107.616 51.7191 105.145 51.7191 102.097C51.7191 99.0495 49.2297 96.5786 46.1589 96.5786C43.088 96.5786 40.5986 99.0495 40.5986 102.097C40.5986 105.145 43.088 107.616 46.1589 107.616Z" fill="#B9D4DB"/>
<path d="M46.3845 93.72C47.9841 93.72 49.2808 92.433 49.2808 90.8453C49.2808 89.2577 47.9841 87.9707 46.3845 87.9707C44.785 87.9707 43.4883 89.2577 43.4883 90.8453C43.4883 92.433 44.785 93.72 46.3845 93.72Z" fill="#B9D4DB"/>
<path d="M65.6756 95.0129C67.06 95.0129 68.1823 93.8989 68.1823 92.5249C68.1823 91.1508 67.06 90.0369 65.6756 90.0369C64.2912 90.0369 63.1689 91.1508 63.1689 92.5249C63.1689 93.8989 64.2912 95.0129 65.6756 95.0129Z" fill="#B9D4DB"/>
<path d="M56.5554 91.7653C57.4781 91.7653 58.226 91.0229 58.226 90.1071C58.226 89.1914 57.4781 88.449 56.5554 88.449C55.6327 88.449 54.8848 89.1914 54.8848 90.1071C54.8848 91.0229 55.6327 91.7653 56.5554 91.7653Z" fill="#B9D4DB"/>
<path d="M58.4971 103.133C60.7089 103.133 62.502 101.353 62.502 99.1581C62.502 96.9628 60.7089 95.1831 58.4971 95.1831C56.2852 95.1831 54.4922 96.9628 54.4922 99.1581C54.4922 101.353 56.2852 103.133 58.4971 103.133Z" fill="#B9D4DB"/>
<path d="M180.036 148.585C183.107 148.585 185.596 146.114 185.596 143.066C185.596 140.018 183.107 137.548 180.036 137.548C176.965 137.548 174.476 140.018 174.476 143.066C174.476 146.114 176.965 148.585 180.036 148.585Z" fill="#B9D4DB"/>
<path d="M168.266 148.661C169.866 148.661 171.163 147.374 171.163 145.786C171.163 144.199 169.866 142.912 168.266 142.912C166.667 142.912 165.37 144.199 165.37 145.786C165.37 147.374 166.667 148.661 168.266 148.661Z" fill="#B9D4DB"/>
<path d="M168.267 138.125C170.478 138.125 172.271 136.345 172.271 134.15C172.271 131.954 170.478 130.175 168.267 130.175C166.055 130.175 164.262 131.954 164.262 134.15C164.262 136.345 166.055 138.125 168.267 138.125Z" fill="#B9D4DB"/>
<path d="M180.489 50.7111C183.56 50.7111 186.049 48.2403 186.049 45.1924C186.049 42.1444 183.56 39.6736 180.489 39.6736C177.418 39.6736 174.929 42.1444 174.929 45.1924C174.929 48.2403 177.418 50.7111 180.489 50.7111Z" fill="#B9D4DB"/>
<path d="M169.46 53.1991C170.844 53.1991 171.967 52.0852 171.967 50.7111C171.967 49.3371 170.844 48.2231 169.46 48.2231C168.075 48.2231 166.953 49.3371 166.953 50.7111C166.953 52.0852 168.075 53.1991 169.46 53.1991Z" fill="#B9D4DB"/>
<path d="M166.387 45.1925C168.599 45.1925 170.392 43.4128 170.392 41.2174C170.392 39.0221 168.599 37.2424 166.387 37.2424C164.175 37.2424 162.382 39.0221 162.382 41.2174C162.382 43.4128 164.175 45.1925 166.387 45.1925Z" fill="#B9D4DB"/>
</svg>
