<svg width="222" height="174" viewBox="0 0 222 174" fill="none" xmlns="http://www.w3.org/2000/svg">
<path d="M196.394 51.0917C173.292 25.3229 144.042 40.1233 120.881 39.8768C110.257 16.7226 56.5537 1.83807 30.1836 41.1041C12.7572 65.6711 26.8606 105.309 69.5898 109.98C78.2232 135.634 110.264 154.065 151.178 134.631C202.681 108.302 211.227 67.6362 196.394 51.0917V51.0917Z" fill="#F6F6F6"/>
<path d="M204.4 106.145C204.4 106.145 196.692 110.674 194.283 114.096C191.878 117.511 188.187 118.897 188.187 118.897L184.577 117.199L184.879 121.059C177.407 124.126 170.052 119.666 168.315 118.486C168.061 118.316 167.926 118.217 167.926 118.217C167.298 108.332 180.089 106.069 188.677 104.329C197.254 102.592 204.4 106.145 204.4 106.145V106.145Z" fill="#DBC6CE"/>
<path opacity="0.2" d="M195.378 107.353L186.483 112.163L185.198 110.916L183.814 112.265C183.814 112.265 172.453 114.844 168.268 118.448L172.411 115.781L179.288 112.415L184.932 110.304C184.932 110.304 192.134 107.954 195.378 107.353Z" fill="#594A42"/>
<path opacity="0.1" d="M204.4 106.145C204.4 106.145 196.692 110.674 194.283 114.096C191.878 117.511 188.187 118.897 188.187 118.897L184.578 117.199L184.879 121.059C177.407 124.126 170.052 119.666 168.315 118.486C168.563 118.477 168.73 118.481 168.73 118.481C180.707 121.542 182.465 118.466 182.465 118.466L183.38 113.741L186.984 114.871C186.984 114.871 190.748 112.873 192.947 110.25C195.141 107.635 204.4 106.145 204.4 106.145V106.145Z" fill="white"/>
<path d="M195.374 107.324C190.457 108.353 185.628 109.79 180.935 111.583C176.268 113.422 171.68 115.605 167.672 118.68L166.917 119.248C166.663 119.435 166.442 119.663 166.203 119.869L164.796 121.136C163.92 122.032 163.028 122.914 162.175 123.832C161.46 124.593 160.761 125.369 160.064 126.147C160.173 126.3 160.284 126.452 160.397 126.601C161.116 125.795 161.84 124.992 162.579 124.204C163.415 123.278 164.291 122.388 165.151 121.483L166.516 120.22C166.748 120.014 166.961 119.786 167.209 119.599L167.947 119.028C171.868 115.95 176.408 113.722 181.038 111.84C185.688 109.984 190.491 108.479 195.385 107.378L195.374 107.324V107.324Z" fill="#F6F6F6"/>
<path d="M194.219 84.8506C194.219 84.8506 190.518 91.5809 190.252 95.1705C189.986 98.7532 187.867 101.396 187.867 101.396L184.438 101.717L186.375 104.445C182.2 109.988 174.77 109.903 172.959 109.788C172.695 109.773 172.551 109.759 172.551 109.759C167.696 102.709 176.17 95.4338 181.761 90.3861C187.345 85.3459 194.219 84.8506 194.219 84.8506V84.8506Z" fill="#E3E0E1"/>
<path opacity="0.2" d="M188.07 89.6941L183.614 97.1517L182.109 96.7898L181.682 98.3953C181.682 98.3953 174.408 105.278 172.907 109.781L174.793 105.992L178.394 100.487L181.639 96.4528C181.639 96.4534 185.932 91.56 188.07 89.6941Z" fill="#594A42"/>
<path opacity="0.1" d="M194.218 84.8506C194.218 84.8506 190.518 91.5809 190.252 95.1705C189.986 98.7532 187.867 101.396 187.867 101.396L184.438 101.717L186.375 104.445C182.2 109.988 174.769 109.903 172.959 109.788C173.138 109.673 173.263 109.603 173.263 109.603C183.498 106.63 183.434 103.581 183.434 103.581L182.015 99.6789L185.188 98.9382C185.188 98.9382 187.089 95.8114 187.554 92.9051C188.019 90.0074 194.218 84.8506 194.218 84.8506V84.8506Z" fill="white"/>
<path d="M188.053 89.675C184.867 92.5895 181.926 95.7668 179.244 99.1499C176.603 102.555 174.173 106.181 172.567 110.213L172.26 110.965C172.155 111.215 172.093 111.48 172.007 111.737L171.527 113.292C171.275 114.34 171.006 115.383 170.782 116.437C170.59 117.314 170.416 118.195 170.246 119.076C170.394 119.142 170.543 119.206 170.694 119.267C170.869 118.355 171.049 117.443 171.247 116.535C171.455 115.483 171.708 114.44 171.944 113.394L172.395 111.86C172.475 111.606 172.532 111.344 172.633 111.097L172.926 110.351C174.465 106.354 176.84 102.716 179.435 99.2949C182.056 95.8845 184.947 92.6673 188.086 89.7098L188.053 89.675V89.675Z" fill="#F6F6F6"/>
<path d="M19.1807 113.056C19.1807 113.056 22.8811 119.787 23.1469 123.376C23.4133 126.959 25.5322 129.601 25.5322 129.601L28.9615 129.923L27.0243 132.651C31.199 138.194 38.6296 138.108 40.4401 137.994C40.7047 137.979 40.8485 137.965 40.8485 137.965C45.7032 130.915 37.2293 123.64 31.6384 118.592C26.0533 113.552 19.1807 113.056 19.1807 113.056V113.056Z" fill="#E3E0E1"/>
<path opacity="0.2" d="M25.3281 117.901L29.7839 125.358L31.2894 124.996L31.7159 126.602C31.7159 126.602 38.9899 133.485 40.4907 137.987L38.6049 134.198L35.0038 128.694L31.7591 124.659C31.7591 124.659 27.4658 119.766 25.3281 117.901V117.901Z" fill="#594A42"/>
<path opacity="0.1" d="M19.1807 113.056C19.1807 113.056 22.8811 119.787 23.1469 123.376C23.4133 126.959 25.5322 129.601 25.5322 129.601L28.9615 129.923L27.0243 132.651C31.199 138.194 38.6296 138.108 40.4401 137.994C40.2607 137.879 40.1357 137.809 40.1357 137.809C29.9015 134.836 29.9646 131.786 29.9646 131.786L31.3837 127.885L28.2114 127.144C28.2114 127.144 26.3098 124.017 25.8448 121.111C25.3803 118.213 19.1807 113.056 19.1807 113.056V113.056Z" fill="white"/>
<path d="M25.3452 117.881C28.5315 120.795 31.4718 123.973 34.1539 127.356C36.7952 130.761 39.2255 134.386 40.8309 138.419L41.1382 139.171C41.2433 139.421 41.3053 139.686 41.3911 139.943L41.8714 141.498C42.1226 142.546 42.3919 143.589 42.6162 144.643C42.8078 145.52 42.9819 146.401 43.152 147.282C43.0036 147.348 42.8546 147.412 42.7039 147.474C42.5292 146.561 42.3492 145.65 42.1512 144.742C41.9426 143.69 41.6897 142.647 41.4537 141.601L41.0032 140.067C40.9226 139.813 40.8659 139.551 40.7654 139.304L40.4722 138.558C38.9334 134.56 36.558 130.923 33.9635 127.502C31.3416 124.091 28.4515 120.874 25.3125 117.917L25.3452 117.881V117.881Z" fill="#F6F6F6"/>
<path d="M200.305 118.957C199.562 120.363 198.403 120.765 197.352 120.552C196.302 120.285 195.054 119.649 194.445 118.813C193.817 118.06 194.917 116.315 197.433 115.858C199.996 115.468 201.112 117.572 200.305 118.957V118.957ZM30.8904 108.399C30.1478 109.805 28.9888 110.207 27.9372 109.995C26.8874 109.727 25.6389 109.091 25.0307 108.255C24.4021 107.502 25.5028 105.758 28.0184 105.3C30.5819 104.91 31.6977 107.014 30.8904 108.399Z" fill="#E3E0E1"/>
<path d="M41.4521 66.395L47.5893 146.113L172.004 146.827L177.025 68.4476L41.4521 66.395Z" fill="#DBC6CE"/>
<path opacity="0.2" d="M171.956 105.581C170.933 106.677 169.798 107.623 168.508 108.393C167.235 109.154 165.89 109.792 164.623 110.563C163.228 111.412 161.931 112.394 161.321 113.954C160.786 115.322 160.777 116.811 160.579 118.247C160.388 119.63 159.984 121.012 159.058 122.095C158.275 123.011 157.221 123.641 156.128 124.127C153.687 125.212 151.027 125.735 148.747 127.175C146.412 128.649 144.879 130.889 143.731 133.343C142.376 136.239 141.236 139.207 140.332 142.274C139.908 143.715 139.526 145.172 139.186 146.638L172.004 146.827L174.943 100.957C174.224 102.651 173.235 104.211 171.956 105.581V105.581ZM76.1369 75.7127C100.003 76.4221 123.861 76.9307 147.737 77.085C157.314 77.1471 166.889 77.1714 176.466 77.165L177.024 68.4476L41.4512 66.395L42.1131 74.99C53.4573 75.0753 64.798 75.3757 76.1369 75.7127V75.7127Z" fill="#594A42"/>
<path d="M177.024 51.4866L175.617 35.4212L46.4725 35.2773L41.4512 51.0731L177.024 51.4866ZM55.7673 85.8812L58.2338 117.922L108.239 118.209L110.257 86.7059L55.7673 85.8812Z" fill="#385C65"/>
<path d="M38.4766 144.009V147.948H178.885V144.378L154.212 144.994L160.535 86.7733L119.994 85.6655L120.365 144.624L38.4766 144.009Z" fill="#385C65"/>
<path d="M58.5576 88.5955L60.7718 117.946L105.657 118.209L107.468 89.3512L58.5576 88.5955Z" fill="#FBF4FE"/>
<path d="M122.349 146.826H152.229L158.428 88.7915L122.349 87.4755V146.826ZM58.0967 116.844H108.239V119.573H58.0967V116.844ZM36.71 53.1621V68.3796C36.71 72.0063 39.6713 74.9463 43.3244 74.9463C46.9775 74.9463 49.9388 72.0063 49.9388 68.3796V53.1621H36.71Z" fill="#385C65"/>
<path d="M49.9385 53.1621V68.3796C49.9385 72.0063 52.8998 74.9463 56.5529 74.9463C60.206 74.9463 63.1673 72.0063 63.1673 68.3796V53.1621H49.9385Z" fill="#FDF6FE"/>
<path d="M63.168 53.1621V68.3796C63.168 72.0063 66.1293 74.9463 69.7824 74.9463C73.4355 74.9463 76.3968 72.0063 76.3968 68.3796V53.1621H63.168Z" fill="#385C65"/>
<path d="M76.3975 53.1621V68.3796C76.3975 72.0063 79.3588 74.9463 83.0119 74.9463C86.665 74.9463 89.6263 72.0063 89.6263 68.3796V53.1621H76.3975Z" fill="#FDF6FE"/>
<path d="M89.627 53.1621V68.3796C89.627 72.0063 92.5883 74.9463 96.2414 74.9463C99.8945 74.9463 102.856 72.0063 102.856 68.3796V53.1621H89.627Z" fill="#385C65"/>
<path d="M102.856 53.1621V68.3796C102.856 72.0063 105.818 74.9463 109.471 74.9463C113.124 74.9463 116.085 72.0063 116.085 68.3796V53.1621H102.856Z" fill="#FDF6FE"/>
<path d="M116.086 53.1621V68.3796C116.086 72.0063 119.047 74.9463 122.7 74.9463C126.353 74.9463 129.315 72.0063 129.315 68.3796V53.1621H116.086V53.1621Z" fill="#385C65"/>
<path d="M129.315 53.1621V68.3796C129.315 72.0063 132.277 74.9463 135.93 74.9463C139.583 74.9463 142.544 72.0063 142.544 68.3796V53.1621H129.315Z" fill="#FDF6FE"/>
<path d="M142.544 53.1621V68.3796C142.544 72.0063 145.505 74.9463 149.158 74.9463C152.811 74.9463 155.773 72.0063 155.773 68.3796V53.1621H142.544V53.1621ZM169.003 53.1621V68.3796C169.003 72.0063 171.964 74.9463 175.617 74.9463C179.27 74.9463 182.232 72.0063 182.232 68.3796V53.1621H169.003V53.1621Z" fill="#385C65"/>
<path d="M155.773 53.1621V68.3796C155.773 72.0063 158.735 74.9463 162.388 74.9463C166.041 74.9463 169.002 72.0063 169.002 68.3796V53.1621H155.773V53.1621Z" fill="#FDF6FE"/>
<path d="M49.9388 53.2967L56.6339 44.6692H44.8924L36.71 53.2967H49.9388Z" fill="#1B2E36"/>
<path d="M63.1679 53.2967L68.375 44.6692H56.6335L49.9385 53.2967H63.1679Z" fill="#EFF1F2"/>
<path d="M76.3974 53.2967L80.1165 44.6692H68.375L63.168 53.2967H76.3974Z" fill="#1B2E36"/>
<path d="M89.6263 53.2967L91.858 44.6692H80.1165L76.3975 53.2967H89.6263Z" fill="#EFF1F2"/>
<path d="M102.856 53.2967L103.601 44.6692H91.8586L89.627 53.2967H102.856Z" fill="#1B2E36"/>
<path d="M116.086 53.2967L115.342 44.6692H103.601L102.856 53.2967H116.086Z" fill="#EFF1F2"/>
<path d="M129.315 53.2967L127.083 44.6692H115.342L116.086 53.2967H129.315Z" fill="#1B2E36"/>
<path d="M142.544 53.2967L138.824 44.6692H127.083L129.315 53.2967H142.544Z" fill="#EFF1F2"/>
<path d="M155.774 53.2967L150.567 44.6692H138.825L142.544 53.2967H155.774ZM182.233 53.2967L174.05 44.6692H162.308L169.003 53.2967H182.233Z" fill="#1B2E36"/>
<path d="M169.003 53.2967L162.308 44.6692H150.566L155.773 53.2967H169.003Z" fill="#EFF1F2"/>
<path opacity="0.3" d="M122.35 104.713H127.557L129.603 120.592L136.204 119.573L137.413 128.161L139.366 107.298H145.41L146.433 116.437L149.966 98.4358L157.347 98.9108L152.229 146.826H122.35V104.713Z" fill="#1B2E36"/>
<path opacity="0.1" d="M59.2207 97.3883L65.5313 98.1678L67.5772 105.196L74.1794 104.744L75.3881 108.546L77.3406 99.3116H83.3848L84.4072 103.357L87.9411 95.3896L107.127 95.5996L105.657 116.807H60.3243L59.2207 97.3883Z" fill="#1B2E36"/>
<path d="M36.71 146.826H182.232V150.902H36.71V146.826Z" fill="#1B2E36"/>
<path d="M196.532 153.651H161.748L166.019 119.573H192.261L196.532 153.651Z" fill="#FFBF9F"/>
<path d="M173.08 123.823C173.08 124.48 172.543 125.013 171.881 125.013C171.22 125.013 170.683 124.48 170.683 123.823C170.683 123.166 171.22 122.633 171.881 122.633C172.543 122.633 173.08 123.166 173.08 123.823ZM187.434 123.823C187.434 124.48 186.897 125.013 186.235 125.013C185.574 125.013 185.037 124.48 185.037 123.823C185.037 123.166 185.574 122.633 186.235 122.633C186.897 122.633 187.434 123.166 187.434 123.823Z" fill="#E36247"/>
<path d="M171.41 124.284C171.732 127.456 173.946 130.102 177.081 130.89C178.611 131.274 180.393 131.257 181.828 130.541C182.536 130.188 183.039 129.601 183.369 128.895C183.663 128.265 183.894 127.763 184.419 127.284C185.431 126.359 186.639 125.674 186.781 124.183C186.845 123.504 185.777 123.508 185.714 124.183C185.595 125.427 184.006 126.089 183.261 126.941C182.766 127.506 182.605 128.177 182.215 128.798C181.703 129.616 180.743 129.91 179.826 130.026C176.226 130.485 172.843 127.876 172.479 124.284C172.41 123.612 171.341 123.605 171.41 124.284V124.284Z" fill="#1B2E36"/>
<path d="M180.817 153.651H152.051L155.583 125.469H177.285L180.817 153.651Z" fill="#FA9C70"/>
<path d="M161.422 128.984C161.422 129.527 160.978 129.968 160.431 129.968C159.883 129.968 159.439 129.527 159.439 128.984C159.439 128.44 159.883 128 160.431 128C160.978 128 161.422 128.44 161.422 128.984ZM173.293 128.984C173.293 129.527 172.849 129.968 172.301 129.968C171.754 129.968 171.31 129.527 171.31 128.984C171.31 128.44 171.754 128 172.301 128C172.849 128 173.293 128.44 173.293 128.984Z" fill="#E36247"/>
<path d="M160.042 129.365C160.308 131.988 162.139 134.176 164.731 134.827C165.997 135.146 167.471 135.131 168.657 134.539C169.242 134.247 169.658 133.761 169.931 133.177C170.174 132.656 170.366 132.241 170.8 131.846C171.637 131.081 172.636 130.514 172.753 129.281C172.806 128.719 171.923 128.723 171.87 129.281C171.773 130.31 170.458 130.857 169.841 131.562C169.432 132.029 169.299 132.585 168.977 133.098C168.553 133.775 167.759 134.017 167.001 134.114C164.024 134.494 161.227 132.336 160.925 129.366C160.868 128.809 159.984 128.803 160.042 129.365V129.365Z" fill="#1B2E36"/>
<path d="M36.5002 105.646C36.5002 105.646 28.6729 119.299 31.7131 121.499C34.7534 123.699 39.3762 119.925 39.3762 119.925L42.6636 107.993L36.5002 105.646V105.646ZM65.4717 102.55C65.4717 102.55 75.3402 114.83 72.6815 117.471C70.0222 120.114 64.8648 117.099 64.8648 117.099L59.7494 105.818L65.4717 102.55V102.55Z" fill="#FF9C92"/>
<path d="M72.9942 115.082C72.9942 115.082 76.867 110.141 78.6511 110.036C80.4353 109.93 80.8372 110.645 80.8372 110.645C80.8372 110.645 76.3879 122.084 72.6694 121.852C68.9503 121.62 72.9942 115.082 72.9942 115.082V115.082Z" fill="#F28B86"/>
<path d="M60.9114 150.366C58.9607 150.913 42.1898 155.531 30.9274 154.357C18.8272 153.104 18.0193 147.48 17.6348 144.78C17.2405 142.099 20.1575 138.343 26.3156 136.67C27.0938 136.465 28.2172 136.367 29.5971 136.367C38.5835 136.367 61.2532 138.803 63.4112 139.234L60.9114 150.366V150.366Z" fill="#1B2E36"/>
<path d="M38.8788 154.231L32.3351 154.229L31.7129 149.866L37.1466 148.931L38.8788 154.231Z" fill="#FF9C92"/>
<path d="M34.5417 154.874C33.8091 155.877 32.6296 156.569 31.5155 157.031C30.246 157.558 28.8217 156.722 28.647 155.368L28.0202 150.493C27.8566 149.222 28.8795 148.095 30.1695 148.151C31.273 148.199 32.5145 148.427 33.4954 149.076C34.4184 149.697 34.9892 150.613 35.2065 151.813C35.4104 152.959 35.1797 153.984 34.5417 154.874V154.874Z" fill="#395B64"/>
<path d="M83.4173 147.225C83.3285 148.878 82.964 152.136 81.9784 153.026C80.9835 153.907 76.776 153.085 74.9825 152.733C74.8049 152.694 74.667 152.665 74.5391 152.645L83.4173 147.225Z" fill="#1B2E36"/>
<path d="M83.9093 147.235C83.7317 147.431 83.5547 147.627 83.3771 147.813C80.8545 150.395 77.4257 152.127 75.839 152.841C75.8092 152.851 75.78 152.871 75.7502 152.88C75.4943 152.988 75.1596 153.086 74.7553 153.184C67.5228 154.945 38.1101 155.336 37.7847 155.336C37.627 155.346 37.4792 155.287 37.3314 155.151C37.2823 155.102 37.2233 155.053 37.1736 154.984C37.1637 154.964 37.1444 154.955 37.1345 154.935C37.0457 154.817 36.9569 154.67 36.8681 154.504C36.8681 154.495 36.8581 154.485 36.8581 154.475C36.1781 153.135 35.8036 150.513 35.6167 148.644C35.5974 148.468 35.5875 148.292 35.5676 148.136C35.5478 147.852 35.5285 147.597 35.5186 147.372L58.1719 140.231L59.1475 139.928L61.0392 139.331L62.5862 138.842L70.8142 136.25C70.8434 136.24 71.7601 135.936 73.1394 135.633V135.624C73.2971 135.594 73.4648 135.565 73.6418 135.526C75.041 135.242 76.7948 134.978 78.5486 134.968C79.0119 134.968 79.4746 134.978 79.9279 135.017C82.6275 135.242 85.1011 136.25 85.9879 138.891C87.0921 142.188 85.8798 144.995 83.9093 147.235V147.235Z" fill="#395B64"/>
<path d="M51.475 92.1579C40.6963 92.5773 32.4449 132.079 35.3648 135.681C44.9681 147.529 72.1741 139.042 73.9881 135.454C77.4741 128.558 63.7714 91.6794 51.475 92.1579V92.1579Z" fill="#E36247"/>
<path d="M51.194 89.2487C49.7901 90.6992 50.4912 91.7711 48.6585 90.6847C46.8258 89.5978 45.6171 89.4725 45.5493 86.1416C45.4816 82.8107 46.8422 84.8053 47.0467 81.8809C47.2511 78.956 48.5989 80.3149 49.9642 78.8272C51.3295 77.3395 53.5904 79.0917 54.4854 78.6248C55.381 78.1579 56.7381 79.9652 55.8233 81.3688C54.909 82.7724 51.7869 83.172 50.3457 84.6232C48.9039 86.0743 51.194 89.2487 51.194 89.2487V89.2487Z" fill="#1B2E36"/>
<path d="M49.3822 93.6085L49.6883 89.2973C49.6883 89.2973 49.5861 88.7307 49.107 88.7063C48.3639 88.6692 47.9486 87.4251 48.3341 86.8329C48.8786 85.9989 49.5744 86.7303 49.5744 86.7303C49.5744 86.7303 51.2359 84.2328 52.4943 83.7288C54.2019 83.0444 55.8442 83.6122 55.8442 83.6122C55.8442 83.6122 57.3298 89.1767 56.3951 90.5826C55.4609 91.9885 53.3876 91.4375 53.3876 91.4375L54.1377 94.2511C54.1377 94.2511 53.4355 95.9807 51.7214 95.7458C50.0079 95.512 49.3822 93.6085 49.3822 93.6085V93.6085Z" fill="#FF9C92"/>
<path opacity="0.1" d="M54.4704 91.538C54.1613 91.3913 53.8429 91.2625 53.5392 91.1512C52.841 90.8936 52.1248 90.6065 51.3974 90.4053C51.6767 91.3629 52.3304 92.1992 52.6342 93.1533C52.9503 94.144 53.028 93.9172 52.2656 94.6955C51.9127 95.0557 51.4711 95.3132 50.9961 95.5139C51.2152 95.6206 51.45 95.7094 51.7217 95.7465C53.4358 95.9814 54.138 94.2513 54.138 94.2513L53.3879 91.4377C53.3884 91.4383 53.8704 91.5618 54.4704 91.538V91.538Z" fill="#0F1019"/>
<path d="M49.0172 86.887C49.0172 86.887 48.5177 86.8852 48.4791 87.1195C48.4405 87.3539 48.6631 88.2268 48.6631 88.2268C48.6631 88.2268 48.6771 87.4032 48.7519 87.2408C48.8267 87.0778 49.0855 86.9676 49.0172 86.887V86.887Z" fill="#EF9A9E"/>
<g opacity="0.05">
<path d="M51.748 88.4983C51.7475 88.725 52.0267 88.9089 52.372 88.9101C52.7173 88.9112 52.9977 88.7279 52.9983 88.5012C52.9988 88.2744 52.7196 88.0905 52.3743 88.0894C52.0285 88.0888 51.748 88.2715 51.748 88.4983Z" fill="#33133F"/>
</g>
<g opacity="0.05">
<path d="M55.5557 87.8916C55.5551 88.1184 55.8343 88.3028 56.1796 88.3034C56.5249 88.3039 56.8053 88.1213 56.8059 87.8945C56.8065 87.6683 56.5272 87.4838 56.1819 87.4827C55.8361 87.4821 55.5562 87.6648 55.5557 87.8916Z" fill="#33133F"/>
</g>
<path d="M54.654 88.5185C54.8053 88.4866 54.918 88.4159 54.9262 88.4101C54.9969 88.3648 55.0168 88.2709 54.9712 88.2007C54.9256 88.1311 54.8316 88.1119 54.7615 88.156C54.7591 88.1572 54.5371 88.2946 54.3835 88.1955C54.3134 88.1496 54.2187 88.1699 54.1726 88.239C54.1264 88.3086 54.1463 88.4025 54.2164 88.4483C54.3642 88.544 54.5237 88.5458 54.654 88.5185V88.5185ZM55.3428 85.6156C55.3579 85.6121 55.3725 85.6069 55.3866 85.5988C55.3942 85.5953 56.1011 85.1934 56.6748 85.1203C56.7577 85.1075 56.8167 85.0333 56.8056 84.9504C56.803 84.9307 56.7965 84.9117 56.7864 84.8945C56.7764 84.8773 56.7631 84.8622 56.7472 84.8502C56.7313 84.8381 56.7131 84.8292 56.6938 84.8241C56.6744 84.819 56.6543 84.8178 56.6344 84.8204C56.0023 84.9057 55.2662 85.3192 55.2353 85.3366C55.1622 85.3778 55.1371 85.47 55.1786 85.5431C55.1947 85.5709 55.2193 85.5928 55.2488 85.6059C55.2783 85.6189 55.3112 85.6223 55.3428 85.6156V85.6156ZM55.8516 86.4224C55.8796 86.5889 56.0257 86.7037 56.1788 86.6782C56.3318 86.6532 56.4329 86.4978 56.4048 86.3313C56.3768 86.1649 56.2302 86.05 56.0777 86.0756C55.9246 86.1005 55.8236 86.2559 55.8516 86.4224ZM53.2536 85.7664C53.3115 85.7542 53.3599 85.709 53.3716 85.6475C53.3792 85.6081 53.3707 85.5673 53.348 85.534C53.3254 85.5008 53.2904 85.4778 53.2507 85.47C53.2156 85.4637 52.3855 85.3071 51.7586 85.4312C51.6827 85.4352 51.6231 85.5269 51.6394 85.6092C51.6433 85.6287 51.651 85.6473 51.6622 85.6638C51.6733 85.6803 51.6876 85.6945 51.7043 85.7055C51.721 85.7165 51.7397 85.7241 51.7593 85.7279C51.779 85.7317 51.7992 85.7316 51.8188 85.7276C52.3855 85.615 53.1853 85.7658 53.1934 85.7676C53.2139 85.7711 53.2343 85.7711 53.2536 85.7664ZM53.0217 86.6956C53.0497 86.862 52.9481 87.0175 52.7956 87.043C52.6425 87.0679 52.4965 86.9531 52.4684 86.7872C52.4404 86.6208 52.542 86.4653 52.6945 86.4404C52.847 86.4143 52.9936 86.5291 53.0217 86.6956ZM55.2756 89.5985C55.3036 89.7649 55.202 89.9204 55.0489 89.9453C54.8964 89.9703 54.7498 89.8554 54.7217 89.6895C54.6937 89.5231 54.7953 89.3676 54.9478 89.3421C55.1009 89.3172 55.2475 89.432 55.2756 89.5985Z" fill="#1B2E36"/>
<path d="M50.6138 85.7971C50.0985 85.5308 49.9332 87.5701 49.9332 87.5701C49.9332 87.5701 49.6749 86.9199 49.5377 86.6607C49.4004 86.4014 49.2555 86.7036 48.822 85.7768C48.3879 84.8493 47.4614 84.7177 49.4798 82.8808C51.4977 81.0434 50.4338 80.6525 53.0219 80.8816C55.6099 81.1107 56.8245 80.562 57.0167 81.682C57.2095 82.8014 56.332 84.1667 55.423 83.9788C54.514 83.7908 55.569 83.7508 53.5074 84.354C51.4451 84.9566 51.4521 86.2292 50.6138 85.7971V85.7971Z" fill="#1B2E36"/>
<path d="M50.9131 123.203H91.8586V152.194H50.9131V123.203Z" fill="#AE3B2A"/>
<path d="M89.1311 126.946L91.8588 123.203V152.194L89.1311 155.938V126.946ZM48.1855 126.946L50.9132 123.203V152.194L48.1855 155.938V126.946Z" fill="#E36247"/>
<path d="M65.3482 130.278C65.3482 130.278 55.9652 126.217 57.7669 120.836C58.9856 117.198 61.4276 117.776 63.0278 120.294C63.0278 120.294 63.8246 115.688 67.879 117.624C71.9329 119.559 68.4387 128.089 65.3482 130.278V130.278Z" fill="#FFBF9F"/>
<path d="M64.5124 137.698C64.5124 137.698 55.1288 133.638 56.9311 128.257C58.1498 124.618 60.5918 125.197 62.1919 127.714C62.1919 127.714 62.9888 123.109 67.0432 125.045C71.0971 126.981 67.6035 135.51 64.5124 137.698V137.698Z" fill="#FA9C70"/>
<path d="M73.1726 129.953C73.1726 129.953 65.0877 126.455 66.6405 121.819C67.6903 118.684 69.7947 119.182 71.1734 121.351C71.1734 121.351 71.8598 117.383 75.3534 119.05C78.8464 120.718 75.836 128.068 73.1726 129.953Z" fill="#AE3B2A"/>
<path d="M71.3303 136.708C71.3303 136.708 64.4325 129.2 68.2889 125.017C70.8968 122.189 72.8884 123.706 73.3149 126.652C73.3149 126.652 75.935 122.77 78.8409 126.18C81.7474 129.59 75.0517 135.961 71.3303 136.708V136.708Z" fill="#FFBF9F"/>
<path d="M56.3036 129.527C56.3036 129.527 49.2072 124.79 51.5032 120.637C53.0554 117.828 54.9746 118.668 55.9087 120.975C55.9087 120.975 57.2606 117.31 60.2996 119.506C63.3375 121.701 59.175 128.19 56.3036 129.527V129.527Z" fill="#FA9C70"/>
<path d="M63.434 120.655L65.8193 123.698L69.6973 123.473L67.5188 126.666L68.9331 130.258L65.2012 129.187L62.1978 131.633L62.0698 127.779L58.7988 125.698L62.4513 124.386L63.434 120.655Z" fill="white"/>
<path d="M72.4115 121.912L74.1191 124.09L76.8947 123.929L75.3355 126.214L76.3479 128.785L73.6763 128.019L71.527 129.77L71.4353 127.011L69.0938 125.522L71.7087 124.583L72.4115 121.912Z" fill="#FA9C70"/>
<path d="M73.514 128.577C73.514 128.577 67.2407 120.547 71.4208 116.683C74.2478 114.07 76.1108 115.74 76.2995 118.71C76.2995 118.71 79.2229 115.048 81.846 118.677C84.4685 122.306 77.2827 128.128 73.514 128.577V128.577Z" fill="#FFBF9F"/>
<path d="M69.1956 134.691C69.1956 134.691 62.9224 126.661 67.1024 122.797C69.9294 120.184 71.7924 121.854 71.9811 124.825C71.9811 124.825 74.9045 121.163 77.5276 124.792C80.1507 128.42 72.965 134.242 69.1956 134.691V134.691Z" fill="#FA9C70"/>
<path d="M80.5362 132.016C80.5362 132.016 75.1311 125.097 78.7328 121.768C81.1684 119.516 82.7738 120.955 82.9362 123.515C82.9362 123.515 85.4553 120.36 87.715 123.487C89.9753 126.613 83.7839 131.629 80.5362 132.016Z" fill="#AE3B2A"/>
<path d="M75.6566 137.067C75.6566 137.067 73.2298 127.195 78.6343 125.36C82.2891 124.119 83.3039 126.399 82.2552 129.187C82.2552 129.187 86.4294 127.029 87.3326 131.404C88.2358 135.779 79.2828 138.184 75.6566 137.067V137.067Z" fill="#FFBF9F"/>
<path d="M76.4804 119.221L77.1037 123.027L80.616 124.675L77.1622 126.44L76.6685 130.265L73.9104 127.549L70.0938 128.266L71.8429 124.822L69.9775 121.44L73.8164 122.027L76.4804 119.221Z" fill="white"/>
<path d="M83.7521 124.598L84.1984 127.322L86.7123 128.502L84.2399 129.765L83.8864 132.503L81.9124 130.559L79.1806 131.072L80.4326 128.607L79.0977 126.187L81.8452 126.607L83.7521 124.598Z" fill="#FA9C70"/>
<path opacity="0.2" d="M53.3209 126.949L52.1992 125.635H64.4846L64.1119 126.207L88.2 125.637L87.8483 127.029L53.3209 126.949Z" fill="#21264C"/>
<path d="M48.1855 126.946H89.1311V155.937H48.1855V126.946Z" fill="#FA9C70"/>
<path d="M47.2071 94.3433C47.2071 94.3433 33.1451 103.454 34.7716 106.947C36.3974 110.44 40.918 110.95 40.918 110.95L47.2071 94.3433ZM57.1276 94.3433C57.1276 94.3433 71.1895 103.454 69.5631 106.947C67.9372 110.44 63.4166 110.95 63.4166 110.95L57.1276 94.3433Z" fill="#E36247"/>
<path d="M52.5927 107.964C52.5927 107.964 50.7402 107.821 50.3581 108.192C49.4718 109.052 49.2826 110.285 49.4356 110.644C50.3937 109.509 52.5927 107.964 52.5927 107.964Z" fill="#FF9C92"/>
<path opacity="0.2" d="M50.2455 108.982C50.2554 108.739 50.3068 108.496 50.2992 108.253C49.465 109.11 49.2862 110.293 49.4352 110.644C49.6858 110.347 50.0217 110.022 50.3804 109.704C50.2951 109.471 50.2355 109.233 50.2455 108.982Z" fill="white"/>
<path d="M77.0037 103.343H54.3287C52.2115 103.343 50.4951 105.047 50.4951 107.149C50.4951 109.251 52.2115 110.955 54.3287 110.955H77.0037C79.1208 110.955 80.8373 109.251 80.8373 107.149C80.8373 105.047 79.1208 103.343 77.0037 103.343Z" fill="#FA9C70"/>
<path d="M58.0314 108.998C57.2491 108.998 56.638 108.612 56.6123 107.882H57.5552C57.5809 108.159 57.7574 108.293 58.0056 108.293C58.2645 108.293 58.4304 108.164 58.4304 107.954C58.4304 107.285 56.6123 107.645 56.6228 106.364C56.6228 105.681 57.1872 105.3 57.949 105.3C58.7418 105.3 59.2751 105.691 59.3114 106.38H58.3533C58.3375 106.149 58.1721 106.009 57.9338 106.005C57.7211 106 57.5611 106.107 57.5611 106.334C57.5611 106.961 59.3587 106.678 59.3587 107.886C59.3575 108.494 58.8814 108.998 58.0314 108.998V108.998ZM60.2245 105.351H63.0375V106.056H62.0741V108.962H61.1884V106.056H60.2251V105.351H60.2245ZM65.7225 108.998C64.6919 108.998 63.8524 108.231 63.8524 107.146C63.8524 106.061 64.6914 105.3 65.7225 105.3C66.7583 105.3 67.582 106.061 67.582 107.146C67.582 108.231 66.7536 108.998 65.7225 108.998ZM65.7225 108.195C66.3026 108.195 66.6806 107.778 66.6806 107.146C66.6806 106.503 66.3026 106.096 65.7225 106.096C65.1318 106.096 64.7591 106.502 64.7591 107.146C64.7591 107.778 65.1324 108.195 65.7225 108.195ZM70.0819 105.351C70.9728 105.351 71.4185 105.86 71.4185 106.487C71.4185 106.94 71.1697 107.367 70.6106 107.531L71.4495 108.961H70.4499L69.6939 107.598H69.4813V108.961H68.5956V105.351H70.0819V105.351ZM70.0299 106.081H69.4807V106.976H70.0299C70.3611 106.976 70.5171 106.806 70.5171 106.524C70.5171 106.256 70.3617 106.081 70.0299 106.081ZM74.7199 106.056H73.378V106.786H74.5645V107.465H73.378V108.257H74.7199V108.962H72.4923V105.351H74.7199V106.056V106.056Z" fill="#FFBF9F"/>
<path d="M52.8264 113.365C53.1588 113.2 53.4825 113.016 53.7705 112.818L53.7717 112.819C53.7729 112.818 53.7729 112.818 53.7746 112.818C53.7892 112.809 53.8692 112.765 53.9849 112.7L53.9861 112.699C54.0778 112.646 54.1871 112.579 54.3027 112.503C54.3027 112.503 55.6558 111.736 55.5973 111.274C55.5389 110.812 55.1901 110.756 55.1901 110.756C55.1901 110.756 55.4793 110.408 55.2538 110.027C55.0289 109.646 54.7053 109.687 54.7053 109.687C54.7053 109.687 54.9804 109.374 54.7263 108.94C54.4716 108.506 54.0106 108.519 54.0106 108.519C54.0106 108.519 54.3962 108.019 53.6881 107.686C52.9836 107.354 52.1073 108.089 52.0664 108.115C51.8905 108.222 51.7246 108.336 51.5692 108.451C51.5272 108.483 49.4602 110.453 49.4252 110.492C46.9148 113.294 27.7118 114.391 31.7148 121.498C35.1681 127.63 50.7572 113.781 50.7572 113.781C50.7572 113.781 51.5797 113.983 52.8264 113.365V113.365Z" fill="#FF9C92"/>
<path opacity="0.2" d="M53.7703 112.818L53.7714 112.819C53.7726 112.818 53.7726 112.818 53.7743 112.818C53.789 112.809 53.869 112.765 53.9847 112.7L53.9858 112.699C54.0776 112.646 54.1868 112.578 54.3025 112.502C54.3025 112.502 55.6555 111.736 55.5971 111.274C55.5387 110.812 55.1899 110.756 55.1899 110.756C55.1899 110.756 55.4791 110.408 55.2536 110.027C55.0286 109.646 54.705 109.687 54.705 109.687C54.705 109.687 54.9802 109.373 54.726 108.94C54.4713 108.506 54.0104 108.518 54.0104 108.518C54.0104 108.518 54.3959 108.019 53.6879 107.686C53.4343 107.566 53.1592 107.586 52.9085 107.659C53.1825 107.767 53.4513 107.963 53.5891 108.217C53.6248 108.283 53.6511 108.354 53.6604 108.429C53.6715 108.513 53.6581 108.599 53.661 108.684C53.6674 108.868 53.8211 108.973 53.9502 109.086C54.1167 109.231 54.2651 109.39 54.3311 109.605C54.3808 109.766 54.3802 109.935 54.3913 110.102C54.403 110.278 54.4409 110.448 54.5531 110.588C54.66 110.722 54.7646 110.845 54.8166 111.011C54.9065 111.299 54.7944 111.583 54.6115 111.808C54.4853 111.964 54.327 112.09 54.1734 112.218C53.973 112.384 53.7697 112.547 53.5664 112.71C53.2182 112.989 52.8758 113.269 52.4961 113.504C52.6042 113.465 52.714 113.42 52.8268 113.364C53.1586 113.2 53.4817 113.016 53.7703 112.818V112.818Z" fill="white"/>
<path d="M77.8075 113.143C76.191 112.236 75.4041 109.518 76.0327 108.997C76.3271 108.753 77.0229 109.563 77.6953 110.496C76.9154 109.325 76.2103 107.943 76.6414 107.837C76.9727 107.755 77.9454 109.133 78.6511 110.035C78.224 109.373 77.3174 107.856 77.5849 107.639C77.9255 107.361 78.98 108.666 79.5654 109.586C79.2546 109.015 78.7382 107.981 79.0098 107.821C79.2505 107.679 79.6291 107.83 80.3605 108.988C80.7876 109.665 80.9044 109.562 81.037 109.908C81.1398 110.174 81.276 110.439 81.2526 110.694C81.1393 111.923 78.4016 113.478 77.8075 113.143V113.143Z" fill="#FF9C92"/>
<path opacity="0.2" d="M79.1086 107.891C78.9953 107.986 79.1489 108.427 79.1951 108.453C79.1951 108.453 79.5269 108.266 79.5684 108.208C79.6105 108.151 79.2214 107.795 79.1086 107.891V107.891ZM77.6382 107.667C77.5248 107.762 77.6785 108.203 77.7252 108.229C77.7252 108.229 78.057 108.042 78.0985 107.984C78.14 107.926 77.7515 107.571 77.6382 107.667ZM76.6415 107.972C76.5282 108.068 76.6818 108.509 76.728 108.535C76.728 108.535 77.0598 108.348 77.1013 108.29C77.1439 108.232 76.7548 107.877 76.6415 107.972V107.972ZM76.0701 109.15C75.9568 109.245 76.1104 109.686 76.1566 109.712C76.1566 109.712 76.4884 109.524 76.5299 109.467C76.572 109.41 76.1829 109.054 76.0701 109.15V109.15Z" fill="white"/>
</svg>
