<svg width="220" height="173" viewBox="0 0 220 173" fill="none" xmlns="http://www.w3.org/2000/svg">
<path d="M66.3666 124.383C54.5752 104.319 47.907 81.5091 73.3292 66.5436C98.7515 51.5782 151.347 83.2513 163.138 103.315C174.929 123.379 141.452 124.236 116.029 139.201C90.6071 154.166 78.1579 144.446 66.3666 124.383Z" fill="#FFE3CB"/>
<path d="M64.4647 127.647C51.667 105.871 44.4293 81.114 72.0217 64.8712C99.6141 48.6284 154.336 81.6475 166.902 104.767" stroke="#FFE3CB" stroke-miterlimit="10"/>
<path d="M169.789 71.314V146.155H186.695V71.314C186.695 70.8655 186.332 70.5022 185.884 70.5022H170.6C170.152 70.5022 169.789 70.8655 169.789 71.314Z" fill="#935B50"/>
<path d="M184.951 95.2978H171.533C171.085 95.2978 170.722 94.9342 170.722 94.486V84.9298C170.722 84.4812 171.085 84.1179 171.533 84.1179H184.951C185.399 84.1179 185.762 84.4815 185.762 84.9298V94.486C185.762 94.9342 185.399 95.2978 184.951 95.2978Z" fill="#E19974"/>
<path d="M184.951 82.9001H171.533C171.085 82.9001 170.722 82.5365 170.722 82.0883V72.5321C170.722 72.0835 171.085 71.7202 171.533 71.7202H184.951C185.399 71.7202 185.762 72.0838 185.762 72.5321V82.0883C185.762 82.5365 185.399 82.9001 184.951 82.9001Z" fill="#E19974"/>
<path d="M184.807 81.4812C185.063 81.6743 185.009 82.0203 184.821 82.2047C184.638 82.3931 184.292 82.4478 184.099 82.1899C184.19 82.0574 184.237 81.9763 184.275 81.9074C184.313 81.8417 184.34 81.7961 184.377 81.7599C184.453 81.6825 184.552 81.6595 184.807 81.4812Z" fill="#D6694B"/>
<path d="M184.098 72.4301C184.291 72.1738 184.636 72.2276 184.821 72.4153C185.009 72.599 185.063 72.9457 184.806 73.1388C184.673 73.0473 184.592 73.0001 184.524 72.9623C184.458 72.9246 184.412 72.8972 184.376 72.8601C184.299 72.784 184.276 72.6852 184.098 72.4301Z" fill="#D6694B"/>
<path d="M171.677 73.1391C171.421 72.946 171.475 72.6 171.662 72.4157C171.846 72.2273 172.192 72.1725 172.385 72.4305C172.294 72.5629 172.247 72.644 172.209 72.7129C172.171 72.7787 172.144 72.8243 172.107 72.8605C172.031 72.9375 171.932 72.9605 171.677 73.1391Z" fill="#D6694B"/>
<path d="M172.385 82.1899C172.192 82.4462 171.846 82.3924 171.662 82.2047C171.474 82.021 171.419 81.6743 171.677 81.4812C171.809 81.5727 171.89 81.6199 171.959 81.6577C172.025 81.6954 172.07 81.7228 172.107 81.7599C172.184 81.836 172.206 81.9348 172.385 82.1899Z" fill="#D6694B"/>
<path d="M184.807 93.8789C185.063 94.072 185.009 94.418 184.821 94.6024C184.638 94.7908 184.292 94.8455 184.099 94.5876C184.19 94.4552 184.237 94.374 184.275 94.3051C184.313 94.2394 184.34 94.1938 184.377 94.1576C184.453 94.0802 184.552 94.0573 184.807 93.8789Z" fill="#D6694B"/>
<path d="M184.098 84.8278C184.291 84.5715 184.636 84.6253 184.821 84.813C185.009 84.9967 185.063 85.3434 184.806 85.5365C184.673 85.445 184.592 85.3978 184.524 85.36C184.458 85.3223 184.412 85.2949 184.376 85.2578C184.299 85.1817 184.276 85.0829 184.098 84.8278Z" fill="#D6694B"/>
<path d="M171.677 85.5368C171.421 85.3437 171.475 84.9977 171.662 84.8134C171.846 84.625 172.192 84.5703 172.385 84.8282C172.294 84.9606 172.247 85.0418 172.209 85.1106C172.171 85.1764 172.144 85.222 172.107 85.2582C172.031 85.3352 171.932 85.3582 171.677 85.5368Z" fill="#D6694B"/>
<path d="M172.385 94.5876C172.192 94.8439 171.846 94.7901 171.662 94.6024C171.474 94.4187 171.419 94.072 171.677 93.8789C171.809 93.9704 171.89 94.0176 171.959 94.0554C172.025 94.0931 172.07 94.1205 172.107 94.1576C172.184 94.2337 172.206 94.3325 172.385 94.5876Z" fill="#D6694B"/>
<path d="M184.951 107.695H171.533C171.085 107.695 170.722 107.332 170.722 106.883V97.3272C170.722 96.8787 171.085 96.5154 171.533 96.5154H184.951C185.399 96.5154 185.762 96.879 185.762 97.3272V106.883C185.762 107.332 185.399 107.695 184.951 107.695Z" fill="#E19974"/>
<path d="M184.951 120.093H171.533C171.085 120.093 170.722 119.73 170.722 119.281V109.725C170.722 109.277 171.085 108.913 171.533 108.913H184.951C185.399 108.913 185.762 109.277 185.762 109.725V119.281C185.762 119.73 185.399 120.093 184.951 120.093Z" fill="#E19974"/>
<path d="M184.951 132.491H171.533C171.085 132.491 170.722 132.127 170.722 131.679V122.123C170.722 121.674 171.085 121.311 171.533 121.311H184.951C185.399 121.311 185.762 121.675 185.762 122.123V131.679C185.762 132.128 185.399 132.491 184.951 132.491Z" fill="#E19974"/>
<path d="M184.951 144.889H171.533C171.085 144.889 170.722 144.525 170.722 144.077V134.521C170.722 134.072 171.085 133.709 171.533 133.709H184.951C185.399 133.709 185.762 134.072 185.762 134.521V144.077C185.762 144.525 185.399 144.889 184.951 144.889Z" fill="#E19974"/>
<path d="M180.239 77.4928H176.244C176.07 77.4928 175.93 77.3518 175.93 77.1782V76.1021C175.93 75.9285 176.07 75.7876 176.244 75.7876H180.239C180.413 75.7876 180.554 75.9285 180.554 76.1021V77.1782C180.554 77.3518 180.413 77.4928 180.239 77.4928Z" fill="#D6694B"/>
<path d="M180.239 102.288H176.244C176.07 102.288 175.93 102.147 175.93 101.974V100.898C175.93 100.724 176.07 100.583 176.244 100.583H180.239C180.413 100.583 180.554 100.724 180.554 100.898V101.974C180.554 102.147 180.413 102.288 180.239 102.288Z" fill="#D6694B"/>
<path d="M180.239 114.686H176.244C176.07 114.686 175.93 114.545 175.93 114.372V113.296C175.93 113.122 176.07 112.981 176.244 112.981H180.239C180.413 112.981 180.554 113.122 180.554 113.296V114.372C180.554 114.545 180.413 114.686 180.239 114.686Z" fill="#D6694B"/>
<path d="M180.239 139.481H176.244C176.07 139.481 175.93 139.34 175.93 139.167V138.091C175.93 137.917 176.07 137.776 176.244 137.776H180.239C180.413 137.776 180.554 137.917 180.554 138.091V139.167C180.554 139.341 180.413 139.481 180.239 139.481Z" fill="#D6694B"/>
<path d="M180.239 127.084H176.244C176.07 127.084 175.93 126.943 175.93 126.769V125.693C175.93 125.519 176.07 125.378 176.244 125.378H180.239C180.413 125.378 180.554 125.519 180.554 125.693V126.769C180.554 126.943 180.413 127.084 180.239 127.084Z" fill="#D6694B"/>
<path d="M180.239 89.8905H176.244C176.07 89.8905 175.93 89.7495 175.93 89.5759V88.4998C175.93 88.3262 176.07 88.1853 176.244 88.1853H180.239C180.413 88.1853 180.554 88.3262 180.554 88.4998V89.5759C180.554 89.7495 180.413 89.8905 180.239 89.8905Z" fill="#D6694B"/>
<path d="M184.807 106.276C185.063 106.469 185.009 106.816 184.821 107C184.638 107.188 184.292 107.243 184.099 106.985C184.19 106.853 184.237 106.771 184.275 106.703C184.313 106.637 184.34 106.591 184.377 106.555C184.453 106.478 184.552 106.455 184.807 106.276Z" fill="#D6694B"/>
<path d="M184.098 97.2255C184.291 96.9692 184.636 97.023 184.821 97.2107C185.009 97.3944 185.063 97.7411 184.806 97.9342C184.673 97.8427 184.592 97.7955 184.524 97.7577C184.458 97.72 184.412 97.6926 184.376 97.6555C184.299 97.5794 184.276 97.4806 184.098 97.2255Z" fill="#D6694B"/>
<path d="M171.677 97.9343C171.421 97.7412 171.475 97.3952 171.662 97.2109C171.846 97.0224 172.192 96.9677 172.385 97.2256C172.294 97.3581 172.247 97.4392 172.209 97.5081C172.171 97.5738 172.144 97.6195 172.107 97.6556C172.031 97.733 171.932 97.756 171.677 97.9343Z" fill="#D6694B"/>
<path d="M172.385 106.985C172.192 107.242 171.846 107.188 171.662 107C171.474 106.816 171.419 106.47 171.677 106.277C171.809 106.368 171.89 106.415 171.959 106.453C172.025 106.491 172.07 106.518 172.107 106.555C172.184 106.631 172.206 106.73 172.385 106.985Z" fill="#D6694B"/>
<path d="M184.807 118.674C185.063 118.867 185.009 119.213 184.821 119.398C184.638 119.586 184.292 119.641 184.099 119.383C184.19 119.251 184.237 119.169 184.275 119.101C184.313 119.035 184.34 118.989 184.377 118.953C184.453 118.876 184.552 118.853 184.807 118.674Z" fill="#D6694B"/>
<path d="M184.098 109.623C184.291 109.367 184.636 109.421 184.821 109.609C185.009 109.792 185.063 110.139 184.806 110.332C184.673 110.241 184.592 110.193 184.524 110.156C184.458 110.118 184.412 110.091 184.376 110.053C184.299 109.977 184.276 109.879 184.098 109.623Z" fill="#D6694B"/>
<path d="M171.677 110.332C171.421 110.139 171.475 109.793 171.662 109.609C171.846 109.42 172.192 109.366 172.385 109.624C172.294 109.756 172.247 109.837 172.209 109.906C172.171 109.972 172.144 110.017 172.107 110.054C172.031 110.131 171.932 110.154 171.677 110.332Z" fill="#D6694B"/>
<path d="M172.385 119.383C172.192 119.64 171.846 119.586 171.662 119.398C171.474 119.214 171.419 118.868 171.677 118.675C171.809 118.766 171.89 118.813 171.959 118.851C172.025 118.889 172.07 118.916 172.107 118.953C172.184 119.029 172.206 119.128 172.385 119.383Z" fill="#D6694B"/>
<path d="M184.807 143.47C185.063 143.663 185.009 144.009 184.821 144.193C184.638 144.382 184.292 144.436 184.099 144.178C184.19 144.046 184.237 143.965 184.275 143.896C184.313 143.83 184.34 143.785 184.377 143.748C184.453 143.671 184.552 143.648 184.807 143.47Z" fill="#D6694B"/>
<path d="M184.098 134.419C184.291 134.163 184.636 134.216 184.821 134.404C185.009 134.588 185.063 134.934 184.806 135.128C184.673 135.036 184.592 134.989 184.524 134.951C184.458 134.913 184.412 134.886 184.376 134.849C184.299 134.772 184.276 134.674 184.098 134.419Z" fill="#D6694B"/>
<path d="M171.677 135.128C171.421 134.935 171.475 134.589 171.662 134.404C171.846 134.216 172.192 134.161 172.385 134.419C172.294 134.551 172.247 134.633 172.209 134.701C172.171 134.767 172.144 134.813 172.107 134.849C172.031 134.926 171.932 134.949 171.677 135.128Z" fill="#D6694B"/>
<path d="M172.385 144.178C172.192 144.435 171.846 144.381 171.662 144.193C171.474 144.009 171.419 143.663 171.677 143.47C171.809 143.561 171.89 143.608 171.959 143.646C172.025 143.684 172.07 143.711 172.107 143.748C172.184 143.825 172.206 143.923 172.385 144.178Z" fill="#D6694B"/>
<path d="M184.807 131.072C185.063 131.265 185.009 131.611 184.821 131.795C184.638 131.984 184.292 132.039 184.099 131.781C184.19 131.648 184.237 131.567 184.275 131.498C184.313 131.432 184.34 131.387 184.377 131.351C184.453 131.274 184.552 131.251 184.807 131.072Z" fill="#D6694B"/>
<path d="M184.098 122.021C184.291 121.765 184.636 121.819 184.821 122.006C185.009 122.19 185.063 122.537 184.806 122.73C184.673 122.638 184.592 122.591 184.524 122.553C184.458 122.516 184.412 122.488 184.376 122.451C184.299 122.375 184.276 122.276 184.098 122.021Z" fill="#D6694B"/>
<path d="M171.677 122.73C171.421 122.537 171.475 122.191 171.662 122.007C171.846 121.818 172.192 121.763 172.385 122.021C172.294 122.154 172.247 122.235 172.209 122.304C172.171 122.369 172.144 122.415 172.107 122.451C172.031 122.529 171.932 122.551 171.677 122.73Z" fill="#D6694B"/>
<path d="M172.385 131.781C172.192 132.037 171.846 131.983 171.662 131.795C171.474 131.612 171.419 131.265 171.677 131.072C171.809 131.164 171.89 131.211 171.959 131.248C172.025 131.286 172.07 131.314 172.107 131.351C172.184 131.427 172.206 131.526 172.385 131.781Z" fill="#D6694B"/>
<path d="M180.876 70.4928H175.796C172.859 70.4928 170.479 68.1102 170.479 65.1707V61.6604H186.194V65.1707C186.194 68.1102 183.813 70.4928 180.876 70.4928Z" fill="#D6694B"/>
<path d="M176.394 60.086C176.092 59.6044 175.951 59.2248 175.85 58.8709C175.757 58.5218 175.725 58.2104 175.747 57.9285C175.764 57.6445 175.882 57.413 176.088 57.2177C176.292 57.0227 176.532 56.8371 176.689 56.6188L177.661 55.3087C177.986 54.8611 178.288 54.4126 178.498 53.8712L178.505 53.8524C178.543 53.7558 178.651 53.708 178.748 53.7454C178.788 53.7611 178.82 53.7891 178.84 53.8237C179.19 54.4056 179.279 55.0854 179.338 55.7245C179.387 56.3712 179.358 57.0116 179.267 57.6206C179.223 57.9273 179.245 58.2607 179.227 58.5819C179.21 58.9027 179.095 59.1826 178.872 59.4075C178.653 59.6334 178.374 59.8275 178.027 59.9797C177.669 60.126 177.271 60.2458 176.695 60.2559C176.571 60.2581 176.462 60.1939 176.4 60.0964L176.394 60.086Z" fill="#8B9D36"/>
<path d="M173.574 53.8425L174.66 56.445C174.745 56.6514 174.885 56.8404 175.005 57.0232C175.061 57.1185 175.113 57.2062 175.143 57.3022C175.174 57.3975 175.184 57.501 175.19 57.5975C175.191 57.6963 175.183 57.8076 175.171 57.9114C175.16 58.014 175.142 58.1238 175.111 58.2467C175.09 58.3531 175.05 58.4808 175.016 58.6207C174.975 58.7557 174.949 58.8947 174.9 59.0982L174.894 59.1215C174.877 59.1948 174.815 59.2461 174.745 59.2542C174.549 59.2772 174.368 59.2417 174.188 59.1913C174.034 59.1319 173.874 59.0602 173.733 58.9671C173.606 58.879 173.49 58.7774 173.381 58.6689C173.274 58.56 173.197 58.4487 173.115 58.3307C172.96 58.0948 172.893 57.8369 172.897 57.5698C172.899 57.3025 172.938 57.0376 172.933 56.7873C172.934 56.5353 172.941 56.2865 172.954 56.0399C172.976 55.7917 173.005 55.5457 173.036 55.3017C173.115 54.8119 173.204 54.3307 173.354 53.8516C173.374 53.79 173.439 53.7557 173.501 53.7749C173.535 53.7856 173.561 53.812 173.574 53.8425Z" fill="#5E7C24"/>
<path d="M166.278 55.733C166.939 55.9098 167.58 56.1209 168.222 56.3266L169.176 56.6512L170.114 56.9994C170.426 57.1173 170.757 57.1972 171.081 57.2881C171.403 57.3803 171.694 57.5319 171.952 57.7401C172.47 58.1664 172.909 58.6876 173.26 59.4632L173.276 59.4978C173.306 59.5648 173.277 59.6438 173.21 59.6743C173.208 59.6749 173.206 59.6759 173.205 59.6762C172.75 59.8618 172.358 59.8709 171.979 59.8662C171.607 59.8507 171.256 59.7894 170.929 59.6894C170.598 59.5916 170.308 59.4267 170.046 59.2062C169.788 58.9813 169.537 58.7454 169.268 58.5435L168.466 57.9311L167.685 57.2866C167.172 56.8443 166.659 56.4036 166.169 55.9236C166.124 55.8796 166.123 55.8076 166.167 55.7626C166.197 55.733 166.24 55.723 166.278 55.733Z" fill="#50661A"/>
<path d="M165.145 61.0785C165.727 60.8838 166.311 60.7319 166.895 60.5765L167.77 60.3639L168.648 60.1843C168.94 60.1302 169.231 60.0248 169.523 59.9443C169.814 59.8631 170.108 59.8471 170.404 59.9024C170.701 59.9565 170.999 60.0515 171.298 60.194C171.598 60.3441 171.899 60.524 172.204 60.8307C172.264 60.8911 172.266 60.9873 172.211 61.0508C171.928 61.3783 171.641 61.5787 171.352 61.7495C171.064 61.9127 170.773 62.0285 170.482 62.103C170.19 62.1791 169.895 62.1835 169.599 62.1228C169.302 62.0627 169.005 61.9781 168.709 61.9448L167.821 61.8271L166.933 61.6765C166.34 61.5623 165.747 61.4516 165.152 61.2984C165.091 61.2827 165.054 61.2201 165.07 61.1587C165.081 61.12 165.11 61.0908 165.145 61.0785Z" fill="#5E7C24"/>
<path d="M169.402 62.7542C169.803 62.8703 170.088 63.0411 170.345 63.2251C170.596 63.4122 170.803 63.6198 170.971 63.845C171.141 64.0693 171.244 64.3241 171.287 64.604C171.329 64.8843 171.349 65.1734 171.413 65.4442L171.587 66.2633L171.716 67.1015C171.749 67.3837 171.782 67.6677 171.798 67.9565C171.81 68.2471 171.828 68.5349 171.764 68.851C171.752 68.9105 171.694 68.9492 171.634 68.9372C171.6 68.9303 171.572 68.9083 171.558 68.8793L171.543 68.8513C171.313 68.3931 170.988 67.9367 170.685 67.4859L170.228 66.8065L169.788 66.1202C169.646 65.8896 169.453 65.6798 169.284 65.4612C169.113 65.2429 169.002 64.9994 168.955 64.727C168.907 64.4553 168.894 64.1671 168.925 63.8589C168.962 63.5475 169.025 63.2238 169.201 62.8464C169.237 62.7693 169.323 62.7319 169.402 62.7542Z" fill="#8B9D36"/>
<path d="M160.446 64.9108C160.836 64.4481 161.308 64.0886 161.806 63.7539C162.057 63.5928 162.317 63.4419 162.584 63.3031C162.853 63.1691 163.13 63.0556 163.409 62.9386C163.692 62.8417 163.968 62.6819 164.257 62.5765C164.401 62.5231 164.548 62.4787 164.698 62.4592C164.848 62.4435 165 62.4469 165.153 62.4652C165.761 62.5555 166.372 62.7961 166.907 63.4189C166.961 63.4812 166.958 63.573 166.904 63.6325L166.898 63.6391C166.61 63.9539 166.344 64.1335 166.085 64.2987C165.827 64.466 165.575 64.5664 165.328 64.6601C165.08 64.7447 164.832 64.7645 164.571 64.734C164.31 64.6931 164.044 64.6579 163.781 64.6607C163.521 64.672 163.257 64.6802 162.995 64.7088C162.729 64.7214 162.462 64.7466 162.196 64.784C161.659 64.8447 161.114 64.9463 160.574 65.091L160.563 65.0938C160.503 65.1102 160.44 65.074 160.424 65.0136C160.414 64.9765 160.424 64.9381 160.446 64.9108Z" fill="#8B9D36"/>
<path d="M166.44 64.182C166.86 64.1694 167.191 64.2688 167.49 64.3987C167.786 64.533 168.039 64.7123 168.254 64.9218C168.468 65.1329 168.619 65.3908 168.697 65.6846C168.779 65.9765 168.823 66.2816 168.901 66.5656L169.004 66.9962L169.082 67.4322C169.116 67.7269 169.141 68.0207 169.143 68.3139C169.149 68.9002 169.056 69.4846 168.888 70.0228C168.869 70.0832 168.805 70.1168 168.745 70.098C168.709 70.0866 168.682 70.0596 168.671 70.0266L168.668 70.0181C168.487 69.4925 168.32 69.0077 168.07 68.5573C167.959 68.3308 167.829 68.1129 167.696 67.9024L167.504 67.5866L167.293 67.2825C167.156 67.0799 166.964 66.9066 166.787 66.7333C166.613 66.5584 166.485 66.3621 166.411 66.1249C166.266 65.644 166.178 65.1228 166.281 64.3342L166.282 64.3232C166.294 64.2436 166.361 64.1845 166.44 64.182Z" fill="#50661A"/>
<path d="M160.016 69.4853C160.449 69.1138 160.894 68.775 161.333 68.4303L161.995 67.9279L162.661 67.4489C162.884 67.2932 163.082 67.09 163.286 66.9076C163.49 66.7248 163.72 66.5993 163.98 66.5333C164.241 66.4669 164.513 66.4313 164.814 66.4317C164.961 66.4291 165.12 66.4455 165.285 66.4603C165.454 66.4858 165.619 66.5024 165.83 66.5575L165.839 66.5597C165.918 66.5804 165.968 66.6537 165.964 66.7324C165.951 66.944 165.897 67.123 165.839 67.3001C165.773 67.4602 165.703 67.6238 165.616 67.765C165.447 68.0421 165.247 68.2796 165.027 68.4702C164.806 68.6649 164.552 68.7898 164.269 68.8537C163.986 68.9178 163.694 68.9559 163.425 69.0364L162.611 69.2569L161.784 69.4352C161.227 69.5372 160.673 69.6369 160.1 69.6891C160.037 69.6947 159.981 69.6482 159.975 69.5847C159.972 69.5457 159.989 69.5089 160.016 69.4853Z" fill="#50661A"/>
<path d="M159.676 73.1479C160.109 72.7764 160.555 72.4376 160.993 72.0929L161.655 71.5905L162.321 71.1115C162.544 70.9558 162.742 70.7526 162.946 70.5702C163.15 70.3874 163.381 70.2619 163.64 70.1958C163.901 70.1295 164.173 70.0939 164.475 70.0943C164.621 70.0917 164.78 70.1081 164.945 70.1229C165.114 70.1484 165.279 70.165 165.49 70.2201L165.499 70.2223C165.578 70.243 165.629 70.3163 165.624 70.395C165.611 70.6066 165.557 70.7856 165.499 70.9627C165.433 71.1228 165.363 71.2864 165.277 71.4276C165.108 71.7047 164.907 71.9422 164.687 72.1328C164.466 72.3275 164.212 72.4524 163.929 72.5163C163.646 72.5804 163.354 72.6185 163.085 72.699L162.271 72.9195L161.444 73.0978C160.887 73.1998 160.333 73.2995 159.761 73.3517C159.697 73.3573 159.641 73.3108 159.635 73.2473C159.632 73.2083 159.649 73.1711 159.676 73.1479Z" fill="#8B9D36"/>
<path d="M165.915 69.0622L166.049 69.0443L166.164 69.0439C166.241 69.0452 166.318 69.0487 166.395 69.054C166.534 69.076 166.664 69.1087 166.778 69.1581C167.012 69.25 167.196 69.3896 167.333 69.5519C167.475 69.7136 167.539 69.9133 167.529 70.1266C167.522 70.3399 167.473 70.5531 167.469 70.7497C167.453 71.1451 167.377 71.5317 167.248 71.8918C167.118 72.2523 166.947 72.5876 166.728 72.8889C166.688 72.944 166.611 72.9559 166.556 72.916C166.536 72.9009 166.521 72.8808 166.513 72.8588L166.511 72.8528C166.385 72.5068 166.287 72.1903 166.148 71.8959C166.088 71.7487 166.021 71.6081 165.946 71.4744C165.885 71.3389 165.807 71.2118 165.742 71.0875C165.67 70.9642 165.55 70.8582 165.445 70.7592C165.34 70.6595 165.296 70.5497 165.307 70.4113C165.322 70.2704 165.356 70.1184 165.433 69.9244C165.463 69.8331 165.512 69.7234 165.559 69.6108C165.631 69.4786 165.664 69.3689 165.749 69.2069L165.774 69.1606C165.803 69.105 165.857 69.0701 165.915 69.0622Z" fill="#5E7C24"/>
<path d="M164.958 72.3425C165.354 72.5447 165.599 72.8272 165.802 73.1238C165.993 73.4226 166.128 73.7454 166.193 74.0728C166.267 74.4012 166.246 74.7352 166.147 75.0539C166.052 75.3741 165.906 75.6767 165.81 75.9818C165.59 76.586 165.326 77.1632 164.975 77.6819C164.812 77.9468 164.61 78.1874 164.425 78.4296C164.23 78.6661 164.01 78.8838 163.8 79.0983C163.757 79.143 163.685 79.1436 163.64 79.0999C163.612 79.0719 163.601 79.0329 163.609 78.9967L163.611 78.986C163.673 78.6903 163.747 78.4085 163.806 78.1257C163.851 77.8373 163.926 77.5671 163.949 77.2827L164.008 76.8701L164.038 76.4577C164.075 76.1903 164.07 75.9179 164.08 75.6543C164.08 75.3886 164.029 75.1206 163.977 74.8629C163.96 74.7343 163.94 74.6088 163.944 74.4839C163.95 74.359 163.966 74.2357 163.994 74.1106C164.058 73.8592 164.141 73.6048 164.262 73.3295C164.384 73.0537 164.527 72.7646 164.751 72.4139L164.763 72.3953C164.805 72.3296 164.89 72.3079 164.958 72.3425Z" fill="#8B9D36"/>
<path d="M175.979 59.5834C176.264 59.8643 176.421 60.131 176.547 60.3946C176.666 60.6572 176.737 60.9145 176.767 61.1665C176.797 61.4188 176.756 61.6616 176.65 61.8944C176.544 62.1271 176.412 62.3555 176.33 62.5917L176.061 63.2963L175.745 63.9927C175.508 64.4494 175.291 64.9197 174.919 65.3361C174.878 65.382 174.807 65.3861 174.761 65.3449C174.736 65.322 174.723 65.2899 174.724 65.2581L174.725 65.2326C174.742 64.7586 174.7 64.2645 174.667 63.7757L174.62 63.0421L174.592 62.3118C174.587 62.0689 174.53 61.8182 174.496 61.5713C174.461 61.3244 174.49 61.0872 174.588 60.8592C174.685 60.6311 174.822 60.4078 175.006 60.1895C175.196 59.9722 175.416 59.7583 175.76 59.5576C175.832 59.5142 175.922 59.528 175.979 59.5834Z" fill="#50661A"/>
<path d="M178.553 60.6562L178.681 60.6889L178.788 60.7282L178.997 60.8093C179.118 60.8691 179.232 60.932 179.323 61.0019C179.519 61.1374 179.654 61.2919 179.755 61.4551C179.854 61.6193 179.883 61.7995 179.841 61.9917C179.803 62.182 179.732 62.378 179.713 62.5629C179.674 62.9363 179.58 63.3182 179.45 63.6925C179.31 64.0561 179.13 64.4641 178.786 64.7182C178.734 64.7566 178.661 64.7456 178.623 64.6937C178.608 64.6739 178.601 64.6512 178.6 64.6286L178.599 64.6034C178.585 64.2624 178.477 63.9734 178.35 63.6679C178.29 63.517 178.231 63.371 178.157 63.2216L177.966 62.7781C177.902 62.629 177.789 62.4897 177.692 62.3478C177.598 62.2066 177.562 62.0553 177.597 61.8882C177.631 61.7209 177.695 61.5451 177.815 61.3519C177.868 61.2573 177.943 61.156 178.023 61.0522L178.171 60.888L178.245 60.8049L178.341 60.7156L178.347 60.7096C178.404 60.6559 178.483 60.6389 178.553 60.6562Z" fill="#8B9D36"/>
<path d="M179.042 60.5844C179 60.1685 179.048 59.8398 179.118 59.5319C179.194 59.229 179.303 58.9588 179.442 58.7163C179.58 58.4731 179.77 58.2787 180.006 58.1284C180.243 57.9777 180.497 57.8434 180.714 57.6742L181.374 57.1759L182.056 56.6966L183.448 55.7611L183.45 55.7592C183.503 55.724 183.574 55.7378 183.61 55.7904C183.631 55.8224 183.634 55.8624 183.621 55.8961C183.41 56.4383 183.138 56.935 182.872 57.4342L182.453 58.1652L182.005 58.8707C181.851 59.1013 181.734 59.3671 181.599 59.6152C181.464 59.8644 181.281 60.0679 181.046 60.2229C180.812 60.3786 180.548 60.5057 180.249 60.5998C179.945 60.6885 179.619 60.7564 179.201 60.7363C179.117 60.7319 179.05 60.6658 179.042 60.5844Z" fill="#50661A"/>
<path d="M182 61.5764C182.029 61.1401 182.14 60.8001 182.271 60.4824C182.407 60.1707 182.574 59.8951 182.766 59.6507C182.959 59.4054 183.196 59.2151 183.476 59.0751C183.755 58.9348 184.049 58.8137 184.311 58.653L185.106 58.1849L185.921 57.7433C186.473 57.4599 187.022 57.1743 187.596 56.9227C187.654 56.8975 187.721 56.9236 187.746 56.9815C187.762 57.0186 187.757 57.0598 187.736 57.0913L187.733 57.0953C187.375 57.6191 186.992 58.1088 186.611 58.6004L186.028 59.3217L185.425 60.0165C185.221 60.2436 185.049 60.51 184.862 60.7573C184.675 61.0048 184.447 61.2024 184.173 61.3445C183.9 61.488 183.6 61.5999 183.27 61.6758C182.934 61.7459 182.58 61.7934 182.142 61.7446C182.057 61.7358 181.996 61.6603 182 61.5764Z" fill="#5E7C24"/>
<path d="M182.071 64.6548C182.151 65.0426 182.137 65.3468 182.1 65.6308C182.057 65.9101 181.979 66.1577 181.87 66.3782C181.762 66.5996 181.601 66.7736 181.39 66.9044C181.18 67.0356 180.952 67.1507 180.762 67.2995L180.18 67.7348L179.572 68.1481C179.157 68.4145 178.744 68.6832 178.3 68.9238C178.243 68.9546 178.172 68.9335 178.141 68.8763C178.124 68.8448 178.123 68.8087 178.135 68.7778C178.319 68.307 178.535 67.8641 178.748 67.419L179.083 66.7651L179.444 66.1328C179.568 65.9258 179.654 65.6852 179.759 65.4606C179.863 65.2357 180.015 65.0539 180.222 64.9196C180.427 64.7844 180.663 64.6765 180.935 64.5997C181.212 64.528 181.512 64.4764 181.906 64.5085C181.989 64.5157 182.055 64.5771 182.071 64.6548Z" fill="#5E7C24"/>
<path d="M181.633 67.4789L181.77 67.4952L181.887 67.5229L182.118 67.5833C182.253 67.6339 182.385 67.6902 182.491 67.7585C182.72 67.889 182.891 68.0517 183.024 68.2328C183.16 68.4128 183.22 68.6251 183.213 68.8537C183.206 69.0821 183.166 69.3161 183.169 69.5366C183.174 69.9801 183.114 70.4309 182.996 70.8672C182.864 71.3022 182.678 71.7237 182.392 72.0568C182.349 72.1065 182.274 72.1121 182.224 72.0693C182.201 72.0495 182.188 72.0234 182.184 71.9957L182.183 71.9876C182.127 71.5774 182.031 71.2216 181.896 70.881C181.829 70.7096 181.762 70.5457 181.678 70.3834C181.609 70.222 181.524 70.0607 181.448 69.9037C181.368 69.7449 181.235 69.6021 181.12 69.458C181.003 69.3142 180.948 69.1557 180.951 68.9711C180.957 68.7858 180.986 68.587 181.065 68.3599C181.098 68.2486 181.149 68.1284 181.205 68.0013L181.313 67.7981L181.366 67.695L181.438 67.5811L181.447 67.5682C181.487 67.5028 181.561 67.4704 181.633 67.4789Z" fill="#50661A"/>
<path d="M182.065 61.9501L182.195 61.9139L182.309 61.8934L182.537 61.8513C182.675 61.8371 182.808 61.8252 182.924 61.8312C183.169 61.8299 183.371 61.8686 183.552 61.9306C183.734 61.99 183.868 62.1055 183.968 62.2665C184.067 62.431 184.157 62.6062 184.279 62.7443C184.4 62.8764 184.521 63.0164 184.644 63.1453C184.763 63.2888 184.886 63.4133 185.015 63.5413C185.274 63.8002 185.528 64.0311 185.888 64.1509L185.91 64.1582C185.97 64.1783 186.003 64.2437 185.983 64.3041C185.974 64.3309 185.956 64.3526 185.934 64.3661C185.525 64.6171 185.007 64.5989 184.571 64.5482C184.126 64.4828 183.695 64.3689 183.299 64.2072C183.104 64.1251 182.875 64.0849 182.668 64.0154C182.457 63.949 182.29 63.8235 182.17 63.6439C182.052 63.463 181.959 63.2548 181.912 63.0019C181.884 62.8799 181.872 62.7424 181.866 62.599L181.879 62.3627L181.888 62.2442L181.913 62.1095C181.927 62.0315 181.984 61.9727 182.056 61.9526L182.065 61.9501Z" fill="#8B9D36"/>
<path d="M179.876 70.021C179.969 69.5319 180.176 68.8591 180.706 68.2848C181.064 67.8975 181.263 67.8843 181.536 67.5298C181.766 67.2307 181.957 66.8058 181.988 65.3406C182.018 63.9459 181.875 62.8909 181.838 62.6229C181.759 62.0652 182.142 62.1429 182.061 61.5258C182.035 61.3251 181.894 61.1534 181.701 61.0914C180.628 60.7473 179.748 60.6658 179.122 60.6599C178.253 60.6517 178.1 60.7904 177.538 60.6599C176.264 60.3642 176.222 59.4596 175.124 59.2255C174.241 59.0371 173.253 59.407 172.694 59.9874C172.177 60.5252 172.405 60.8517 171.881 61.4903C171.384 62.0951 170.759 62.3147 169.618 62.6981C167.798 63.3102 167.493 62.9897 166.903 63.5285C166.139 64.2259 165.988 65.367 165.922 65.8687C165.853 66.3902 165.909 66.612 165.922 67.3031C165.922 67.3031 165.949 68.6493 165.696 70.1717C165.377 72.0917 163.937 73.8057 162.98 74.7767" stroke="#7E883B" stroke-miterlimit="10"/>
<path d="M163.504 74.3825L163.549 74.5055L163.578 74.6137L163.633 74.8285C163.656 74.9588 163.673 75.0846 163.673 75.1947C163.683 75.4249 163.649 75.6152 163.589 75.7832C163.529 75.9512 163.415 76.0713 163.252 76.1481C163.09 76.2254 162.909 76.2868 162.767 76.3818C162.623 76.4752 162.476 76.567 162.327 76.6554L161.862 76.9074C161.542 77.0662 161.225 77.2273 160.875 77.3603C160.811 77.3848 160.739 77.3525 160.715 77.2883C160.706 77.2638 160.705 77.2383 160.711 77.2147C160.799 76.8514 160.92 76.5164 161.038 76.1789L161.231 75.6863C161.3 75.5265 161.373 75.3705 161.448 75.2157C161.524 75.0629 161.563 74.8757 161.62 74.7049C161.676 74.5338 161.781 74.4058 161.94 74.3256C162.099 74.2454 162.283 74.1875 162.513 74.1696C162.622 74.1557 162.749 74.1573 162.881 74.1636L163.101 74.1925L163.212 74.2076L163.339 74.2375C163.417 74.2551 163.477 74.3124 163.504 74.3825Z" fill="#50661A"/>
<path d="M180.213 69.245C180.534 69.4589 180.724 69.6794 180.883 69.9014C181.035 70.1238 181.137 70.3484 181.196 70.5733C181.256 70.7985 181.242 71.024 181.162 71.2455C181.081 71.4672 180.973 71.6868 180.914 71.9082C180.847 72.13 180.778 72.3514 180.704 72.5725C180.618 72.7927 180.528 73.012 180.429 73.2299C180.32 73.4467 180.209 73.6637 180.065 73.8729C179.919 74.072 179.758 74.3098 179.458 74.406C179.402 74.424 179.343 74.3931 179.325 74.3375C179.316 74.3107 179.319 74.283 179.33 74.2595L179.353 74.2126C179.424 74.066 179.416 73.8603 179.409 73.6593C179.397 73.4561 179.377 73.2485 179.345 73.039C179.32 72.8305 179.287 72.62 179.25 72.4099C179.223 72.2004 179.192 71.9903 179.158 71.7802C179.129 71.5698 179.046 71.3568 178.986 71.1458C178.924 70.9347 178.926 70.7271 178.996 70.5192C179.066 70.3113 179.174 70.1027 179.328 69.892C179.49 69.6809 179.68 69.4683 179.993 69.2491L179.996 69.2469C180.063 69.2006 180.149 69.2025 180.213 69.245Z" fill="#8B9D36"/>
<path d="M85.4641 71.9945H43.1826V23.9612H85.4641V71.9945ZM44.6849 70.4909H83.9615V25.4647H44.6849V70.4909Z" fill="#D6694B"/>
<path d="M86.5415 74.2585H42.1059C41.8819 74.2585 41.7002 74.0767 41.7002 73.8524V72.4136C41.7002 72.1894 41.8819 72.0076 42.1059 72.0076H86.5415C86.7656 72.0076 86.9473 72.1894 86.9473 72.4136V73.8524C86.9473 74.0767 86.7656 74.2585 86.5415 74.2585Z" fill="#935B50"/>
<path d="M83.9621 39.9578H44.6855V41.7582H83.9621V39.9578Z" fill="#E19974"/>
<path d="M50.9355 60.8138L64.2921 47.9775" stroke="#E19974" stroke-miterlimit="10"/>
<path d="M50.9355 53.0984L62.1345 42.7222" stroke="#E19974" stroke-miterlimit="10"/>
<path d="M63.3915 25.2195C63.3915 25.2195 59.4671 42.9671 45.943 50.5857C45.943 50.5857 56.6146 65.5153 57.7922 74.3914H44.4404V25.2195H63.3915Z" fill="#FFBA55"/>
<path d="M45.9427 50.605C45.6922 50.729 45.4421 50.757 45.1916 50.7623C44.9411 50.7576 44.6906 50.7299 44.4404 50.605C44.6909 50.4805 44.9414 50.4525 45.1916 50.4478C45.4421 50.4531 45.6925 50.4811 45.9427 50.605Z" fill="#E6952A"/>
<path d="M47.6553 46.1119C48.1691 45.4637 48.6802 44.8141 49.173 44.1508C49.6749 43.4949 50.1683 42.8322 50.6466 42.1594C51.6065 40.8163 52.5603 39.4681 53.4284 38.0652C54.3134 36.6743 55.1548 35.2541 55.899 33.783C56.1001 33.4226 56.2576 33.0416 56.4392 32.6714L56.7032 32.1122L56.9368 31.54C57.087 31.1566 57.2708 30.7838 57.3944 30.3903L57.7919 29.2158C57.4267 30.8332 56.8151 32.3864 56.1158 33.89C55.9348 34.263 55.7516 34.6354 55.5636 35.0053C55.3704 35.3724 55.1639 35.7319 54.9646 36.0959C54.7682 36.4614 54.5551 36.8171 54.3408 37.1719C54.1245 37.5255 53.9221 37.8882 53.6936 38.2338C52.7989 39.6298 51.8447 40.9864 50.8402 42.3031C49.8301 43.6157 48.7839 44.9013 47.6553 46.1119Z" fill="#E6952A"/>
<path d="M48.5605 38.9612C48.8494 38.2214 49.169 37.4967 49.4933 36.7742C49.8145 36.0501 50.1577 35.337 50.5013 34.6236C50.8514 33.9137 51.2021 33.2041 51.5745 32.5052L52.1343 31.4571C52.3313 31.113 52.5183 30.7639 52.7239 30.4238C52.5825 30.7953 52.4228 31.1577 52.2726 31.5247L51.7914 32.6112C51.4702 33.3353 51.127 34.0483 50.7832 34.7614C50.4327 35.471 50.082 36.1806 49.7093 36.8796C49.34 37.5801 48.9657 38.278 48.5605 38.9612Z" fill="#E6952A"/>
<path d="M45.5322 38.9612C45.6454 37.9864 45.7925 37.0179 45.9446 36.05C46.0932 35.0819 46.2661 34.1181 46.4393 33.154C46.6197 32.1915 46.8007 31.2293 47.0056 30.2712L47.3142 28.8344C47.4283 28.3575 47.532 27.8788 47.6552 27.4038C47.6018 27.8917 47.5283 28.3761 47.4657 28.8624L47.2435 30.3149C47.0945 31.2831 46.9217 32.2469 46.7482 33.2106C46.5675 34.1731 46.3865 35.1353 46.1812 36.0931C45.9798 37.0522 45.773 38.0097 45.5322 38.9612Z" fill="#E6952A"/>
<path d="M46.5938 55.781C47.4508 57.1247 48.2472 58.5059 49.0153 59.9025C49.7838 61.2991 50.5009 62.724 51.1927 64.1614C51.859 65.6109 52.5008 67.0744 53.0275 68.584C53.2846 69.3407 53.5206 70.1057 53.7001 70.8858C53.8638 71.6659 53.9996 72.4692 53.916 73.2656C53.9279 72.4673 53.7632 71.6854 53.5505 70.9229C53.3427 70.1583 53.0828 69.4077 52.8003 68.6667C52.2305 67.1855 51.5947 65.7285 50.9086 64.2951C50.2429 62.8517 49.5238 61.4331 48.8026 60.0151C48.4436 59.3052 48.0765 58.599 47.7051 57.8954L46.5938 55.781Z" fill="#E6952A"/>
<path d="M45.9423 60.9836C46.007 62.0059 46.0375 63.0285 46.0627 64.0508C46.0913 65.073 46.0954 66.0956 46.0994 67.1179C46.096 68.1402 46.0916 69.1628 46.0633 70.185L46.0193 71.7188C45.9932 72.2299 45.9778 72.741 45.9423 73.2525C45.9068 72.7413 45.8914 72.2302 45.8653 71.7188L45.8213 70.185C45.7927 69.1628 45.7886 68.1402 45.7852 67.1179C45.7892 66.0956 45.793 65.073 45.8219 64.0508C45.8474 63.0285 45.8776 62.0062 45.9423 60.9836Z" fill="#E6952A"/>
<path d="M47.6553 62.9424C47.9554 63.7196 48.2046 64.5135 48.4382 65.3122C48.6748 66.1102 48.8712 66.9195 49.051 67.7326C49.2261 68.5466 49.3703 69.3695 49.4599 70.1999C49.5061 70.6148 49.5312 71.0325 49.5498 71.4496L49.535 72.0771C49.5218 72.286 49.4913 72.4936 49.4656 72.699L49.4517 72.0768L49.3961 71.4593C49.3468 71.0489 49.2952 70.6396 49.2204 70.2326C49.0758 69.4192 48.9247 68.6064 48.744 67.7983C48.573 66.9887 48.3857 66.1819 48.2053 65.3722L47.9256 64.1597L47.6553 62.9424Z" fill="#E6952A"/>
<path d="M65.1826 25.2195C65.1826 25.2195 69.1071 42.9671 82.6311 50.5857C82.6311 50.5857 71.9596 65.5153 70.7819 74.3914H84.1334V25.2195H65.1826Z" fill="#FFBA55"/>
<path d="M82.6309 50.6053C82.8813 50.4813 83.1318 50.4533 83.382 50.448C83.6325 50.4527 83.8827 50.4804 84.1331 50.6053C83.8827 50.7298 83.6322 50.7578 83.382 50.7625C83.1318 50.7572 82.8813 50.7292 82.6309 50.6053Z" fill="#E6952A"/>
<path d="M80.9186 46.1122C79.79 44.9012 78.7437 43.616 77.7339 42.3034C76.7291 40.9867 75.7753 39.63 74.8805 38.2341C74.652 37.8884 74.4496 37.5257 74.2334 37.1722C74.0191 36.8174 73.806 36.4616 73.6095 36.0961C73.4103 35.7325 73.2035 35.3727 73.0105 35.0056C72.8226 34.6357 72.6393 34.2633 72.4583 33.8902C71.759 32.3867 71.1474 30.8335 70.7822 29.2161L71.1798 30.3906C71.303 30.7841 71.4872 31.1568 71.6374 31.5402L71.8709 32.1124L72.1349 32.6717C72.3166 33.0419 72.4743 33.4228 72.6752 33.7833C73.4191 35.2544 74.2607 36.6746 75.1458 38.0655C76.0138 39.4684 76.9677 40.8165 77.9275 42.1596C78.4059 42.8327 78.8993 43.4952 79.4012 44.151C79.8937 44.8147 80.4047 45.4639 80.9186 46.1122Z" fill="#E6952A"/>
<path d="M80.013 38.9612C79.6078 38.2783 79.2335 37.5801 78.8639 36.8796C78.4912 36.1806 78.1404 35.471 77.79 34.7614C77.4462 34.0483 77.103 33.3353 76.7818 32.6112L76.3009 31.5247C76.151 31.1577 75.9914 30.795 75.8496 30.4238C76.0552 30.7639 76.2425 31.113 76.4392 31.4571L76.9993 32.5052C77.3717 33.2041 77.7224 33.9137 78.0726 34.6236C78.4161 35.3367 78.7593 36.0501 79.0805 36.7742C79.4048 37.4964 79.7244 38.2211 80.013 38.9612Z" fill="#E6952A"/>
<path d="M83.0419 38.9613C82.8012 38.0098 82.5944 37.0523 82.3929 36.0939C82.1877 35.1361 82.007 34.1736 81.826 33.2114C81.6525 32.2476 81.4796 31.2838 81.3307 30.3157L81.1085 28.8631C81.0456 28.3768 80.9724 27.8924 80.9189 27.4045C81.0425 27.8795 81.1459 28.3582 81.2599 28.8351L81.5686 30.2719C81.7735 31.2297 81.9545 32.1922 82.1349 33.1547C82.3081 34.1185 82.4809 35.0823 82.6296 36.0508C82.7817 37.0177 82.9288 37.9862 83.0419 38.9613Z" fill="#E6952A"/>
<path d="M81.9806 55.781L80.8693 57.8957C80.4978 58.5993 80.1307 59.3055 79.7718 60.0154C79.0505 61.4334 78.3314 62.852 77.6658 64.2954C76.9797 65.7291 76.3439 67.1858 75.7741 68.667C75.4912 69.4081 75.2316 70.1586 75.0239 70.9232C74.8114 71.6854 74.6464 72.4676 74.6584 73.266C74.5744 72.4695 74.7105 71.6662 74.8743 70.8861C75.0537 70.106 75.2898 69.3408 75.5468 68.5843C76.0736 67.0748 76.7154 65.6109 77.3816 64.1618C78.0734 62.7243 78.7903 61.2994 79.559 59.9028C80.3271 58.5059 81.1235 57.1247 81.9806 55.781Z" fill="#E6952A"/>
<path d="M82.6318 60.9836C82.6965 62.0059 82.727 63.0285 82.7521 64.0508C82.7807 65.073 82.7848 66.0956 82.7889 67.1179C82.7854 68.1402 82.781 69.1628 82.7528 70.185L82.7088 71.7188C82.6827 72.2299 82.6673 72.741 82.6318 73.2525C82.5962 72.7413 82.5808 72.2302 82.5548 71.7188L82.5107 70.185C82.4821 69.1628 82.4781 68.1402 82.4746 67.1179C82.4787 66.0956 82.4825 65.073 82.5114 64.0508C82.5365 63.0285 82.567 62.0062 82.6318 60.9836Z" fill="#E6952A"/>
<path d="M80.9189 62.9424L80.6486 64.1597L80.3689 65.3722C80.1885 66.1819 80.0012 66.9887 79.8302 67.7983C79.6495 68.6064 79.4984 69.4192 79.3538 70.2326C79.279 70.6396 79.2278 71.0485 79.1781 71.4593L79.1225 72.0768L79.1086 72.699C79.0829 72.4936 79.0521 72.2856 79.0392 72.0771L79.0244 71.4496C79.043 71.0325 79.0681 70.6148 79.1143 70.1999C79.2036 69.3695 79.3481 68.547 79.5232 67.7326C79.703 66.9192 79.8994 66.1099 80.136 65.3122C80.3696 64.5135 80.6191 63.7196 80.9189 62.9424Z" fill="#E6952A"/>
<path d="M66.232 70.4684H61.7889L60.292 62.5938H67.7289L66.232 70.4684Z" fill="#E19974"/>
<path d="M67.558 63.4927L67.7289 62.5938H60.292L60.463 63.4927H67.558Z" fill="#D6694B"/>
<path d="M63.083 67.3987L62.1445 66.4595L61.206 67.3987L62.1445 68.338L63.083 67.3987Z" fill="#D6694B"/>
<path d="M64.96 67.3985L64.0215 66.4592L63.083 67.3985L64.0215 68.3377L64.96 67.3985Z" fill="#D6694B"/>
<path d="M66.8154 67.3985L65.877 66.4592L64.9385 67.3985L65.877 68.3377L66.8154 67.3985Z" fill="#D6694B"/>
<path d="M65.7405 55.9668C65.7405 55.9668 66.1306 61.483 63.8441 62.6521C63.8441 62.6521 63.0524 60.5607 65.7405 55.9668Z" fill="#558031"/>
<path d="M58.3623 58.3362C58.3623 58.3362 62.1032 58.9823 63.8444 62.6521C63.8444 62.6521 59.7307 61.2536 58.3623 58.3362Z" fill="#849F4C"/>
<path d="M59.6885 65.562C59.6885 65.562 61.5908 62.7134 63.8443 62.6521C63.8443 62.6521 63.5052 64.9458 59.6885 65.562Z" fill="#A6B862"/>
<path d="M62.0352 56.7529C62.0352 56.7529 64.6748 59.1652 63.8442 62.6519C63.8442 62.6522 62.3818 61.1009 62.0352 56.7529Z" fill="#849F4C"/>
<path d="M63.8447 62.6521C63.8447 62.6521 64.7722 59.2543 69.4604 58.3831C69.4604 58.3831 68.4053 61.4766 63.8447 62.6521Z" fill="#A6B862"/>
<path d="M70.7024 61.7639C70.7024 61.7639 67.1252 60.288 63.8447 62.6521C63.8447 62.6521 68.2061 63.1762 70.7024 61.7639Z" fill="#849F4C"/>
<path d="M70.6701 65.2C70.6701 65.2 68.9428 62.4311 63.8447 62.6522L70.6701 65.2Z" fill="#558031"/>
<path d="M56.4355 62.204C56.4355 62.204 61.1335 60.4605 63.9058 62.5689C63.9061 62.5689 61.2733 64.0202 56.4355 62.204Z" fill="#558031"/>
<path d="M60.2881 57.1558C60.2881 57.1558 64.48 60.1229 63.8788 62.6543C63.8785 62.6543 60.9704 60.3207 60.2881 57.1558Z" fill="#558031"/>
<path d="M67.6416 65.6054C67.6416 65.6054 64.1857 65.015 63.8447 62.6521C63.8447 62.6521 66.3697 62.7773 67.6416 65.6054Z" fill="#849F4C"/>
<path d="M131.164 124.222H74.5352V95.8845C74.5352 92.2707 77.4624 89.3411 81.0732 89.3411H124.626C128.237 89.3411 131.164 92.2707 131.164 95.8845V124.222H131.164Z" fill="#8795DE"/>
<path d="M149.172 103.623H131.164V121.646H149.172V103.623Z" fill="#A2AEE6"/>
<path d="M131.164 103.623C131.229 105.125 131.259 106.627 131.284 108.129C131.31 109.631 131.308 111.133 131.321 112.635C131.309 114.137 131.31 115.639 131.285 117.14L131.241 119.393C131.215 120.144 131.199 120.895 131.164 121.646C131.128 120.895 131.113 120.144 131.087 119.393L131.043 117.14C131.018 115.638 131.019 114.136 131.007 112.635C131.02 111.133 131.018 109.631 131.044 108.129C131.069 106.627 131.099 105.125 131.164 103.623Z" fill="#4F66D0"/>
<path d="M122.539 95.7754C122.242 95.9408 121.95 96.1091 121.673 96.3004C121.389 96.48 121.114 96.6731 120.852 96.8798C120.325 97.2912 119.828 97.7356 119.391 98.2339C118.952 98.7305 118.599 99.2926 118.314 99.8884L118.125 100.349C118.068 100.504 118.038 100.668 117.991 100.829L117.921 101.07L117.884 101.319C117.862 101.485 117.835 101.652 117.807 101.821C117.772 101.146 117.837 100.445 118.09 99.7969C118.334 99.1498 118.702 98.5491 119.155 98.0272C119.616 97.5129 120.138 97.0581 120.712 96.6835C121.284 96.3095 121.891 95.9858 122.539 95.7754Z" fill="#4F66D0"/>
<path d="M124.872 106.776C124.679 106.497 124.484 106.222 124.267 105.963C124.062 105.698 123.844 105.442 123.613 105.2C123.154 104.715 122.665 104.262 122.127 103.874C121.592 103.484 120.999 103.186 120.379 102.958L119.904 102.813C119.744 102.771 119.578 102.757 119.414 102.726L119.167 102.678L118.916 102.665C118.749 102.659 118.58 102.649 118.409 102.636C119.077 102.537 119.781 102.536 120.449 102.727C121.116 102.908 121.748 103.218 122.31 103.619C122.866 104.029 123.368 104.507 123.795 105.043C124.222 105.577 124.601 106.151 124.872 106.776Z" fill="#4F66D0"/>
<path d="M108.947 102.754C109.493 102.346 110.107 102.037 110.743 101.786C111.38 101.534 112.053 101.369 112.739 101.29C113.426 101.221 114.128 101.268 114.797 101.442C115.471 101.609 116.081 101.961 116.611 102.379C116.457 102.305 116.306 102.23 116.157 102.152L115.934 102.039L115.696 101.957C115.538 101.902 115.387 101.832 115.227 101.789L114.742 101.678C114.091 101.567 113.429 101.53 112.77 101.602C112.112 101.671 111.462 101.821 110.822 102.013C110.502 102.108 110.186 102.221 109.875 102.349C109.559 102.466 109.253 102.607 108.947 102.754Z" fill="#4F66D0"/>
<path d="M116.573 111.014C116.22 110.431 115.971 109.79 115.781 109.133C115.59 108.474 115.491 107.788 115.477 107.098C115.473 106.406 115.587 105.711 115.824 105.062C116.054 104.405 116.461 103.831 116.928 103.343C116.84 103.489 116.751 103.633 116.659 103.773L116.525 103.985L116.42 104.214C116.351 104.366 116.267 104.51 116.209 104.666L116.052 105.138C115.88 105.776 115.781 106.432 115.79 107.095C115.797 107.758 115.884 108.419 116.014 109.075C116.078 109.403 116.161 109.729 116.259 110.05C116.345 110.377 116.457 110.695 116.573 111.014Z" fill="#4F66D0"/>
<path d="M94.4186 95.7754C94.1222 95.9408 93.8303 96.1091 93.5528 96.3004C93.269 96.48 92.9943 96.6731 92.7315 96.8798C92.2051 97.2912 91.7082 97.7356 91.2714 98.2339C90.832 98.7305 90.4794 99.2926 90.194 99.8884L90.0048 100.349C89.9479 100.504 89.9177 100.668 89.8709 100.829L89.8005 101.07L89.7637 101.319C89.7414 101.485 89.7153 101.652 89.6864 101.821C89.6515 101.146 89.7169 100.445 89.9699 99.7969C90.2141 99.1498 90.5815 98.5491 91.0344 98.0272C91.4955 97.5129 92.0181 97.0581 92.5917 96.6835C93.1643 96.3095 93.7712 95.9858 94.4186 95.7754Z" fill="#4F66D0"/>
<path d="M96.7524 106.776C96.5597 106.497 96.3646 106.222 96.148 105.963C95.9425 105.698 95.7244 105.442 95.4937 105.2C95.0342 104.715 94.5452 104.262 94.008 103.874C93.4725 103.484 92.8798 103.186 92.26 102.958L91.7845 102.813C91.6242 102.771 91.4579 102.757 91.2942 102.726L91.0472 102.678L90.7967 102.665C90.6292 102.659 90.4604 102.649 90.29 102.636C90.9582 102.537 91.6616 102.536 92.3301 102.727C92.9967 102.908 93.629 103.218 94.1913 103.619C94.7466 104.029 95.2485 104.507 95.6756 105.043C96.1018 105.577 96.4815 106.151 96.7524 106.776Z" fill="#4F66D0"/>
<path d="M80.8271 102.754C81.3727 102.346 81.9872 102.037 82.623 101.786C83.2597 101.534 83.9326 101.369 84.6184 101.29C85.3057 101.221 86.0078 101.268 86.6766 101.442C87.3511 101.609 87.9608 101.961 88.4913 102.379C88.337 102.305 88.1855 102.23 88.0372 102.152L87.8134 102.039L87.5758 101.957C87.418 101.902 87.2669 101.832 87.1069 101.789L86.6223 101.678C85.9714 101.567 85.3092 101.53 84.6504 101.602C83.992 101.671 83.3424 101.821 82.7025 102.013C82.3819 102.108 82.0661 102.221 81.7556 102.349C81.4394 102.466 81.1336 102.607 80.8271 102.754Z" fill="#4F66D0"/>
<path d="M88.453 111.014C88.0995 110.431 87.8509 109.79 87.6607 109.133C87.4703 108.474 87.3706 107.788 87.3565 107.098C87.3537 106.406 87.4668 105.711 87.7035 105.062C87.9338 104.405 88.3411 103.831 88.8079 103.343C88.7199 103.489 88.6309 103.633 88.5392 103.773L88.405 103.985L88.3006 104.214C88.2315 104.366 88.1476 104.51 88.0891 104.666L87.9326 105.138C87.7603 105.776 87.661 106.432 87.6705 107.095C87.6768 107.758 87.7638 108.419 87.8942 109.075C87.9584 109.403 88.041 109.729 88.1387 110.05C88.2252 110.377 88.3364 110.695 88.453 111.014Z" fill="#4F66D0"/>
<path d="M85.6341 146.47H67.7393V109.92C67.7393 106.443 70.5562 103.623 74.0313 103.623H85.6337V146.47H85.6341Z" fill="#A2AEE6"/>
<path d="M98.3187 146.47H85.6338V103.623H92.0267C95.5017 103.623 98.3187 106.443 98.3187 109.921V118.069L149.186 117.721L149.171 103.623H154.318C157.793 103.623 160.61 106.442 160.61 109.92V146.47H98.3187V146.47Z" fill="#C0D6F2"/>
<path d="M132.818 54.6044C137.684 54.6044 141.628 50.6565 141.628 45.7865C141.628 40.9164 137.684 36.9685 132.818 36.9685C127.952 36.9685 124.007 40.9164 124.007 45.7865C124.007 50.6565 127.952 54.6044 132.818 54.6044Z" fill="#FFBA55"/>
<path d="M132.818 54.6044C137.684 54.6044 141.628 50.6565 141.628 45.7865C141.628 40.9164 137.684 36.9685 132.818 36.9685C127.952 36.9685 124.007 40.9164 124.007 45.7865C124.007 50.6565 127.952 54.6044 132.818 54.6044Z" stroke="#D77F4A" stroke-miterlimit="10"/>
<path d="M132.817 40.7295V46.4155" stroke="#D77F4A" stroke-miterlimit="10" stroke-linecap="round" stroke-linejoin="round"/>
<path d="M131.811 44.6333L137.706 47.5922" stroke="#D77F4A" stroke-miterlimit="10" stroke-linecap="round" stroke-linejoin="round"/>
<path d="M128.84 85.8565L128.88 91.5466L132.703 91.0956L131.936 85.6574L129.512 85.0632L128.84 85.8565Z" fill="#F9977A"/>
<path d="M129.326 136.731C129.326 136.731 127.358 144.673 127.954 144.932C128.552 145.191 144.429 146.414 141.716 145.007L137.199 142.958C135.585 142.226 134.582 140.633 134.635 138.885L134.712 136.344L129.326 136.731Z" fill="#F9977A"/>
<path d="M103.715 136.731C103.715 136.731 101.746 144.673 102.343 144.932C102.94 145.191 118.818 146.414 116.105 145.007L111.587 142.958C109.974 142.226 108.971 140.633 109.024 138.885L109.1 136.344L103.715 136.731Z" fill="#F9977A"/>
<path d="M114.981 104.713L130.135 105.517C133.445 105.693 136.04 108.43 136.04 111.747L135.736 136.508C135.723 137.584 134.848 138.449 133.774 138.449H129.259C128.238 138.449 127.387 137.665 127.303 136.646L124.93 116.137L104.326 119.33C103.49 119.354 98.5915 117.801 97.9374 117.396C96.7667 116.672 95.6011 115.726 95.0768 113.508C94.678 111.821 94.8421 110.05 95.4521 108.427L96.8177 104.797L114.981 104.713Z" fill="#FFBA55"/>
<path d="M116.72 107.224C116.72 107.224 120.881 108.396 122.718 107.327C122.718 107.327 124.237 106.338 124.443 106.479C124.637 106.611 124.33 107.218 123.245 108.342C122.817 108.786 122.765 109.491 123.162 109.963C123.446 110.303 123.954 110.671 124.826 111.028C124.826 111.028 129.593 112.461 125.102 113.991C125.102 113.991 122.571 114.463 120.405 112.684C118.238 110.905 115.437 110.684 115.437 110.684L116.72 107.224Z" fill="#F9977A"/>
<path d="M123.563 111.441C123.859 111.529 124.148 111.63 124.437 111.732L125.298 112.046L126.155 112.367C126.442 112.468 126.726 112.579 127.028 112.632C126.718 112.651 126.412 112.57 126.115 112.495C125.816 112.418 125.526 112.314 125.237 112.209C124.95 112.1 124.666 111.985 124.387 111.856C124.108 111.728 123.831 111.594 123.563 111.441Z" fill="#DD765E"/>
<path d="M123.283 112.297C123.551 112.381 123.812 112.474 124.074 112.566L124.857 112.843L125.639 113.121L126.428 113.393C125.869 113.342 125.325 113.192 124.799 113.007C124.537 112.91 124.277 112.809 124.024 112.689C123.771 112.571 123.521 112.446 123.283 112.297Z" fill="#DD765E"/>
<path d="M123.061 113.179C123.274 113.222 123.48 113.278 123.687 113.334C123.894 113.388 124.098 113.451 124.302 113.511L124.913 113.694C125.118 113.751 125.32 113.81 125.536 113.832C125.322 113.883 125.098 113.855 124.884 113.825C124.669 113.792 124.46 113.737 124.253 113.677C124.047 113.613 123.842 113.544 123.644 113.46C123.445 113.377 123.248 113.289 123.061 113.179Z" fill="#DD765E"/>
<path d="M99.957 113.286L100.191 118.004L102.032 136.98C102.13 137.987 102.975 138.755 103.986 138.755H108.46C109.549 138.755 110.432 137.866 110.423 136.776C110.348 127.383 110.645 121.344 110.349 117.464C109.806 110.338 109.199 110.484 109.199 110.484" fill="#FFBA55"/>
<path d="M122.905 81.8701C122.905 81.8701 126.227 83.6142 127.768 94.4069C127.768 94.4069 128.191 94.3871 128.314 90.4027C128.33 89.8935 128.747 89.4862 129.256 89.4862H132.11C132.596 89.4862 133.002 89.8529 133.048 90.337C133.377 93.7806 134.171 106.469 127.93 105.768C127.93 105.768 123.795 106.741 122.173 94.488L116.092 100.087L114.551 104.713L112.93 104.794L118.186 106.707C118.713 106.899 118.957 107.506 118.71 108.009L117.279 110.927C117.102 111.288 116.716 111.497 116.318 111.448C113.303 111.074 101.043 109.482 100.119 108.202C99.0646 106.741 99.389 105.038 99.389 105.038L97.1025 104.794C97.1025 104.794 98.0105 97.2476 98.7403 94.0014C99.4701 90.7557 101.639 80.7298 109.22 79.6384C113.74 78.9876 112.032 79.6384 116.194 79.6384L122.905 81.8701Z" fill="#F73C4F"/>
<path d="M116.457 77.4876L115.808 75.7674C115.404 74.5451 114.607 74.189 114.824 72.9198L115.067 71.4965L116.141 71.4402L116.457 77.4876Z" fill="#1E1D22"/>
<path d="M124.972 76.1031L124.195 71.1761L127.332 70.6807L127.614 72.4685C127.887 74.2023 126.704 75.8295 124.972 76.1031Z" fill="#1E1D22"/>
<path d="M122.932 68.6519C120.789 68.0854 118.428 69.6717 117.05 72.3617C116.896 72.2299 116.723 72.1522 116.537 72.1493C115.885 72.1387 115.341 73.0301 115.323 74.1404C115.31 74.9365 115.571 75.627 115.96 75.9591C115.563 79.3059 116.861 82.2431 119.183 82.8568C121.843 83.5598 124.838 80.9497 125.873 77.0273C126.909 73.1046 125.592 69.3549 122.932 68.6519Z" fill="#F9977A"/>
<path d="M118.954 82.0059C117.544 81.5511 116.657 80.5706 116.363 79.3552H116.363C116.363 79.3552 116.05 91.2447 122.27 82.088L122.268 82.0874C121.124 82.3421 119.973 82.3346 118.954 82.0059Z" fill="#F9977A"/>
<path d="M121.774 82.5877C120.719 82.9337 119.659 82.934 118.724 82.51C117.43 81.9234 116.623 80.6394 116.363 79.0406L116.363 79.0403C116.363 79.0403 116.34 79.9484 116.387 81.1581C116.799 82.0565 117.445 82.7592 118.308 83.1505C119.28 83.5911 120.386 83.5748 121.483 83.1866C121.579 82.9951 121.851 82.7557 121.95 82.5481L121.774 82.5877Z" fill="#DD765E"/>
<path d="M115.905 73.3077C115.968 73.1545 116.116 73.047 116.284 73.0092C116.369 72.9982 116.459 73.0001 116.538 73.0331C116.617 73.0621 116.685 73.114 116.736 73.1766C116.578 73.1382 116.442 73.1026 116.307 73.1366C116.17 73.1545 116.045 73.2288 115.905 73.3077Z" fill="#DD765E"/>
<path d="M116.105 74.5774C116.164 74.3236 116.225 74.0808 116.251 73.8304C116.273 73.7068 116.28 73.5816 116.286 73.4558C116.296 73.3296 116.29 73.2035 116.294 73.072C116.396 73.3149 116.409 73.5869 116.379 73.8474C116.337 74.1059 116.263 74.3648 116.105 74.5774Z" fill="#DD765E"/>
<path d="M128.288 69.9459C128.221 69.7622 128.093 69.5615 126.877 68.7959C125.937 68.2039 125.467 67.9079 124.745 67.5704C123.048 66.7784 122.199 66.3824 121.366 66.5415C120.243 66.7561 120.339 67.5399 118.964 68.1045C117.292 68.7905 116.418 67.9337 115.594 68.6364C114.438 69.6235 114.859 72.4264 115.702 72.7095C116.198 72.8762 116.739 72.1373 117.051 72.3616C117.363 72.5858 117.114 73.5336 116.913 74.2982C116.772 74.8352 116.537 75.4139 116.49 75.6593L115.941 76.562C115.941 76.562 115.184 80.5835 118.551 82.533C121.918 84.4829 124.964 79.6899 124.964 79.6899C124.873 79.1111 124.355 78.7016 123.771 78.7396C123.22 78.7752 122.677 78.6943 122.197 78.616C121.069 78.4317 120.142 77.9193 119.333 77.2634C118.782 76.8168 118.347 76.4321 118.029 76.1367C117.683 75.815 117.505 75.3557 117.543 74.8845C117.567 74.5892 117.575 74.2095 117.671 73.7053C117.803 73.0095 117.908 72.4556 118.329 72.181C118.701 71.9385 118.953 72.154 119.689 72.1084C120.893 72.0335 121.071 71.4038 122.077 71.3525C122.438 71.3343 122.498 71.411 124.015 71.9461C126.265 72.7393 126.529 72.7095 126.729 72.6538C127.793 72.3565 128.63 70.8744 128.288 69.9459ZM118.994 79.0035C119.357 78.9054 119.68 78.8793 120.558 79.1812C121.097 79.3671 121.239 79.543 121.838 79.8257C122.414 80.0978 122.341 80.4133 122.346 80.4624C122.373 80.7461 121.872 81.0553 121.449 81.172C120.924 81.3167 120.465 81.1591 119.567 80.8379C118.82 80.5706 118.444 80.4316 118.354 80.1456C118.221 79.7213 118.567 79.1183 118.994 79.0035Z" fill="#1E1D22"/>
<path d="M121.068 74.8074C121.092 74.5007 120.912 74.2363 120.665 74.2168C120.418 74.1974 120.199 74.4302 120.175 74.7369C120.15 75.0436 120.331 75.308 120.578 75.3275C120.824 75.347 121.044 75.1141 121.068 74.8074Z" fill="#1E1D22"/>
<path d="M119.644 73.3773C119.644 73.3773 121.106 72.8719 122.008 73.4236" stroke="#1E1D22" stroke-width="1.1812" stroke-miterlimit="10" stroke-linecap="round" stroke-linejoin="round"/>
<path d="M122.577 75.054C122.436 75.4396 122.394 75.8438 122.473 76.2304C122.554 76.6289 122.612 77.0249 122.774 77.3829L122.897 77.6631C122.944 77.7584 122.971 77.922 122.919 78.0393C122.874 78.1613 122.788 78.2551 122.698 78.324C122.606 78.3944 122.508 78.441 122.399 78.4759C121.957 78.6036 121.528 78.4359 121.194 78.2101C121.385 78.2837 121.58 78.3435 121.777 78.3642C121.971 78.3903 122.17 78.3815 122.339 78.3082C122.501 78.2356 122.672 78.1132 122.712 77.9679C122.736 77.8915 122.728 77.8389 122.689 77.7502L122.562 77.4728C122.392 77.0809 122.337 76.6588 122.298 76.2536C122.249 75.8334 122.349 75.3959 122.577 75.054Z" fill="#DD765E"/>
<path d="M119.205 74.4582C119.551 74.1308 120.063 74.0031 120.543 74.0458C120.782 74.077 121.021 74.1326 121.234 74.2449C121.345 74.2896 121.44 74.3654 121.54 74.4271C121.632 74.5019 121.723 74.5777 121.805 74.6608C121.585 74.5749 121.376 74.4887 121.163 74.4249C120.951 74.3553 120.735 74.317 120.519 74.2924C120.303 74.267 120.084 74.2773 119.865 74.3025C119.646 74.3324 119.425 74.3777 119.205 74.4582Z" fill="#1E1D22"/>
<path d="M124.344 75.9104C124.457 75.6242 124.361 75.3185 124.131 75.2276C123.901 75.1367 123.623 75.295 123.51 75.5812C123.397 75.8674 123.492 76.1731 123.723 76.264C123.953 76.3549 124.231 76.1966 124.344 75.9104Z" fill="#1E1D22"/>
<path d="M125.411 74.9193C125.411 74.9193 124.319 73.8227 123.267 73.9221" stroke="#1E1D22" stroke-width="1.1812" stroke-miterlimit="10" stroke-linecap="round" stroke-linejoin="round"/>
<path d="M125.331 76.0827C125.169 75.9138 124.99 75.776 124.807 75.653C124.621 75.5341 124.429 75.4291 124.223 75.3564C124.019 75.2837 123.808 75.223 123.587 75.1925C123.367 75.1563 123.142 75.1419 122.906 75.1224C123.017 75.084 123.131 75.0557 123.247 75.029C123.364 75.0176 123.482 74.9912 123.602 74.9997C123.842 74.9922 124.081 75.0472 124.31 75.1243C124.76 75.2969 125.164 75.6367 125.331 76.0827Z" fill="#1E1D22"/>
<path d="M124.931 88.4019C124.979 89.5506 124.718 90.7069 124.26 91.7678C124.147 92.0349 124.008 92.2893 123.871 92.5444C123.798 92.6693 123.716 92.7895 123.639 92.9118C123.565 93.0361 123.48 93.1537 123.388 93.266C123.053 93.7388 122.62 94.1335 122.174 94.4877C122.537 94.0432 122.895 93.6079 123.187 93.126C123.487 92.652 123.755 92.1585 123.972 91.6417C124.199 91.1296 124.388 90.5996 124.547 90.0589C124.7 89.5169 124.837 88.9668 124.931 88.4019Z" fill="#B02336"/>
<path d="M127.768 94.4067L127.353 96.4079C127.222 97.0747 127.078 97.7381 126.962 98.4059C126.84 99.0724 126.727 99.7405 126.638 100.411C126.594 100.747 126.552 101.084 126.531 101.421C126.518 101.59 126.496 101.76 126.491 101.929C126.488 102.099 126.481 102.269 126.471 102.441C126.359 101.764 126.361 101.073 126.398 100.388C126.43 99.7021 126.537 99.0239 126.653 98.3492C126.778 97.6761 126.931 97.0087 127.119 96.3513C127.305 95.6932 127.509 95.0402 127.768 94.4067Z" fill="#B02336"/>
<path d="M107.984 86.6975C107.795 86.1719 107.529 85.6856 107.205 85.2534C106.876 84.8247 106.484 84.4463 106.022 84.1777C105.916 84.0956 105.788 84.0509 105.67 83.9874L105.491 83.898C105.43 83.871 105.364 83.855 105.302 83.8307C105.175 83.7873 105.05 83.737 104.921 83.6983C104.789 83.6716 104.657 83.642 104.525 83.6112C104.459 83.597 104.393 83.5778 104.326 83.5681L104.123 83.5473L103.714 83.5005C103.439 83.481 103.163 83.4935 102.882 83.4744C103.155 83.4225 103.433 83.379 103.714 83.3463L104.138 83.3419C104.28 83.3369 104.422 83.3432 104.563 83.3687C105.134 83.4133 105.687 83.6238 106.186 83.9097C107.185 84.5086 107.841 85.5903 107.984 86.6975Z" fill="#B02336"/>
<path d="M99.147 94.488C99.2322 95.3656 99.2828 96.2441 99.328 97.1227C99.377 98.0012 99.4012 98.88 99.4254 99.7592C99.4421 100.638 99.4581 101.518 99.45 102.397L99.4364 103.717C99.4204 104.157 99.4154 104.597 99.3899 105.038C99.344 104.599 99.3189 104.16 99.2824 103.721L99.2083 102.403C99.1596 101.524 99.135 100.646 99.1115 99.7664C99.0951 98.8873 99.0788 98.0081 99.0873 97.1283C99.0923 96.2482 99.1024 95.3684 99.147 94.488Z" fill="#B02336"/>
<path d="M112.931 104.794C111.821 104.444 110.714 104.085 109.614 103.71C108.51 103.342 107.41 102.965 106.315 102.575L106.206 102.536L106.222 102.42C106.354 101.46 106.474 100.497 106.617 99.5382L107.04 96.6598C107.179 95.7001 107.342 94.7439 107.492 93.7858C107.646 92.8283 107.811 91.8721 107.985 90.9175C107.888 91.8831 107.783 92.8475 107.667 93.8107C107.547 94.7729 107.439 95.7373 107.308 96.6979L106.92 99.581C106.793 100.542 106.642 101.5 106.504 102.46L106.411 102.306C107.505 102.7 108.594 103.107 109.68 103.524C110.769 103.933 111.851 104.359 112.931 104.794Z" fill="#B02336"/>
<path d="M118.862 93.1758C118.812 93.7089 118.653 94.2358 118.411 94.7215C118.175 95.2109 117.846 95.6579 117.456 96.0407C117.062 96.4187 116.61 96.7452 116.107 96.9544C115.864 97.079 115.598 97.1441 115.341 97.2212C115.079 97.2847 114.81 97.3158 114.547 97.3492C115.053 97.1718 115.547 96.9959 115.998 96.7345C116.456 96.4917 116.869 96.1753 117.236 95.8158C117.608 95.46 117.928 95.0489 118.197 94.6038C118.464 94.1578 118.694 93.6825 118.862 93.1758Z" fill="#B02336"/>
<path d="M118.689 96.0588C118.412 96.8798 117.834 97.5982 117.109 98.0971C116.931 98.2267 116.732 98.3251 116.538 98.4289C116.332 98.5085 116.134 98.6067 115.918 98.6523C115.497 98.7831 115.052 98.7976 114.625 98.774C115.046 98.6752 115.455 98.5815 115.84 98.4195C116.228 98.2704 116.594 98.0757 116.932 97.8379C117.274 97.6077 117.59 97.3359 117.882 97.0377C118.17 96.7354 118.445 96.414 118.689 96.0588Z" fill="#B02336"/>
<path d="M133.227 92.9417C132.475 93.277 131.668 93.4622 130.846 93.5393C130.435 93.5707 130.015 93.5673 129.602 93.4949C129.196 93.4279 128.762 93.2704 128.498 92.942C128.842 93.1722 129.242 93.2235 129.633 93.2515C130.026 93.271 130.423 93.2619 130.821 93.2263C131.618 93.1609 132.412 93.0376 133.227 92.9417Z" fill="#B02336"/>
<path d="M115.437 105.706C115.231 106.146 115.04 106.587 114.85 107.026C114.663 107.466 114.485 107.908 114.339 108.359C114.188 108.808 114.058 109.264 113.988 109.729C113.921 110.193 113.89 110.667 113.985 111.146C113.773 110.705 113.714 110.194 113.745 109.703C113.768 109.207 113.891 108.725 114.042 108.26C114.198 107.795 114.394 107.346 114.63 106.919C114.861 106.491 115.128 106.081 115.437 105.706Z" fill="#B02336"/>
<path d="M118.161 85.5527C117.67 87.1475 117.123 88.724 116.551 90.2914C115.979 91.8587 115.359 93.4085 114.731 94.9548C114.071 96.4879 113.396 98.0166 112.645 99.5088C111.873 100.985 111.078 102.48 109.963 103.73L110.327 103.222C110.451 103.055 110.574 102.888 110.674 102.705C110.882 102.344 111.116 102.001 111.299 101.626C111.492 101.258 111.699 100.898 111.881 100.524L112.428 99.4025C113.131 97.8949 113.805 96.3728 114.441 94.8337C115.092 93.3009 115.706 91.7524 116.326 90.2058L118.161 85.5527Z" fill="#B02336"/>
<path d="M123.926 82.8479C123.163 83.8497 122.395 84.8484 121.613 85.8345L120.443 87.317C120.055 87.813 119.655 88.2993 119.261 88.7903L119.1 88.9919L119.02 88.7437L118.01 85.5999L118.244 85.6851L115.599 87.3484L115.412 87.4664L115.384 87.2475C115.223 85.9745 115.081 84.6987 114.94 83.4229C114.794 82.1477 114.667 80.8704 114.546 79.592C114.751 80.8597 114.95 82.1279 115.13 83.3987C115.314 84.6688 115.499 85.9389 115.663 87.2116L115.448 87.1106L118.076 85.4196L118.249 85.3083L118.31 85.5052L119.287 88.6598L119.045 88.6135C119.447 88.1288 119.843 87.6394 120.25 87.16L121.467 85.7156C122.275 84.75 123.099 83.7975 123.926 82.8479Z" fill="#B02336"/>
<path d="M110.203 116.753C110.161 115.905 110.049 115.061 109.843 114.243C109.645 113.425 109.359 112.622 108.909 111.924C108.464 111.229 107.834 110.645 107.057 110.391C106.272 110.163 105.424 110.052 104.604 110.11C103.783 110.157 102.967 110.387 102.288 110.845C101.602 111.297 101.095 111.975 100.742 112.724L100.519 113.307C100.439 113.5 100.412 113.71 100.356 113.912C100.236 114.315 100.217 114.738 100.155 115.155C100.112 115.574 100.116 115.998 100.095 116.421L100.149 117.693C100.099 117.271 100.051 116.848 100.008 116.424C100.006 115.998 99.9766 115.571 99.9958 115.144C100.04 114.719 100.047 114.287 100.154 113.868C100.205 113.659 100.225 113.442 100.3 113.239L100.511 112.624C100.843 111.822 101.394 111.095 102.121 110.598C102.845 110.097 103.717 109.842 104.583 109.783C105.456 109.734 106.316 109.855 107.155 110.11C107.999 110.4 108.69 111.04 109.122 111.791C109.566 112.54 109.829 113.371 109.999 114.208C110.154 115.049 110.234 115.903 110.203 116.753Z" fill="#E6952A"/>
<path d="M134.421 111.808C134.015 112.13 133.496 112.32 132.96 112.34C132.423 112.37 131.882 112.211 131.419 111.943C130.946 111.68 130.584 111.28 130.254 110.876C130.11 110.657 129.963 110.441 129.836 110.216C129.727 109.979 129.61 109.749 129.513 109.511C129.675 109.714 129.818 109.925 129.97 110.129C130.127 110.328 130.297 110.516 130.451 110.714C130.805 111.066 131.153 111.429 131.584 111.66C132.002 111.909 132.472 112.061 132.96 112.085C133.447 112.108 133.951 112.02 134.421 111.808Z" fill="#E6952A"/>
<path d="M108.144 115.758C107.838 116.231 107.431 116.641 106.961 116.967C106.491 117.295 105.941 117.526 105.36 117.602C105.07 117.65 104.773 117.625 104.484 117.595L104.058 117.494C103.916 117.462 103.788 117.387 103.655 117.333C103.38 117.235 103.158 117.044 102.92 116.892C102.701 116.711 102.501 116.509 102.305 116.311C102.55 116.453 102.766 116.628 103.008 116.758C103.259 116.873 103.487 117.027 103.75 117.096C104.252 117.293 104.795 117.348 105.318 117.278C105.844 117.215 106.352 117.019 106.824 116.752C107.293 116.477 107.742 116.149 108.144 115.758Z" fill="#E6952A"/>
<path d="M134.421 121.846C134.254 122.576 134.002 123.282 133.719 123.976C133.437 124.67 133.101 125.343 132.71 125.987C132.313 126.624 131.883 127.25 131.347 127.786C130.821 128.326 130.208 128.796 129.513 129.078C130.149 128.682 130.678 128.165 131.159 127.614C131.64 127.06 132.046 126.443 132.431 125.816C132.821 125.191 133.158 124.533 133.491 123.872C133.659 123.542 133.815 123.205 133.966 122.866C134.127 122.531 134.272 122.189 134.421 121.846Z" fill="#E6952A"/>
<path d="M134.42 126.367C134.269 127.03 133.993 127.661 133.658 128.257C133.323 128.855 132.898 129.403 132.409 129.889C131.923 130.378 131.341 130.773 130.717 131.063C130.101 131.379 129.407 131.492 128.738 131.553C128.901 131.503 129.063 131.455 129.225 131.411L129.466 131.344C129.546 131.318 129.622 131.281 129.699 131.25L130.163 131.066L130.603 130.835C131.176 130.511 131.719 130.128 132.181 129.655C132.654 129.195 133.069 128.676 133.445 128.126C133.631 127.85 133.806 127.564 133.965 127.269C134.136 126.979 134.279 126.675 134.42 126.367Z" fill="#E6952A"/>
<path d="M96.8177 108.578C96.7237 109.11 96.6926 109.642 96.6919 110.17C96.6954 110.698 96.7369 111.223 96.8393 111.738C96.9336 112.253 97.071 112.763 97.2661 113.252C97.4475 113.749 97.6955 114.218 97.9478 114.697C97.5927 114.293 97.2605 113.852 97.032 113.354C96.7812 112.867 96.6219 112.335 96.5175 111.797C96.4169 111.257 96.3883 110.704 96.4377 110.159C96.4817 109.615 96.6017 109.075 96.8177 108.578Z" fill="#E6952A"/>
<path d="M97.9475 111.41C97.9755 112.038 98.0509 112.633 98.2489 113.188C98.3397 113.468 98.4739 113.73 98.6327 113.979C98.7854 114.236 98.9916 114.454 99.1974 114.697C98.9133 114.566 98.6367 114.384 98.4296 114.134C98.2118 113.893 98.0465 113.603 97.9406 113.296C97.8363 112.988 97.7784 112.666 97.7803 112.345C97.7813 112.025 97.8268 111.704 97.9475 111.41Z" fill="#E6952A"/>
<path d="M143.654 145.697V145.667C143.654 145.196 143.389 144.765 142.969 144.553L134.613 140.067C134.433 139.977 134.215 140.028 134.094 140.189L130.985 142.504C130.857 142.674 130.622 142.721 130.44 142.611L128.399 141.386C128.123 141.219 127.771 141.419 127.771 141.742V145.697C127.771 145.927 127.957 146.113 128.186 146.113H143.239C143.468 146.113 143.654 145.927 143.654 145.697Z" fill="#F73C4F"/>
<path d="M117.882 145.697V145.667C117.882 145.196 117.617 144.765 117.197 144.553L108.841 140.067C108.662 139.977 108.443 140.028 108.322 140.189L105.214 142.504C105.086 142.674 104.851 142.721 104.668 142.611L102.628 141.386C102.351 141.219 101.999 141.419 101.999 141.742V145.697C101.999 145.927 102.185 146.113 102.415 146.113H117.468C117.696 146.113 117.882 145.927 117.882 145.697Z" fill="#F73C4F"/>
<path d="M128.453 80.4635L127.655 79.8209C127.398 79.5564 126.954 79.7278 126.935 80.0965C126.913 80.5073 126.953 81.0662 127.155 81.7676L127.498 83.0318L128.453 80.4635Z" fill="#F9977A"/>
<path d="M124.935 83.0972C125.143 82.7195 125.626 82.5892 126.022 82.7585L126.644 83.0239C126.962 83.1595 127.335 83.0117 127.474 82.6952L129.445 78.2013C129.515 78.0415 129.424 77.7839 129.274 77.5458C129.108 77.2829 128.711 77.3244 128.597 77.6138C128.519 77.8107 128.297 77.9072 128.1 77.8286L127.971 77.777C127.781 77.7009 127.685 77.4876 127.754 77.2945L128.209 76.0156L128.21 76.0162C128.256 75.8444 128.335 75.6746 128.636 75.5604C128.942 75.444 129.285 75.462 129.591 75.5796L130.951 76.1027C131.203 76.1992 131.402 76.3977 131.5 76.649C131.592 76.8859 131.587 77.1498 131.485 77.3823L128.379 84.463C128.272 84.7064 128.073 84.8974 127.826 84.9939C127.584 85.0883 127.314 85.0852 127.075 84.9845L125.336 84.2554C124.89 84.0682 124.696 83.5319 124.935 83.0972Z" fill="#4F66D0"/>
<path d="M131.936 85.6574C131.936 85.6574 132.613 81.9839 131.729 79.4058C131.625 79.1026 131.401 78.856 131.105 78.7318L130.264 78.3773C129.73 78.1521 129.112 78.3767 128.847 78.8925C128.748 79.0834 128.707 79.298 128.729 79.5115C128.815 80.3611 129.025 82.5922 128.899 82.752C128.899 82.752 128.419 83.5522 128.385 84.4512C128.367 84.9343 128.563 85.5278 128.84 85.8569L131.936 85.6574Z" fill="#F9977A"/>
<path d="M98.3187 136.361H85.6338V103.623H92.0267C95.5017 103.623 98.3187 105.778 98.3187 108.435V115.622V136.361Z" fill="#C0D6F2"/>
<path d="M48.7783 137.21C48.7783 137.21 41.1978 124.581 40.0098 121.41" stroke="#8B9D36" stroke-miterlimit="10"/>
<path d="M42.5555 114.786C42.218 115.589 42.0052 116.403 41.8295 117.221C41.6592 118.04 41.5379 118.863 41.4583 119.691C41.3788 120.518 41.343 121.349 41.3562 122.186C41.3741 123.022 41.4304 123.862 41.6123 124.715C41.9514 123.912 42.1648 123.097 42.3399 122.279C42.5102 121.461 42.6316 120.637 42.7092 119.81C42.7871 118.982 42.823 118.151 42.8098 117.315C42.7919 116.478 42.7362 115.638 42.5555 114.786Z" fill="#8B9D36"/>
<path d="M45.328 118.579C44.9198 119.327 44.6344 120.098 44.3858 120.876C44.1425 121.655 43.9474 122.443 43.794 123.239C43.6403 124.035 43.5297 124.84 43.4671 125.653C43.4096 126.468 43.3898 127.29 43.4942 128.136C43.904 127.389 44.19 126.618 44.438 125.84C44.6812 125.061 44.8764 124.273 45.0282 123.476C45.1803 122.68 45.2909 121.875 45.3532 121.061C45.4104 120.247 45.4305 119.425 45.328 118.579Z" fill="#8B9D36"/>
<path d="M46.8548 122.996C46.4925 123.694 46.2542 124.409 46.0528 125.13C45.8567 125.852 45.7096 126.58 45.604 127.315C45.4984 128.049 45.4361 128.79 45.4223 129.538C45.4135 130.286 45.4427 131.04 45.5974 131.812C45.9613 131.114 46.2002 130.398 46.401 129.677C46.5971 128.956 46.7442 128.227 46.8479 127.492C46.9519 126.758 47.0142 126.017 47.0277 125.269C47.0365 124.521 47.0073 123.767 46.8548 122.996Z" fill="#8B9D36"/>
<path d="M48.7786 127.404C48.4128 127.993 48.1705 128.603 47.9655 129.22C47.7653 129.838 47.6139 130.464 47.5039 131.097C47.3935 131.73 47.3266 132.371 47.3081 133.02C47.2942 133.67 47.3184 134.327 47.4671 135.005C47.8345 134.416 48.0774 133.806 48.282 133.189C48.4822 132.571 48.6337 131.945 48.7421 131.311C48.8506 130.678 48.9178 130.037 48.9361 129.388C48.9496 128.738 48.9257 128.081 48.7786 127.404Z" fill="#8B9D36"/>
<path d="M50.4754 130.159C50.0998 130.674 49.8421 131.211 49.6171 131.753C49.3968 132.297 49.2208 132.85 49.0775 133.408C48.9351 133.967 48.8282 134.532 48.7516 135.105C48.7164 135.393 48.684 135.679 48.6623 135.971C48.6299 136.26 48.6425 136.555 48.5674 136.858C48.6353 136.824 48.7022 136.777 48.7761 136.726L48.9455 136.556C49.0655 136.438 49.145 136.313 49.2418 136.185C49.4178 135.929 49.5674 135.662 49.6976 135.392C49.9578 134.849 50.1523 134.289 50.2953 133.718C50.4402 133.148 50.5348 132.567 50.5769 131.976C50.6137 131.384 50.609 130.783 50.4754 130.159Z" fill="#8B9D36"/>
<path d="M40.9072 123.358C40.3242 122.697 39.6702 122.176 38.9951 121.698C38.3172 121.225 37.6113 120.808 36.8815 120.437C36.1521 120.066 35.3975 119.744 34.6155 119.477C33.8307 119.215 33.0243 118.996 32.1465 118.919C32.7285 119.581 33.3823 120.102 34.0577 120.58C34.7359 121.053 35.4415 121.471 36.1722 121.84C36.9026 122.209 37.6569 122.531 38.4391 122.798C39.2239 123.059 40.03 123.278 40.9072 123.358Z" fill="#8B9D36"/>
<path d="M42.7858 126.869C42.0419 126.241 41.243 125.76 40.4274 125.324C39.6096 124.893 38.7702 124.52 37.9122 124.196C37.0545 123.872 36.177 123.6 35.2784 123.385C34.3777 123.176 33.4597 123.012 32.4863 122.996C33.2293 123.626 34.0282 124.107 34.8438 124.543C35.6616 124.974 36.501 125.347 37.3596 125.669C38.2183 125.99 39.0954 126.263 39.9943 126.478C40.8954 126.686 41.8131 126.851 42.7858 126.869Z" fill="#8B9D36"/>
<path d="M44.9964 130.771C44.3313 130.162 43.6094 129.699 42.8705 129.28C42.1291 128.866 41.3654 128.51 40.5825 128.203C39.7997 127.896 38.997 127.641 38.172 127.442C37.3448 127.249 36.5 127.101 35.5977 127.1C36.2617 127.712 36.9837 128.175 37.7229 128.594C38.4643 129.007 39.228 129.363 40.0118 129.668C40.7953 129.973 41.598 130.229 42.4233 130.428C43.2505 130.62 44.095 130.769 44.9964 130.771Z" fill="#8B9D36"/>
<path d="M46.7438 133.775C46.1573 133.25 45.5241 132.875 44.8766 132.545C44.2273 132.22 43.5598 131.955 42.8762 131.74C42.1929 131.524 41.493 131.361 40.7749 131.257C40.0549 131.158 39.3207 131.106 38.5391 131.204C39.1249 131.731 39.7579 132.107 40.4056 132.437C41.0549 132.761 41.7225 133.027 42.4067 133.24C43.0905 133.454 43.7905 133.617 44.5086 133.721C45.2286 133.819 45.9628 133.872 46.7438 133.775Z" fill="#8B9D36"/>
<path d="M48.1224 136.471C47.486 135.84 46.7873 135.353 46.0701 134.91C45.3501 134.472 44.6059 134.091 43.8406 133.759C43.0753 133.426 42.2883 133.143 41.4768 132.917C40.6631 132.697 39.8303 132.52 38.9346 132.49C39.5701 133.122 40.2684 133.609 40.9859 134.052C41.7059 134.49 42.4502 134.871 43.2164 135.202C43.9823 135.532 44.7693 135.815 45.5808 136.041C46.3948 136.261 47.2273 136.438 48.1224 136.471Z" fill="#8B9D36"/>
<path d="M40.2967 121.863C40.4365 120.96 40.363 120.14 40.2354 119.341C40.0974 118.546 39.8806 117.782 39.5933 117.046C39.3073 116.309 38.9487 115.601 38.5109 114.923C38.0631 114.25 37.5602 113.598 36.8417 113.031C36.6991 113.935 36.772 114.755 36.9002 115.554C37.0382 116.349 37.2557 117.113 37.5451 117.848C37.8333 118.584 38.1929 119.292 38.6304 119.969C39.0785 120.643 39.5807 121.295 40.2967 121.863Z" fill="#8B9D36"/>
<path d="M49.9546 137.803C49.9546 137.803 49.6151 116.798 45.542 110.344" stroke="#50661A" stroke-miterlimit="10"/>
<path d="M46.8436 113.154C46.7006 112.184 46.7044 111.247 46.7493 110.317C46.7996 109.389 46.9068 108.473 47.0557 107.566C47.2025 106.658 47.4021 105.76 47.6369 104.869C47.8713 103.972 48.1674 103.11 48.4839 102.19C48.57 102.416 48.6448 102.659 48.6866 102.896C48.7397 103.135 48.7727 103.375 48.7975 103.612C48.8522 104.091 48.8629 104.563 48.8613 105.035C48.8519 105.977 48.7567 106.905 48.6055 107.823C48.4534 108.741 48.2387 109.645 47.9609 110.538C47.6765 111.428 47.3399 112.308 46.8436 113.154Z" fill="#50661A"/>
<path d="M41.8654 100.322C42.6178 101.022 43.1549 101.802 43.6383 102.602C44.1113 103.406 44.5035 104.24 44.8266 105.101C45.15 105.961 45.4014 106.848 45.5724 107.765C45.7336 108.686 45.8389 109.628 45.728 110.651C44.9734 109.952 44.435 109.172 43.9523 108.372C43.4796 107.568 43.087 106.733 42.7668 105.872C42.4459 105.011 42.1945 104.124 42.0238 103.206C41.8632 102.285 41.757 101.344 41.8654 100.322Z" fill="#50661A"/>
<path d="M38.5273 105.487C39.3869 106.16 40.1355 106.894 40.8622 107.64C41.5838 108.388 42.2724 109.154 42.9459 109.923L44.9476 112.222C45.2832 112.599 45.6227 112.97 45.9813 113.321C46.3443 113.671 46.7095 114.004 47.2026 114.244C46.9361 114.293 46.6394 114.287 46.3666 114.223C46.0853 114.173 45.8197 114.076 45.5611 113.97C45.045 113.751 44.5726 113.461 44.1267 113.147C43.2404 112.509 42.4644 111.76 41.7639 110.959C41.0633 110.157 40.4382 109.298 39.8863 108.392C39.3404 107.482 38.8526 106.532 38.5273 105.487Z" fill="#50661A"/>
<path d="M38.5273 110.651C39.5752 111.157 40.5183 111.78 41.4298 112.438C42.3371 113.1 43.2033 113.809 44.0339 114.556C44.8649 115.303 45.6591 116.091 46.4121 116.925C47.1614 117.763 47.8783 118.637 48.4893 119.629C47.4399 119.124 46.4964 118.502 45.5853 117.844C44.6779 117.181 43.8117 116.473 42.9827 115.724C42.1529 114.975 41.3587 114.187 40.6057 113.353C39.8568 112.515 39.1396 111.641 38.5273 110.651Z" fill="#50661A"/>
<path d="M38.8672 114.703C39.9226 115.177 40.8764 115.771 41.7995 116.4C42.7184 117.035 43.5975 117.716 44.4423 118.437C45.2871 119.158 46.0964 119.92 46.8658 120.73C47.6314 121.544 48.3652 122.395 48.9969 123.366C47.94 122.893 46.9858 122.3 46.0631 121.67C45.1441 121.036 44.265 120.355 43.4218 119.632C42.5783 118.91 41.769 118.147 40.9996 117.337C40.2343 116.523 39.4998 115.673 38.8672 114.703Z" fill="#50661A"/>
<path d="M39.0938 119.034C40.1447 119.413 41.102 119.918 42.0311 120.461C42.9563 121.008 43.8448 121.605 44.7015 122.244C45.5586 122.883 46.3827 123.566 47.1699 124.298C47.9541 125.035 48.7087 125.811 49.3693 126.714C48.3171 126.336 47.3595 125.832 46.4307 125.289C45.5055 124.742 44.617 124.145 43.7615 123.504C42.9057 122.863 42.0817 122.181 41.2944 121.448C40.5106 120.711 39.7553 119.935 39.0938 119.034Z" fill="#50661A"/>
<path d="M38.8672 122.177C39.9644 122.601 40.9666 123.151 41.9403 123.738C42.9102 124.331 43.843 124.972 44.7437 125.656C45.6448 126.339 46.5125 127.066 47.3432 127.842C48.1704 128.622 48.968 129.441 49.6704 130.387C48.572 129.964 47.5694 129.414 46.5961 128.827C45.6262 128.235 44.6934 127.593 43.7936 126.908C42.8938 126.223 42.0258 125.496 41.1954 124.72C40.3688 123.939 39.5706 123.12 38.8672 122.177Z" fill="#50661A"/>
<path d="M38.0752 125.121C39.217 125.635 40.2636 126.256 41.2875 126.905C42.3074 127.559 43.2942 128.249 44.2563 128.971C45.2211 129.687 46.1593 130.434 47.0807 131.207C48.0117 131.972 48.8913 132.77 49.8546 133.559C49.2352 133.469 48.6295 133.268 48.056 133.034C47.4789 132.799 46.9293 132.52 46.3859 132.229C45.3123 131.632 44.2921 130.958 43.3162 130.23C42.3432 129.499 41.4117 128.715 40.5276 127.875C39.6479 127.03 38.8059 126.139 38.0752 125.121Z" fill="#50661A"/>
<path d="M37.1133 128.178C38.3425 128.639 39.4839 129.221 40.6015 129.837C41.7154 130.458 42.7965 131.125 43.8528 131.827C44.9091 132.529 45.9387 133.269 46.9457 134.041C47.4483 134.429 47.9461 134.823 48.4389 135.226C48.9408 135.618 49.3981 136.069 49.9547 136.388C49.6184 136.414 49.2897 136.305 48.9747 136.219C48.6589 136.125 48.3525 136.011 48.0492 135.893C47.4445 135.653 46.8599 135.378 46.287 135.087C45.1427 134.5 44.0445 133.844 42.9829 133.136C41.9209 132.428 40.8948 131.668 39.9073 130.855C38.9242 130.036 37.9707 129.173 37.1133 128.178Z" fill="#50661A"/>
<path d="M47.8184 116.751C47.8558 115.701 48.0402 114.704 48.2694 113.723C48.5041 112.745 48.7967 111.788 49.139 110.849C49.4809 109.909 49.8744 108.989 50.3254 108.09C50.7821 107.193 51.284 106.313 51.9346 105.486C51.899 106.538 51.7152 107.535 51.4858 108.515C51.2507 109.493 50.9584 110.45 50.6142 111.388C50.2704 112.327 49.8769 113.247 49.4256 114.146C48.9686 115.043 48.467 115.924 47.8184 116.751Z" fill="#50661A"/>
<path d="M48.4893 120.286C48.6722 119.24 48.994 118.267 49.3576 117.315C49.7266 116.367 50.1499 115.447 50.6204 114.552C51.0903 113.657 51.6089 112.787 52.1818 111.947C52.7598 111.108 53.3805 110.293 54.1414 109.551C53.96 110.598 53.6388 111.572 53.2752 112.523C52.9059 113.472 52.4826 114.391 52.0105 115.285C51.5388 116.179 51.0202 117.049 50.4473 117.89C49.8683 118.728 49.2479 119.544 48.4893 120.286Z" fill="#50661A"/>
<path d="M48.9971 123.705C49.3211 122.644 49.7749 121.67 50.268 120.722C50.7662 119.778 51.3156 118.869 51.9083 117.989C52.501 117.109 53.1394 116.26 53.8283 115.446C54.5222 114.634 55.2561 113.85 56.1213 113.154C55.7988 114.217 55.3456 115.191 54.8519 116.138C54.3538 117.082 53.8044 117.991 53.2098 118.87C52.6154 119.749 51.9771 120.598 51.2879 121.413C50.5943 122.224 49.8607 123.009 48.9971 123.705Z" fill="#50661A"/>
<path d="M49.3691 127.477C49.883 126.334 50.5175 125.29 51.1889 124.276C51.8652 123.266 52.589 122.295 53.3537 121.357C54.118 120.419 54.9251 119.516 55.7796 118.652C56.6386 117.791 57.5352 116.961 58.5541 116.232C58.0425 117.376 57.4079 118.421 56.7363 119.434C56.06 120.444 55.3362 121.416 54.5699 122.352C53.8037 123.289 52.9969 124.192 52.1421 125.056C51.2822 125.916 50.3862 126.746 49.3691 127.477Z" fill="#50661A"/>
<path d="M49.6709 131.389C50.3048 130.3 51.0487 129.323 51.8256 128.379C52.6073 127.44 53.4323 126.545 54.2947 125.687C55.1564 124.829 56.0572 124.009 57.0013 123.234C57.9495 122.463 58.9316 121.726 60.025 121.101C59.393 122.191 58.6494 123.168 57.8719 124.112C57.0902 125.051 56.2652 125.946 55.4016 126.803C54.5379 127.659 53.6375 128.478 52.6934 129.254C51.7446 130.025 50.763 130.762 49.6709 131.389Z" fill="#50661A"/>
<path d="M49.8545 133.897C50.5623 132.953 51.3646 132.134 52.1956 131.353C53.03 130.577 53.9019 129.849 54.8054 129.165C55.7087 128.48 56.6453 127.838 57.6189 127.246C58.596 126.659 59.6024 126.11 60.7039 125.687C59.9971 126.633 59.1954 127.452 58.3641 128.233C57.5294 129.009 56.6578 129.736 55.753 130.419C54.8485 131.103 53.9119 131.744 52.9383 132.336C51.9605 132.923 50.9548 133.472 49.8545 133.897Z" fill="#50661A"/>
<path d="M49.9551 135.991C50.8071 135.128 51.7368 134.401 52.69 133.716C53.6464 133.035 54.6332 132.408 55.6465 131.827C56.6594 131.246 57.6997 130.712 58.7705 130.232C59.8441 129.756 60.9419 129.323 62.1179 129.027C61.2668 129.892 60.3375 130.62 59.384 131.305C58.4276 131.985 57.4407 132.613 56.4265 133.192C55.4123 133.771 54.372 134.305 53.3016 134.785C52.2277 135.26 51.1302 135.694 49.9551 135.991Z" fill="#50661A"/>
<path d="M49.877 137.35C50.9018 136.623 51.9811 136.042 53.0767 135.506C54.1745 134.975 55.294 134.503 56.4314 134.08C57.5688 133.656 58.7254 133.284 59.9033 132.97C61.0834 132.662 62.2802 132.398 63.532 132.283C62.5078 133.013 61.4288 133.594 60.3329 134.13C59.2348 134.66 58.1156 135.133 56.9773 135.554C55.839 135.976 54.6824 136.347 53.5044 136.662C52.3246 136.969 51.1281 137.233 49.877 137.35Z" fill="#50661A"/>
<path d="M50.3076 137.211C50.3076 137.211 57.8882 124.581 59.0762 121.41" stroke="#5E7C24" stroke-miterlimit="10"/>
<path d="M56.5304 114.786C56.8679 115.589 57.0807 116.403 57.2564 117.221C57.4267 118.04 57.548 118.863 57.6275 119.691C57.7071 120.518 57.7429 121.349 57.7297 122.186C57.7118 123.022 57.6555 123.862 57.4735 124.715C57.1344 123.912 56.921 123.097 56.746 122.279C56.5756 121.461 56.4543 120.637 56.3767 119.81C56.2987 118.982 56.2629 118.151 56.2761 117.315C56.294 116.478 56.35 115.638 56.5304 114.786Z" fill="#5E7C24"/>
<path d="M53.758 118.579C54.1663 119.327 54.4516 120.098 54.7002 120.876C54.9435 121.655 55.1387 122.443 55.292 123.239C55.4457 124.035 55.5563 124.84 55.6189 125.653C55.6764 126.468 55.6962 127.29 55.5919 128.136C55.182 127.389 54.896 126.618 54.6481 125.84C54.4048 125.061 54.2096 124.273 54.0578 123.476C53.9057 122.68 53.7951 121.875 53.7329 121.061C53.6757 120.247 53.6555 119.425 53.758 118.579Z" fill="#5E7C24"/>
<path d="M52.2309 122.996C52.5933 123.694 52.8315 124.409 53.033 125.13C53.2291 125.852 53.3762 126.58 53.4818 127.315C53.5874 128.049 53.6496 128.79 53.6634 129.538C53.6722 130.286 53.643 131.04 53.4884 131.812C53.1244 131.114 52.8856 130.398 52.6848 129.677C52.4886 128.956 52.3416 128.227 52.2378 127.492C52.1338 126.758 52.0716 126.017 52.0581 125.269C52.0493 124.521 52.0782 123.767 52.2309 122.996Z" fill="#5E7C24"/>
<path d="M50.3083 127.404C50.6741 127.993 50.9165 128.603 51.1214 129.22C51.3216 129.838 51.4731 130.464 51.5831 131.097C51.6934 131.73 51.7603 132.371 51.7789 133.02C51.7927 133.67 51.7685 134.327 51.6198 135.005C51.2524 134.416 51.0095 133.806 50.8049 133.189C50.6047 132.571 50.4532 131.945 50.3448 131.311C50.2363 130.678 50.1691 130.037 50.1509 129.388C50.137 128.738 50.1609 128.081 50.3083 127.404Z" fill="#5E7C24"/>
<path d="M48.6107 130.159C48.9863 130.674 49.244 131.211 49.469 131.753C49.6893 132.297 49.8653 132.85 50.0086 133.408C50.151 133.967 50.2579 134.532 50.3345 135.105C50.3697 135.393 50.4021 135.679 50.4238 135.971C50.4562 136.26 50.4436 136.555 50.5187 136.858C50.4508 136.824 50.3839 136.777 50.31 136.726L50.1406 136.556C50.0206 136.438 49.9411 136.313 49.8443 136.185C49.6683 135.929 49.5187 135.662 49.3885 135.392C49.1283 134.849 48.9338 134.289 48.7908 133.718C48.6459 133.148 48.5513 132.567 48.5092 131.976C48.4721 131.384 48.4768 130.783 48.6107 130.159Z" fill="#5E7C24"/>
<path d="M58.1787 123.358C58.7617 122.697 59.4157 122.176 60.0908 121.698C60.7687 121.225 61.4746 120.808 62.2044 120.437C62.9339 120.066 63.6885 119.744 64.4704 119.477C65.2552 119.215 66.0616 118.996 66.9394 118.919C66.3574 119.581 65.7037 120.102 65.0283 120.58C64.35 121.053 63.6445 121.471 62.9137 121.84C62.1833 122.209 61.4291 122.531 60.6468 122.798C59.862 123.059 59.0559 123.278 58.1787 123.358Z" fill="#5E7C24"/>
<path d="M56.3008 126.869C57.0447 126.241 57.8436 125.76 58.6592 125.324C59.477 124.893 60.3164 124.52 61.1744 124.196C62.0321 123.872 62.9096 123.6 63.8081 123.385C64.7089 123.176 65.6269 123.012 66.6002 122.996C65.8573 123.626 65.0584 124.107 64.2428 124.543C63.425 124.974 62.5856 125.347 61.7269 125.669C60.8683 125.99 59.9911 126.263 59.0923 126.478C58.1915 126.686 57.2738 126.851 56.3008 126.869Z" fill="#5E7C24"/>
<path d="M54.0898 130.771C54.7549 130.162 55.4768 129.699 56.2157 129.28C56.9571 128.866 57.7208 128.51 58.5037 128.203C59.2866 127.896 60.0892 127.641 60.9142 127.442C61.7414 127.249 62.5862 127.101 63.4886 127.1C62.8245 127.712 62.1026 128.175 61.3634 128.594C60.622 129.007 59.8582 129.363 59.0744 129.668C58.2909 129.973 57.4882 130.229 56.6629 130.428C55.8357 130.62 54.9912 130.769 54.0898 130.771Z" fill="#5E7C24"/>
<path d="M52.3428 133.775C52.9292 133.25 53.5625 132.875 54.2099 132.545C54.8593 132.22 55.5268 131.955 56.2104 131.74C56.8936 131.524 57.5935 131.361 58.3117 131.257C59.0317 131.158 59.7659 131.106 60.5475 131.204C59.9617 131.731 59.3287 132.107 58.681 132.437C58.0317 132.761 57.3641 133.027 56.6799 133.24C55.996 133.454 55.2961 133.617 54.578 133.721C53.8579 133.819 53.1238 133.872 52.3428 133.775Z" fill="#5E7C24"/>
<path d="M50.9629 136.471C51.5993 135.84 52.298 135.353 53.0152 134.91C53.7352 134.472 54.4794 134.091 55.2447 133.759C56.01 133.426 56.797 133.143 57.6085 132.917C58.4221 132.697 59.255 132.52 60.1507 132.49C59.5152 133.122 58.8169 133.609 58.0994 134.052C57.3793 134.49 56.6351 134.871 55.8689 135.202C55.103 135.532 54.316 135.815 53.5045 136.041C52.6908 136.261 51.858 136.438 50.9629 136.471Z" fill="#5E7C24"/>
<path d="M58.7896 121.863C58.6497 120.96 58.7233 120.14 58.8509 119.341C58.9889 118.546 59.2057 117.782 59.493 117.046C59.779 116.309 60.1376 115.601 60.5754 114.923C61.0232 114.25 61.5261 113.598 62.2445 113.031C62.3872 113.935 62.3143 114.755 62.1861 115.554C62.0481 116.349 61.8306 117.113 61.5412 117.848C61.253 118.584 60.8934 119.292 60.4559 119.969C60.0078 120.643 59.5055 121.295 58.7896 121.863Z" fill="#5E7C24"/>
<path d="M52.2079 146.155H46.5285L44.7012 136.454C44.6563 136.215 44.837 135.995 45.0771 135.995H53.659C53.8991 135.995 54.0798 136.215 54.0349 136.454L52.2079 146.155Z" fill="#935B50"/>
<path d="M53.9029 137.155L54.0349 136.454C54.0798 136.215 53.8991 135.995 53.659 135.995H45.0771C44.837 135.995 44.6563 136.215 44.7012 136.454L44.8332 137.155H53.9029Z" fill="#D6694B"/>
<path d="M46.9819 143.408L45.7822 142.196L46.9819 140.984L48.1818 142.196L46.9819 143.408Z" fill="#D6694B"/>
<path d="M49.3813 143.408L48.1816 142.196L49.3813 140.984L50.5812 142.196L49.3813 143.408Z" fill="#D6694B"/>
<path d="M51.7533 143.408L50.5537 142.196L51.7533 140.984L52.9533 142.196L51.7533 143.408Z" fill="#D6694B"/>
<path d="M137.591 103.574H150.595C151.479 103.574 152.016 102.598 151.543 101.851L148.474 96.9932C148.269 96.6677 147.911 96.4705 147.526 96.4705H140.66C140.276 96.4705 139.918 96.6677 139.712 96.9932L136.643 101.851C136.171 102.598 136.708 103.574 137.591 103.574Z" fill="#4F66D0"/>
<path d="M144.094 101.944C145.154 101.944 146.014 101.084 146.014 100.022C146.014 98.9611 145.154 98.1008 144.094 98.1008C143.033 98.1008 142.174 98.9611 142.174 100.022C142.174 101.084 143.033 101.944 144.094 101.944Z" fill="#8795DE"/>
<path d="M141.71 100.022C141.71 101.34 142.777 102.408 144.093 102.408C145.41 102.408 146.477 101.34 146.477 100.022C146.477 98.7048 145.41 97.637 144.093 97.637C142.777 97.637 141.71 98.7048 141.71 100.022Z" stroke="#8795DE" stroke-linecap="round" stroke-linejoin="round" stroke-dasharray="2.38 2.38"/>
<path d="M144.094 96.4705V94.9978" stroke="#4F66D0" stroke-width="2" stroke-miterlimit="10" stroke-linecap="round" stroke-linejoin="round"/>
<path d="M146.685 94.9978H141.502" stroke="#4F66D0" stroke-width="2" stroke-miterlimit="10" stroke-linecap="round" stroke-linejoin="round"/>
<path d="M126.67 83.8987C125.702 84.7354 123.294 87.0545 122.521 90.8438C122.282 92.018 121.393 96.3767 124.256 99.6763C125.688 101.327 128.612 103.35 131.045 102.545C133.746 101.651 133.778 97.9526 136.702 97.1851C138.066 96.8268 139.375 97.2864 140.247 97.7135" stroke="#4F66D0" stroke-width="1.1899" stroke-miterlimit="10" stroke-linecap="round" stroke-linejoin="round" stroke-dasharray="2.38 2.38"/>
<path d="M31.4287 146.351H188.572" stroke="#935B50" stroke-width="2" stroke-miterlimit="10"/>
</svg>
