<svg width="1218" height="908" viewBox="0 0 1218 908" fill="none" xmlns="http://www.w3.org/2000/svg">
<path d="M1217.39 797.148H0V797.757H1217.39V797.148Z" fill="#EBEBEB"/>
<path d="M1095.41 836.324H1014.77V836.932H1095.41V836.324Z" fill="#EBEBEB"/>
<path d="M806.449 842.946H785.291V843.555H806.449V842.946Z" fill="#EBEBEB"/>
<path d="M1012.33 813.729H965.61V814.338H1012.33V813.729Z" fill="#EBEBEB"/>
<path d="M232.887 817.819H127.729V818.428H232.887V817.819Z" fill="#EBEBEB"/>
<path d="M269.993 817.819H254.581V818.428H269.993V817.819Z" fill="#EBEBEB"/>
<path d="M548.191 828.094H320.101V828.703H548.191V828.094Z" fill="#EBEBEB"/>
<path d="M577.044 688.557H106.911C103.228 688.55 99.6986 687.083 97.0966 684.476C94.4946 681.87 93.0332 678.337 93.0332 674.654V13.7809C93.0653 10.119 94.5408 6.61769 97.1393 4.0374C99.7378 1.45712 103.249 0.00627295 106.911 0H577.044C580.731 0 584.267 1.46474 586.874 4.07198C589.482 6.67923 590.946 10.2154 590.946 13.9026V674.654C590.946 678.341 589.482 681.878 586.874 684.485C584.267 687.092 580.731 688.557 577.044 688.557V688.557ZM106.911 0.486959C103.39 0.493408 100.015 1.89685 97.527 4.38925C95.0392 6.88164 93.6419 10.2593 93.6419 13.7809V674.654C93.6419 678.176 95.0392 681.553 97.527 684.046C100.015 686.538 103.39 687.942 106.911 687.948H577.044C580.568 687.942 583.945 686.539 586.437 684.047C588.929 681.556 590.331 678.178 590.338 674.654V13.7809C590.331 10.2571 588.929 6.87946 586.437 4.38776C583.945 1.89606 580.568 0.493395 577.044 0.486959H106.911Z" fill="#EBEBEB"/>
<path d="M1103.71 688.557H633.555C629.87 688.55 626.337 687.084 623.731 684.478C621.126 681.872 619.659 678.339 619.652 674.654V13.7809C619.691 10.1168 621.172 6.61549 623.774 4.03588C626.377 1.45627 629.891 0.00620453 633.555 0H1103.71C1107.37 0.0126718 1110.87 1.46635 1113.47 4.04595C1116.06 6.62555 1117.53 10.1232 1117.57 13.7809V674.654C1117.57 678.333 1116.11 681.862 1113.51 684.468C1110.91 687.073 1107.39 688.544 1103.71 688.557V688.557ZM633.555 0.486959C630.031 0.493395 626.654 1.89606 624.162 4.38776C621.67 6.87946 620.267 10.2571 620.261 13.7809V674.654C620.267 678.178 621.67 681.556 624.162 684.047C626.654 686.539 630.031 687.942 633.555 687.948H1103.71C1107.24 687.942 1110.61 686.539 1113.1 684.047C1115.6 681.556 1117 678.178 1117.01 674.654V13.7809C1117 10.2571 1115.6 6.87946 1113.1 4.38776C1110.61 1.89606 1107.24 0.493395 1103.71 0.486959H633.555Z" fill="#EBEBEB"/>
<path d="M406.17 97.0748H239.339V565.527H406.17V97.0748Z" fill="#FAFAFA"/>
<path d="M381.336 97.0748H371.572L313.405 565.527H323.144L381.336 97.0748Z" fill="#F5F5F5"/>
<path d="M403.224 99.2418H238.292V104.233H403.224V99.2418Z" fill="#E0E0E0"/>
<path d="M403.224 560.56H238.292V571.225H403.224V560.56Z" fill="#EBEBEB"/>
<path d="M400.474 570.762H244.623V571.225H400.474V570.762Z" fill="#EBEBEB"/>
<path d="M244.623 99.2661H400.474V570.762H409.799V92.2539H235.298V570.762H244.623V99.2661Z" fill="#EBEBEB"/>
<path d="M591.823 97.0748H424.991V565.527H591.823V97.0748Z" fill="#FAFAFA"/>
<path d="M545.538 97.0748H492.338L434.171 565.527H487.347L545.538 97.0748Z" fill="#F5F5F5"/>
<path d="M593.527 99.2418H423.92V104.233H593.527V99.2418Z" fill="#E0E0E0"/>
<path d="M593.527 560.56H423.92V571.225H593.527V560.56Z" fill="#EBEBEB"/>
<path d="M586.101 570.762H430.251V571.225H586.101V570.762Z" fill="#EBEBEB"/>
<path d="M430.251 99.2661H586.101V570.762H595.451V92.2539H420.926V570.762H430.251V99.2661Z" fill="#EBEBEB"/>
<path d="M772.751 97.0748H610.619V565.527H772.751V97.0748Z" fill="#FAFAFA"/>
<path d="M702.483 97.0748H692.72L634.553 565.527H644.292L702.483 97.0748Z" fill="#F5F5F5"/>
<path d="M774.48 99.2418H609.548V104.233H774.48V99.2418Z" fill="#E0E0E0"/>
<path d="M774.48 560.56H609.548V571.225H774.48V560.56Z" fill="#EBEBEB"/>
<path d="M771.729 570.762H615.879V571.225H771.729V570.762Z" fill="#EBEBEB"/>
<path d="M615.878 99.2661H771.728V570.762H781.078V92.2539H606.553V570.762H615.878V99.2661Z" fill="#EBEBEB"/>
<path d="M963.078 97.0748H796.247V565.527H963.078V97.0748Z" fill="#FAFAFA"/>
<path d="M946.741 97.0748H893.565L835.374 565.527H888.55L946.741 97.0748Z" fill="#F5F5F5"/>
<path d="M960.108 99.2418H795.176V104.233H960.108V99.2418Z" fill="#E0E0E0"/>
<path d="M960.108 560.56H795.176V571.225H960.108V560.56Z" fill="#EBEBEB"/>
<path d="M801.53 99.2661H957.381V570.762H966.706V92.2539H792.181V570.762H801.53V99.2661Z" fill="#EBEBEB"/>
<path d="M957.382 570.762H801.531V571.225H957.382V570.762Z" fill="#EBEBEB"/>
<path d="M366.265 435.364H293.83V560.585H366.265V435.364Z" fill="#EBEBEB"/>
<path d="M352.362 417.858V449.266H346.64H313.454H307.757V417.858H352.362Z" fill="#EBEBEB"/>
<path d="M352.338 449.266H361.614V439.99H352.338V449.266Z" fill="#FAFAFA"/>
<path d="M334.393 449.266H343.67V439.99H334.393V449.266Z" fill="#FAFAFA"/>
<path d="M316.449 449.266H325.726V439.99H316.449V449.266Z" fill="#FAFAFA"/>
<path d="M298.456 449.266H307.732V439.99H298.456V449.266Z" fill="#F0F0F0"/>
<path d="M352.338 466.115H361.614V456.838H352.338V466.115Z" fill="#F0F0F0"/>
<path d="M334.393 466.115H343.67V456.838H334.393V466.115Z" fill="#F0F0F0"/>
<path d="M316.449 466.115H325.726V456.838H316.449V466.115Z" fill="#FAFAFA"/>
<path d="M298.456 466.115H307.732V456.838H298.456V466.115Z" fill="#FAFAFA"/>
<path d="M352.338 482.939H361.614V473.663H352.338V482.939Z" fill="#F0F0F0"/>
<path d="M334.393 482.939H343.67V473.663H334.393V482.939Z" fill="#FAFAFA"/>
<path d="M316.449 482.939H325.726V473.663H316.449V482.939Z" fill="#FAFAFA"/>
<path d="M334.393 434.706H343.67V425.43H334.393V434.706Z" fill="#FAFAFA"/>
<path d="M316.449 434.706H325.726V425.43H316.449V434.706Z" fill="#F0F0F0"/>
<path d="M298.456 482.939H307.732V473.663H298.456V482.939Z" fill="#F0F0F0"/>
<path d="M352.338 499.788H361.614V490.511H352.338V499.788Z" fill="#FAFAFA"/>
<path d="M334.393 499.788H343.67V490.511H334.393V499.788Z" fill="#F0F0F0"/>
<path d="M316.449 499.788H325.726V490.511H316.449V499.788Z" fill="#F0F0F0"/>
<path d="M298.456 499.788H307.732V490.511H298.456V499.788Z" fill="#FAFAFA"/>
<path d="M352.338 516.637H361.614V507.36H352.338V516.637Z" fill="#F0F0F0"/>
<path d="M334.393 516.637H343.67V507.36H334.393V516.637Z" fill="#FAFAFA"/>
<path d="M316.449 516.637H325.726V507.36H316.449V516.637Z" fill="#FAFAFA"/>
<path d="M298.456 516.637H307.732V507.36H298.456V516.637Z" fill="#F0F0F0"/>
<path d="M352.338 533.485H361.614V524.209H352.338V533.485Z" fill="#F0F0F0"/>
<path d="M334.393 533.485H343.67V524.209H334.393V533.485Z" fill="#FAFAFA"/>
<path d="M316.449 533.485H325.726V524.209H316.449V533.485Z" fill="#F0F0F0"/>
<path d="M298.456 533.485H307.732V524.209H298.456V533.485Z" fill="#FAFAFA"/>
<path d="M352.338 550.334H361.614V541.058H352.338V550.334Z" fill="#FAFAFA"/>
<path d="M334.393 550.334H343.67V541.058H334.393V550.334Z" fill="#FAFAFA"/>
<path d="M316.449 550.334H325.726V541.058H316.449V550.334Z" fill="#F0F0F0"/>
<path d="M298.456 550.334H307.732V541.058H298.456V550.334Z" fill="#F0F0F0"/>
<path d="M876.401 480.967H811.514V560.585H876.401V480.967Z" fill="#F0F0F0"/>
<path d="M817.162 489.805H832.258H836.421H840.56V498.108H836.421H832.258H817.162V489.805Z" fill="#E6E6E6"/>
<path d="M817.162 505.899H832.258H836.421H840.56V514.202H836.421H832.258H817.162V505.899Z" fill="#FAFAFA"/>
<path d="M817.162 521.969H832.258H836.421H840.56V530.296H836.421H832.258H817.162V521.969Z" fill="#E6E6E6"/>
<path d="M817.162 538.063H832.258H838.686H840.56V546.365H838.686H832.258H817.162V538.063Z" fill="#FAFAFA"/>
<path d="M847.354 489.805H862.449H866.588H870.752V498.108H866.588H862.449H847.354V489.805Z" fill="#FAFAFA"/>
<path d="M847.354 505.899H862.449H868.293H870.752V514.202H868.293H862.449H847.354V505.899Z" fill="#FAFAFA"/>
<path d="M847.354 521.969H862.449H866.588H870.752V530.296H866.588H862.449H847.354V521.969Z" fill="#E6E6E6"/>
<path d="M847.354 538.063H862.449H866.588H870.752V546.365H866.588H862.449H847.354V538.063Z" fill="#FAFAFA"/>
<path d="M563.774 511.11H504.828V560.585H563.774V511.11Z" fill="#F0F0F0"/>
<path d="M552.477 524.842H560.024V517.294H552.477V524.842Z" fill="#FAFAFA"/>
<path d="M537.844 524.842H545.392V517.294H537.844V524.842Z" fill="#FAFAFA"/>
<path d="M523.211 524.842H530.759V517.294H523.211V524.842Z" fill="#FAFAFA"/>
<path d="M508.602 524.842H516.149V517.294H508.602V524.842Z" fill="#FAFAFA"/>
<path d="M552.477 538.525H560.024V530.978H552.477V538.525Z" fill="#FAFAFA"/>
<path d="M537.844 538.525H545.392V530.978H537.844V538.525Z" fill="#FAFAFA"/>
<path d="M523.211 538.525H530.759V530.978H523.211V538.525Z" fill="#FAFAFA"/>
<path d="M508.602 538.525H516.149V530.978H508.602V538.525Z" fill="#E6E6E6"/>
<path d="M552.477 552.258H560.024V544.71H552.477V552.258Z" fill="#E6E6E6"/>
<path d="M537.844 552.258H545.392V544.71H537.844V552.258Z" fill="#E6E6E6"/>
<path d="M523.211 552.258H530.759V544.71H523.211V552.258Z" fill="#FAFAFA"/>
<path d="M508.602 552.258H516.149V544.71H508.602V552.258Z" fill="#E6E6E6"/>
<path d="M496.842 474.539H437.896V560.585H496.842V474.539Z" fill="#F0F0F0"/>
<path d="M493.068 478.313H470.911V499.569H493.068V478.313Z" fill="#FAFAFA"/>
<path d="M463.826 478.313H441.67V499.569H463.826V478.313Z" fill="#FAFAFA"/>
<path d="M493.068 505.729H470.911V526.985H493.068V505.729Z" fill="#FAFAFA"/>
<path d="M463.826 505.729H441.67V526.985H463.826V505.729Z" fill="#FAFAFA"/>
<path d="M493.068 533.169H470.911V554.424H493.068V533.169Z" fill="#FAFAFA"/>
<path d="M463.826 533.169H441.67V554.424H463.826V533.169Z" fill="#FAFAFA"/>
<path d="M792.254 781.371H740.174L767.59 558.052C768.266 553.402 770.565 549.14 774.081 546.021C777.596 542.902 782.102 541.127 786.8 541.009H1014.33L980.95 781.444L792.254 781.371Z" fill="#F5F5F5"/>
<path d="M957.674 781.371H1009.85L1037.22 558.052C1037.54 555.912 1037.39 553.728 1036.77 551.652C1036.16 549.577 1035.1 547.66 1033.67 546.037C1032.24 544.413 1030.47 543.122 1028.49 542.254C1026.51 541.385 1024.36 540.96 1022.2 541.009H1004.28C999.576 541.122 995.068 542.895 991.552 546.015C988.035 549.135 985.737 553.4 985.065 558.052L957.674 781.371Z" fill="#F0F0F0"/>
<path d="M938.463 781.103L947.91 673.096C948.118 670.753 949.119 668.552 950.748 666.856C952.378 665.161 954.537 664.072 956.87 663.771L960.765 663.284C963.889 662.88 966.782 661.422 968.965 659.151C971.148 656.879 972.49 653.931 972.769 650.793L974.497 631.096C974.663 629.188 974.43 627.267 973.814 625.454C973.198 623.641 972.212 621.975 970.919 620.563C969.625 619.151 968.053 618.023 966.301 617.25C964.549 616.477 962.656 616.076 960.741 616.073H1047.91C1049.81 616.09 1051.7 616.5 1053.44 617.279C1055.18 618.058 1056.74 619.188 1058.02 620.599C1059.3 622.009 1060.28 623.67 1060.89 625.477C1061.5 627.283 1061.73 629.196 1061.57 631.096L1059.84 650.793C1059.56 653.931 1058.22 656.879 1056.03 659.151C1053.85 661.422 1050.96 662.88 1047.83 663.284L1043.94 663.771C1041.61 664.072 1039.45 665.161 1037.82 666.856C1036.19 668.552 1035.19 670.753 1034.98 673.096L1025.53 781.103C1025.2 784.905 1023.46 788.445 1020.64 791.024C1017.83 793.602 1014.15 795.032 1010.34 795.03H923.27C927.086 795.032 930.764 793.602 933.577 791.024C936.39 788.445 938.133 784.905 938.463 781.103V781.103Z" fill="#E6E6E6"/>
<path d="M698.588 646.045C697.881 637.851 694.128 630.22 688.07 624.658C682.012 619.095 674.089 616.006 665.864 616H741.756C749.969 616.005 757.883 619.084 763.939 624.631C769.996 630.178 773.756 637.791 774.48 645.972L781.955 731.604H706.087L698.588 646.045Z" fill="#E6E6E6"/>
<path d="M632.167 616H665.865C674.077 616.005 681.991 619.084 688.047 624.631C694.104 630.178 697.864 637.791 698.588 645.972L706.087 731.677H886.846L894.32 646.045C895.027 637.856 898.776 630.228 904.829 624.666C910.882 619.104 918.799 616.012 927.019 616H960.741C962.656 616.003 964.55 616.404 966.302 617.177C968.053 617.949 969.626 619.078 970.919 620.49C972.212 621.902 973.198 623.568 973.814 625.381C974.43 627.194 974.663 629.115 974.498 631.023L972.769 650.72C972.49 653.858 971.148 656.806 968.965 659.078C966.783 661.349 963.89 662.807 960.766 663.211L956.87 663.698C954.538 663.999 952.378 665.088 950.749 666.783C949.119 668.479 948.118 670.68 947.91 673.023L938.463 781.03C938.134 784.832 936.39 788.372 933.577 790.951C930.764 793.529 927.086 794.959 923.27 794.957H669.565C665.749 794.959 662.071 793.529 659.258 790.951C656.445 788.372 654.702 784.832 654.372 781.03L644.925 673.023C644.722 670.679 643.722 668.475 642.092 666.779C640.461 665.082 638.3 663.995 635.966 663.698L632.094 663.211C628.966 662.812 626.067 661.356 623.88 659.085C621.692 656.813 620.346 653.862 620.066 650.72L618.435 631.096C618.259 629.184 618.483 627.257 619.093 625.437C619.703 623.617 620.685 621.944 621.976 620.524C623.268 619.104 624.841 617.968 626.596 617.189C628.35 616.411 630.248 616.006 632.167 616Z" fill="#F0F0F0"/>
<path d="M377.976 601.927H140.853C140.855 606.117 142.474 610.144 145.372 613.17C148.271 616.195 152.225 617.985 156.411 618.167C181.903 619.336 221.103 623.353 233.52 637.451C256.7 663.746 254.46 756.073 226.703 777.451C217.986 784.146 192.616 797.465 192.616 797.465H326.261C326.261 797.465 302.547 783.879 294.293 777.451C266.707 755.903 265.903 663.625 289.18 637.451C301.134 624.035 337.875 619.701 362.515 618.338C366.701 618.095 370.635 616.26 373.51 613.208C376.385 610.156 377.983 606.12 377.976 601.927Z" fill="#F5F5F5"/>
<path d="M170.24 619.044C194.32 620.967 223.197 625.739 233.545 637.451C236.907 641.504 239.558 646.098 241.385 651.037H281.218C283.103 646.1 285.794 641.509 289.179 637.451C299.552 625.788 328.672 620.992 352.289 619.044H170.24Z" fill="#E6E6E6"/>
<path d="M276.981 602.049L273.743 565.186H320.491L323.729 602.049H276.981Z" fill="#EBEBEB"/>
<path d="M276.981 602.049L273.743 565.186H271.235L274.449 602.049H276.981Z" fill="#E0E0E0"/>
<path d="M281.412 598.299L278.855 568.96H316.059L318.615 598.299H281.412Z" fill="#F0F0F0"/>
<path d="M284.261 595.865L282.118 571.371H313.21L315.353 595.865H284.261Z" fill="#FAFAFA"/>
<path d="M261.813 601.927H214.87L220.081 542.397H267.023L261.813 601.927Z" fill="#E6E6E6"/>
<path d="M261.812 601.927H264.052L269.263 542.397H267.023L261.812 601.927Z" fill="#E0E0E0"/>
<path d="M257.552 595.865H220.178L224.341 548.459H261.715L257.552 595.865Z" fill="#F0F0F0"/>
<path d="M254.824 591.969H223.586L227.068 552.355H258.282L254.824 591.969Z" fill="#FAFAFA"/>
<path d="M239.047 570.178C240.069 571.195 241.452 571.765 242.894 571.765C244.336 571.765 245.719 571.195 246.741 570.178V570.178C247.758 569.156 248.329 567.772 248.329 566.331C248.329 564.889 247.758 563.506 246.741 562.484V562.484C245.719 561.467 244.336 560.896 242.894 560.896C241.452 560.896 240.069 561.467 239.047 562.484V562.484C238.03 563.506 237.459 564.889 237.459 566.331C237.459 567.772 238.03 569.156 239.047 570.178V570.178Z" fill="#EBEBEB"/>
<path d="M241.361 576.825C240.992 576.454 240.554 576.16 240.071 575.96C239.588 575.759 239.071 575.656 238.548 575.656C238.026 575.656 237.508 575.759 237.026 575.96C236.543 576.16 236.105 576.454 235.736 576.825V576.825C235.171 577.383 234.785 578.097 234.631 578.877C234.476 579.656 234.559 580.464 234.868 581.196C235.178 581.928 235.7 582.55 236.367 582.981C237.034 583.413 237.815 583.635 238.609 583.618C239.393 583.61 240.158 583.371 240.806 582.93C241.454 582.489 241.957 581.866 242.251 581.139C242.545 580.412 242.618 579.615 242.459 578.847C242.301 578.079 241.919 577.375 241.361 576.825V576.825Z" fill="#F0F0F0"/>
<path d="M608.695 907.103C869.418 907.103 1080.78 894.763 1080.78 879.541C1080.78 864.319 869.418 851.979 608.695 851.979C347.973 851.979 136.615 864.319 136.615 879.541C136.615 894.763 347.973 907.103 608.695 907.103Z" fill="#F5F5F5"/>
<path d="M989.058 712.929C989.496 716.07 980.974 718.139 974.011 719.308C974.595 725.005 978.393 730.776 983.628 736.181C990.226 732.456 999.649 727.538 1001.38 728.731C1003.11 729.924 993.635 736.303 987.597 739.955C991.903 743.718 996.467 747.176 1001.26 750.303C1004.23 747.552 1007.68 745.117 1009.75 746.432C1011.82 747.746 1011.31 752.08 1010.26 755.879C1017.42 760.066 1022.8 762.623 1022.8 762.623C1024.92 755.957 1026.55 749.146 1027.67 742.244C1027.31 741.513 1026.97 740.807 1026.63 740.028C1025.46 737.35 1026.63 736.23 1028.5 735.84C1029.04 730.987 1029.08 726.093 1028.62 721.232C1020.49 719.527 1010.63 716.362 1014.33 711.492C1016.55 708.571 1020.64 708.23 1024.9 709.058C1024.31 708.09 1023.63 707.177 1022.88 706.331C1008.1 690.042 997.774 706.331 997.774 706.331C989.179 699.172 977.103 701.096 974.498 712.296C979.27 710.957 988.522 709.058 989.058 712.929Z" fill="#407BFF"/>
<path opacity="0.3" d="M989.058 712.929C989.496 716.07 980.974 718.139 974.011 719.308C974.595 725.005 978.393 730.776 983.628 736.181C990.226 732.456 999.649 727.538 1001.38 728.731C1003.11 729.924 993.635 736.303 987.597 739.955C991.903 743.718 996.467 747.176 1001.26 750.303C1004.23 747.552 1007.68 745.117 1009.75 746.432C1011.82 747.746 1011.31 752.08 1010.26 755.879C1017.42 760.066 1022.8 762.623 1022.8 762.623C1024.92 755.957 1026.55 749.146 1027.67 742.244C1027.31 741.513 1026.97 740.807 1026.63 740.028C1025.46 737.35 1026.63 736.23 1028.5 735.84C1029.04 730.987 1029.08 726.093 1028.62 721.232C1020.49 719.527 1010.63 716.362 1014.33 711.492C1016.55 708.571 1020.64 708.23 1024.9 709.058C1024.31 708.09 1023.63 707.177 1022.88 706.331C1008.1 690.042 997.774 706.331 997.774 706.331C989.179 699.172 977.103 701.096 974.498 712.296C979.27 710.957 988.522 709.058 989.058 712.929Z" fill="white"/>
<path d="M1007.49 832.696L1005.37 832.525C1005.37 831.43 1014.11 722.327 989.642 712.028C988.489 711.505 987.233 711.25 985.967 711.284C984.702 711.318 983.461 711.639 982.338 712.223C973.499 716.825 969.263 735.938 969.214 736.132L967.12 735.67C967.291 734.842 971.624 715.388 981.339 710.324C982.759 709.578 984.331 709.167 985.934 709.12C987.538 709.074 989.131 709.394 990.591 710.056C1016.38 720.915 1008 828.119 1007.49 832.696Z" fill="#407BFF"/>
<path d="M1010.58 830.261C1010.14 825.392 1000.16 709.91 1018.83 697.663C1023.31 694.741 1027.31 694.108 1030.72 695.812C1039.55 700.268 1040.7 719.162 1040.75 719.965H1038.61C1038.61 719.795 1037.49 701.534 1029.74 697.638C1027.09 696.299 1023.8 696.859 1020 699.367C1002.38 710.908 1012.58 828.776 1012.7 829.969L1010.58 830.261Z" fill="#407BFF"/>
<path d="M1013.41 839.635C1013.26 835.886 1010.17 747.527 1027.19 739.809C1028.77 739.063 1030.5 738.676 1032.25 738.676C1034 738.676 1035.73 739.063 1037.31 739.809C1049 744.946 1056.21 766.713 1056.5 767.639L1054.48 768.296C1054.48 768.077 1047.18 746.505 1036.46 741.757C1035.15 741.134 1033.72 740.81 1032.27 740.81C1030.83 740.81 1029.4 741.134 1028.09 741.757C1015.04 747.698 1014.6 814.386 1015.52 839.586L1013.41 839.635Z" fill="#407BFF"/>
<path d="M1009.07 835.593L1006.93 835.35C1009.95 809.054 1015.67 738.981 1006.3 730.654C1005.84 730.11 1005.24 729.708 1004.56 729.496C1003.88 729.284 1003.16 729.272 1002.47 729.461C996.191 731.896 992.369 754.661 991.419 763.256L989.301 763.012C989.666 759.725 993.099 730.776 1001.69 727.465C1002.75 727.112 1003.88 727.074 1004.95 727.355C1006.02 727.636 1006.99 728.224 1007.73 729.047C1019.83 739.833 1009.51 831.698 1009.07 835.593Z" fill="#407BFF"/>
<path d="M973.377 785.753H1050.22L1043.79 871.823H979.78L973.377 785.753Z" fill="#407BFF"/>
<path opacity="0.2" d="M996.702 785.753L998.845 871.823H1043.79L1050.22 785.753H996.702Z" fill="white"/>
<path d="M983.847 754.15C983.043 756.244 977.078 754.612 972.379 752.932C970.927 757.395 970.978 762.21 972.525 766.64C977.881 766.64 985.356 766.811 986.038 768.15C986.72 769.489 978.734 770.146 973.694 770.341C975.057 774.135 976.684 777.828 978.563 781.395C981.339 780.713 984.309 780.397 985.113 781.906C985.916 783.416 984.163 785.924 982.191 787.92C985.186 792.96 987.621 796.369 987.621 796.369C991.194 792.973 994.522 789.328 997.579 785.461C997.579 784.877 997.579 784.317 997.579 783.732C997.774 781.687 998.869 781.298 1000.18 781.785C1002.19 778.968 1003.9 775.948 1005.27 772.776C1000.87 768.929 995.85 763.597 999.795 761.868C1002.23 760.821 1004.81 762.014 1007.1 763.938C1007.07 763.118 1006.96 762.303 1006.78 761.503C1003.25 746.383 991.297 752.908 991.297 752.908C988.473 745.604 980.365 742.585 974.911 748.598C978.515 749.548 984.821 751.569 983.847 754.15Z" fill="#407BFF"/>
<path opacity="0.3" d="M983.847 754.15C983.043 756.244 977.078 754.612 972.379 752.932C970.927 757.395 970.978 762.21 972.525 766.64C977.881 766.64 985.356 766.811 986.038 768.15C986.72 769.489 978.734 770.146 973.694 770.341C975.057 774.135 976.684 777.828 978.563 781.395C981.339 780.713 984.309 780.397 985.113 781.906C985.916 783.416 984.163 785.924 982.191 787.92C985.186 792.96 987.621 796.369 987.621 796.369C991.194 792.973 994.522 789.328 997.579 785.461C997.579 784.877 997.579 784.317 997.579 783.732C997.774 781.687 998.869 781.298 1000.18 781.785C1002.19 778.968 1003.9 775.948 1005.27 772.776C1000.87 768.929 995.85 763.597 999.795 761.868C1002.23 760.821 1004.81 762.014 1007.1 763.938C1007.07 763.118 1006.96 762.303 1006.78 761.503C1003.25 746.383 991.297 752.908 991.297 752.908C988.473 745.604 980.365 742.585 974.911 748.598C978.515 749.548 984.821 751.569 983.847 754.15Z" fill="white"/>
<path d="M1040.89 764.376C1038.5 764.584 1036.15 765.083 1033.88 765.861C1033.25 764.235 1032.9 762.515 1032.83 760.772C1032.35 745.287 1043.45 751.812 1049.29 747.259C1050.62 746.101 1052.16 745.23 1053.84 744.702C1055.52 744.174 1057.29 744 1059.03 744.192C1058.53 745.044 1058.09 745.931 1057.72 746.845C1057.58 747.185 1057.52 747.55 1057.55 747.915C1057.57 748.28 1057.68 748.634 1057.86 748.952C1058.04 749.27 1058.29 749.544 1058.59 749.752C1058.89 749.961 1059.23 750.099 1059.59 750.157C1061.06 750.454 1062.59 750.274 1063.95 749.645C1064.33 749.408 1064.7 749.148 1065.05 748.866C1065.99 750.49 1066.71 752.235 1067.19 754.052C1067.77 756.216 1068.1 758.437 1068.19 760.675C1067.31 760.859 1066.45 761.103 1065.61 761.405C1065.27 761.553 1064.98 761.774 1064.74 762.051C1064.5 762.329 1064.33 762.657 1064.24 763.01C1064.14 763.363 1064.13 763.732 1064.2 764.091C1064.27 764.45 1064.42 764.788 1064.63 765.082C1065.55 766.013 1066.63 766.771 1067.82 767.322C1067.43 769.817 1066.77 772.265 1065.87 774.626L1065.1 774.748C1064.53 774.849 1063.97 774.987 1063.42 775.162C1063.1 775.239 1062.78 775.354 1062.49 775.503C1062.11 775.665 1061.77 775.922 1061.52 776.25C1061.26 776.578 1061.09 776.966 1061.03 777.378C1060.97 777.799 1061.03 778.228 1061.19 778.621C1061.36 779.014 1061.62 779.358 1061.95 779.618C1062.32 779.876 1062.7 780.112 1063.1 780.324C1061.64 782.89 1059.52 785.024 1056.96 786.508C1054.72 785.48 1052.55 784.325 1050.44 783.051C1050.9 782.442 1051.36 781.809 1051.8 781.176C1052.29 780.464 1052.53 779.604 1052.46 778.741C1052.34 777.873 1051.89 777.086 1051.19 776.55C1050.85 776.284 1050.46 776.09 1050.04 775.977C1049.62 775.863 1049.18 775.834 1048.75 775.891C1048.32 775.948 1047.91 776.089 1047.53 776.306C1047.16 776.524 1046.83 776.813 1046.57 777.159C1046.06 777.913 1045.5 778.644 1044.94 779.374C1042.04 777.216 1039.44 774.677 1037.22 771.826H1037.44C1038.87 771.457 1040.34 771.221 1041.82 771.12C1042.64 770.952 1043.36 770.48 1043.85 769.799C1044.33 769.118 1044.54 768.279 1044.44 767.45C1044.33 766.62 1043.91 765.863 1043.27 765.329C1042.62 764.795 1041.8 764.524 1040.97 764.571L1040.89 764.376Z" fill="#407BFF"/>
<path opacity="0.5" d="M1040.89 764.376C1038.5 764.584 1036.15 765.083 1033.88 765.861C1033.25 764.235 1032.9 762.515 1032.83 760.772C1032.35 745.287 1043.45 751.812 1049.29 747.259C1050.62 746.101 1052.16 745.23 1053.84 744.702C1055.52 744.174 1057.29 744 1059.03 744.192C1058.53 745.044 1058.09 745.931 1057.72 746.845C1057.58 747.185 1057.52 747.55 1057.55 747.915C1057.57 748.28 1057.68 748.634 1057.86 748.952C1058.04 749.27 1058.29 749.544 1058.59 749.752C1058.89 749.961 1059.23 750.099 1059.59 750.157C1061.06 750.454 1062.59 750.274 1063.95 749.645C1064.33 749.408 1064.7 749.148 1065.05 748.866C1065.99 750.49 1066.71 752.235 1067.19 754.052C1067.77 756.216 1068.1 758.437 1068.19 760.675C1067.31 760.859 1066.45 761.103 1065.61 761.405C1065.27 761.553 1064.98 761.774 1064.74 762.051C1064.5 762.329 1064.33 762.657 1064.24 763.01C1064.14 763.363 1064.13 763.732 1064.2 764.091C1064.27 764.45 1064.42 764.788 1064.63 765.082C1065.55 766.013 1066.63 766.771 1067.82 767.322C1067.43 769.817 1066.77 772.265 1065.87 774.626L1065.1 774.748C1064.53 774.849 1063.97 774.987 1063.42 775.162C1063.1 775.239 1062.78 775.354 1062.49 775.503C1062.11 775.665 1061.77 775.922 1061.52 776.25C1061.26 776.578 1061.09 776.966 1061.03 777.378C1060.97 777.799 1061.03 778.228 1061.19 778.621C1061.36 779.014 1061.62 779.358 1061.95 779.618C1062.32 779.876 1062.7 780.112 1063.1 780.324C1061.64 782.89 1059.52 785.024 1056.96 786.508C1054.72 785.48 1052.55 784.325 1050.44 783.051C1050.9 782.442 1051.36 781.809 1051.8 781.176C1052.29 780.464 1052.53 779.604 1052.46 778.741C1052.34 777.873 1051.89 777.086 1051.19 776.55C1050.85 776.284 1050.46 776.09 1050.04 775.977C1049.62 775.863 1049.18 775.834 1048.75 775.891C1048.32 775.948 1047.91 776.089 1047.53 776.306C1047.16 776.524 1046.83 776.813 1046.57 777.159C1046.06 777.913 1045.5 778.644 1044.94 779.374C1042.04 777.216 1039.44 774.677 1037.22 771.826H1037.44C1038.87 771.457 1040.34 771.221 1041.82 771.12C1042.64 770.952 1043.36 770.48 1043.85 769.799C1044.33 769.118 1044.54 768.279 1044.44 767.45C1044.33 766.62 1043.91 765.863 1043.27 765.329C1042.62 764.795 1041.8 764.524 1040.97 764.571L1040.89 764.376Z" fill="white"/>
<path d="M1045.32 710.957C1046.67 710.016 1048.13 709.24 1049.66 708.644C1049.28 707.517 1048.71 706.463 1047.98 705.527C1041.43 697.176 1038.48 705.527 1033.37 705.649C1032.16 705.62 1030.96 705.842 1029.84 706.304C1028.72 706.765 1027.71 707.454 1026.87 708.327C1027.5 708.563 1028.12 708.84 1028.72 709.155C1028.94 709.274 1029.13 709.44 1029.28 709.641C1029.42 709.842 1029.52 710.073 1029.57 710.318C1029.62 710.562 1029.61 710.814 1029.55 711.056C1029.48 711.297 1029.37 711.521 1029.21 711.712C1028.59 712.504 1027.74 713.076 1026.77 713.343C1026.46 713.368 1026.15 713.368 1025.85 713.343C1026.08 714.606 1026.47 715.833 1027.02 716.995C1027.67 718.393 1028.49 719.709 1029.45 720.915C1030 720.634 1030.56 720.382 1031.13 720.16C1031.37 720.085 1031.63 720.066 1031.87 720.106C1032.12 720.146 1032.36 720.242 1032.56 720.389C1032.77 720.535 1032.94 720.727 1033.06 720.949C1033.18 721.171 1033.24 721.418 1033.25 721.67C1033.17 722.564 1032.94 723.437 1032.57 724.251C1033.86 725.386 1035.27 726.382 1036.78 727.221L1037.24 726.929C1037.58 726.739 1037.93 726.568 1038.29 726.418L1038.92 726.174C1039.2 726.096 1039.49 726.089 1039.77 726.153C1040.05 726.217 1040.31 726.35 1040.53 726.539C1040.74 726.737 1040.9 726.988 1040.98 727.265C1041.07 727.543 1041.08 727.839 1041.02 728.122C1040.94 728.421 1040.84 728.714 1040.72 728.999C1042.62 729.682 1044.67 729.875 1046.66 729.559C1047.39 728.038 1048.04 726.477 1048.59 724.884L1047.05 724.47C1046.48 724.327 1045.98 723.981 1045.64 723.496C1045.48 723.248 1045.36 722.969 1045.31 722.676C1045.26 722.383 1045.26 722.082 1045.32 721.792C1045.46 721.208 1045.82 720.701 1046.32 720.379C1046.57 720.219 1046.85 720.11 1047.15 720.06C1047.44 720.01 1047.74 720.019 1048.03 720.087L1049.85 720.525C1050.46 718.082 1050.72 715.566 1050.63 713.051H1050.49C1049.57 713.48 1048.7 713.994 1047.88 714.585C1047.38 714.848 1046.8 714.913 1046.25 714.768C1045.7 714.624 1045.23 714.278 1044.92 713.802C1044.62 713.325 1044.5 712.75 1044.6 712.192C1044.7 711.634 1045 711.132 1045.45 710.786L1045.32 710.957Z" fill="#407BFF"/>
<path opacity="0.3" d="M1045.32 710.957C1046.67 710.016 1048.13 709.24 1049.66 708.644C1049.28 707.517 1048.71 706.463 1047.98 705.527C1041.43 697.176 1038.48 705.527 1033.37 705.649C1032.16 705.62 1030.96 705.842 1029.84 706.304C1028.72 706.765 1027.71 707.454 1026.87 708.327C1027.5 708.563 1028.12 708.84 1028.72 709.155C1028.94 709.274 1029.13 709.44 1029.28 709.641C1029.42 709.842 1029.52 710.073 1029.57 710.318C1029.62 710.562 1029.61 710.814 1029.55 711.056C1029.48 711.297 1029.37 711.521 1029.21 711.712C1028.59 712.504 1027.74 713.076 1026.77 713.343C1026.46 713.368 1026.15 713.368 1025.85 713.343C1026.08 714.606 1026.47 715.833 1027.02 716.995C1027.67 718.393 1028.49 719.709 1029.45 720.915C1030 720.634 1030.56 720.382 1031.13 720.16C1031.37 720.085 1031.63 720.066 1031.87 720.106C1032.12 720.146 1032.36 720.242 1032.56 720.389C1032.77 720.535 1032.94 720.727 1033.06 720.949C1033.18 721.171 1033.24 721.418 1033.25 721.67C1033.17 722.564 1032.94 723.437 1032.57 724.251C1033.86 725.386 1035.27 726.382 1036.78 727.221L1037.24 726.929C1037.58 726.739 1037.93 726.568 1038.29 726.418L1038.92 726.174C1039.2 726.096 1039.49 726.089 1039.77 726.153C1040.05 726.217 1040.31 726.35 1040.53 726.539C1040.74 726.737 1040.9 726.988 1040.98 727.265C1041.07 727.543 1041.08 727.839 1041.02 728.122C1040.94 728.421 1040.84 728.714 1040.72 728.999C1042.62 729.682 1044.67 729.875 1046.66 729.559C1047.39 728.038 1048.04 726.477 1048.59 724.884L1047.05 724.47C1046.48 724.327 1045.98 723.981 1045.64 723.496C1045.48 723.248 1045.36 722.969 1045.31 722.676C1045.26 722.383 1045.26 722.082 1045.32 721.792C1045.46 721.208 1045.82 720.701 1046.32 720.379C1046.57 720.219 1046.85 720.11 1047.15 720.06C1047.44 720.01 1047.74 720.019 1048.03 720.087L1049.85 720.525C1050.46 718.082 1050.72 715.566 1050.63 713.051H1050.49C1049.57 713.48 1048.7 713.994 1047.88 714.585C1047.38 714.848 1046.8 714.913 1046.25 714.768C1045.7 714.624 1045.23 714.278 1044.92 713.802C1044.62 713.325 1044.5 712.75 1044.6 712.192C1044.7 711.634 1045 711.132 1045.45 710.786L1045.32 710.957Z" fill="white"/>
<path d="M982.727 726.466C982.264 729.607 990.786 731.677 997.75 732.845C997.19 738.543 993.391 744.313 988.01 749.694C981.412 745.993 971.99 741.075 970.261 742.268C968.532 743.461 978.003 749.816 984.042 753.492C979.728 757.246 975.164 760.703 970.383 763.84C967.436 761.065 963.955 758.654 961.91 759.969C959.864 761.284 960.327 765.593 961.398 769.416C954.094 773.604 948.835 776.136 948.835 776.136C946.719 769.47 945.092 762.659 943.965 755.757C944.33 755.051 944.696 754.32 945.012 753.565C946.181 750.887 945.012 749.743 943.137 749.378C942.604 744.525 942.563 739.63 943.016 734.769C951.148 733.065 961.033 729.899 957.332 725.03C955.092 722.084 951.002 721.767 946.765 722.595C947.339 721.622 948.008 720.709 948.762 719.868C963.565 703.555 973.864 719.868 973.864 719.868C982.459 712.685 994.536 714.633 997.141 725.833C992.515 724.421 983.287 722.571 982.727 726.466Z" fill="#407BFF"/>
<path opacity="0.5" d="M982.727 726.466C982.264 729.607 990.786 731.677 997.75 732.845C997.19 738.543 993.391 744.313 988.01 749.694C981.412 745.993 971.99 741.075 970.261 742.268C968.532 743.461 978.003 749.816 984.042 753.492C979.728 757.246 975.164 760.703 970.383 763.84C967.436 761.065 963.955 758.654 961.91 759.969C959.864 761.284 960.327 765.593 961.398 769.416C954.094 773.604 948.835 776.136 948.835 776.136C946.719 769.47 945.092 762.659 943.965 755.757C944.33 755.051 944.696 754.32 945.012 753.565C946.181 750.887 945.012 749.743 943.137 749.378C942.604 744.525 942.563 739.63 943.016 734.769C951.148 733.065 961.033 729.899 957.332 725.03C955.092 722.084 951.002 721.767 946.765 722.595C947.339 721.622 948.008 720.709 948.762 719.868C963.565 703.555 973.864 719.868 973.864 719.868C982.459 712.685 994.536 714.633 997.141 725.833C992.515 724.421 983.287 722.571 982.727 726.466Z" fill="white"/>
<path d="M226.703 826.171C226.703 826.171 215.357 801.409 228.31 776.988C241.263 752.567 245.037 746.821 236.783 741.83C228.529 736.838 224.609 761.308 224.609 761.308C220.513 750.218 220.095 738.105 223.416 726.758C229.162 709.106 232.765 680.327 224.901 677.235C217.037 674.143 223.416 713.124 216.599 726.418C213.113 717.094 210.87 707.353 209.927 697.444C208.978 683.249 210.439 660.605 204.254 654.786C198.07 648.967 194.052 652.985 200.164 684.296C203.823 703.011 205.851 722.009 206.226 741.075C206.226 741.075 192.835 700.049 183.802 698.783C174.769 697.517 174.769 710.957 182.512 722.4C190.254 733.844 205.179 754.612 207.614 765.252C207.614 765.252 192.835 734.331 179.541 743.826C166.247 753.322 191.106 771.948 202.209 778.692C213.312 785.437 220.981 827.826 220.981 827.826L226.703 826.171Z" fill="#407BFF"/>
<path opacity="0.2" d="M226.703 826.171C226.703 826.171 215.357 801.409 228.31 776.988C241.263 752.567 245.037 746.821 236.783 741.83C228.529 736.838 224.609 761.308 224.609 761.308C220.513 750.218 220.095 738.105 223.416 726.758C229.162 709.106 232.765 680.327 224.901 677.235C217.037 674.143 223.416 713.124 216.599 726.418C213.113 717.094 210.87 707.353 209.927 697.444C208.978 683.249 210.439 660.605 204.254 654.786C198.07 648.967 194.052 652.985 200.164 684.296C203.823 703.011 205.851 722.009 206.226 741.075C206.226 741.075 192.835 700.049 183.802 698.783C174.769 697.517 174.769 710.957 182.512 722.4C190.254 733.844 205.179 754.612 207.614 765.252C207.614 765.252 192.835 734.331 179.541 743.826C166.247 753.322 191.106 771.948 202.209 778.692C213.312 785.437 220.981 827.826 220.981 827.826L226.703 826.171Z" fill="black"/>
<path d="M217.743 836.324C217.743 836.324 228.797 811.392 215.527 787.165C202.258 762.939 198.484 757.266 206.641 752.129C214.797 746.992 218.814 771.485 218.814 771.485C222.779 760.353 223.06 748.241 219.618 736.936C213.653 719.357 209.708 690.675 217.524 687.437C225.34 684.199 219.447 723.301 226.435 736.473C229.796 727.099 231.916 717.326 232.741 707.402C233.52 693.207 231.792 670.588 237.927 664.672C244.063 658.755 248.081 662.724 242.359 694.132C238.918 712.891 237.118 731.914 236.978 750.985C236.978 750.985 249.955 709.715 258.891 708.376C267.827 707.037 268.07 720.331 260.449 731.993C252.828 743.656 238.414 764.522 236.174 775.211C236.174 775.211 250.588 744.07 264.004 753.298C277.42 762.526 252.78 781.614 241.774 788.529C230.769 795.444 223.562 837.833 223.562 837.833L217.743 836.324Z" fill="#407BFF"/>
<path d="M254.898 824.637H188.964L194.32 871.823H249.566L254.898 824.637Z" fill="#263238"/>
<path d="M761.576 258.087C761.576 258.087 765.74 280.901 795.907 291.2C795.907 291.2 778.741 274.644 778.741 258.087H761.576Z" fill="#407BFF"/>
<path opacity="0.8" d="M761.576 258.087C761.576 258.087 765.74 280.901 795.907 291.2C795.907 291.2 778.741 274.644 778.741 258.087H761.576Z" fill="white"/>
<path d="M804.623 206.616H737.155C733.404 206.616 730.362 209.657 730.362 213.409V258.428C730.362 262.18 733.404 265.221 737.155 265.221H804.623C808.375 265.221 811.416 262.18 811.416 258.428V213.409C811.416 209.657 808.375 206.616 804.623 206.616Z" fill="#407BFF"/>
<path opacity="0.8" d="M804.623 206.616H737.155C733.404 206.616 730.362 209.657 730.362 213.409V258.428C730.362 262.18 733.404 265.221 737.155 265.221H804.623C808.375 265.221 811.416 262.18 811.416 258.428V213.409C811.416 209.657 808.375 206.616 804.623 206.616Z" fill="white"/>
<path d="M754.54 235.906C754.54 236.797 754.276 237.668 753.781 238.409C753.286 239.149 752.582 239.727 751.759 240.068C750.936 240.409 750.031 240.498 749.157 240.324C748.283 240.15 747.481 239.721 746.851 239.091C746.221 238.461 745.792 237.659 745.618 236.785C745.444 235.911 745.533 235.005 745.874 234.182C746.215 233.359 746.792 232.656 747.533 232.161C748.274 231.666 749.145 231.402 750.036 231.402C750.627 231.402 751.213 231.518 751.759 231.745C752.306 231.971 752.802 232.303 753.221 232.721C753.639 233.139 753.971 233.636 754.197 234.182C754.423 234.729 754.54 235.315 754.54 235.906Z" fill="#407BFF"/>
<path d="M770.877 240.411C773.365 240.411 775.382 238.394 775.382 235.906C775.382 233.418 773.365 231.402 770.877 231.402C768.39 231.402 766.373 233.418 766.373 235.906C766.373 238.394 768.39 240.411 770.877 240.411Z" fill="#407BFF"/>
<path d="M791.719 240.411C794.207 240.411 796.223 238.394 796.223 235.906C796.223 233.418 794.207 231.402 791.719 231.402C789.232 231.402 787.215 233.418 787.215 235.906C787.215 238.394 789.232 240.411 791.719 240.411Z" fill="#407BFF"/>
<path d="M668.811 319.517C668.811 319.517 664.672 342.355 634.505 352.654C634.505 352.654 651.548 336.073 651.548 319.517H668.811Z" fill="#407BFF"/>
<path opacity="0.8" d="M668.811 319.517C668.811 319.517 664.672 342.355 634.505 352.654C634.505 352.654 651.548 336.073 651.548 319.517H668.811Z" fill="white"/>
<path d="M625.788 326.724H693.256C697.007 326.724 700.049 323.682 700.049 319.931V274.911C700.049 271.16 697.007 268.118 693.256 268.118H625.788C622.036 268.118 618.995 271.16 618.995 274.911V319.931C618.995 323.682 622.036 326.724 625.788 326.724Z" fill="#407BFF"/>
<path opacity="0.8" d="M625.788 326.724H693.256C697.007 326.724 700.049 323.682 700.049 319.931V274.911C700.049 271.16 697.007 268.118 693.256 268.118H625.788C622.036 268.118 618.995 271.16 618.995 274.911V319.931C618.995 323.682 622.036 326.724 625.788 326.724Z" fill="white"/>
<path d="M675.871 297.409C675.866 298.301 676.126 299.174 676.618 299.918C677.11 300.662 677.812 301.243 678.635 301.588C679.457 301.932 680.364 302.025 681.239 301.854C682.115 301.683 682.919 301.256 683.552 300.627C684.184 299.998 684.616 299.195 684.791 298.321C684.967 297.446 684.879 296.54 684.539 295.715C684.199 294.891 683.622 294.186 682.881 293.69C682.139 293.194 681.267 292.929 680.376 292.929C679.185 292.929 678.043 293.4 677.199 294.239C676.355 295.079 675.878 296.218 675.871 297.409V297.409Z" fill="#407BFF"/>
<path d="M654.957 297.409C654.952 298.302 655.213 299.176 655.706 299.92C656.199 300.665 656.902 301.246 657.726 301.59C658.55 301.934 659.458 302.025 660.334 301.852C661.21 301.679 662.015 301.25 662.646 300.618C663.278 299.987 663.707 299.182 663.88 298.306C664.053 297.43 663.962 296.522 663.618 295.698C663.274 294.874 662.693 294.171 661.949 293.678C661.204 293.185 660.33 292.924 659.437 292.929C658.249 292.929 657.109 293.401 656.269 294.241C655.429 295.081 654.957 296.221 654.957 297.409V297.409Z" fill="#407BFF"/>
<path d="M634.164 297.409C634.159 298.301 634.419 299.174 634.911 299.918C635.403 300.662 636.105 301.243 636.928 301.588C637.75 301.932 638.657 302.025 639.532 301.854C640.408 301.683 641.212 301.256 641.845 300.627C642.477 299.998 642.909 299.195 643.084 298.321C643.26 297.446 643.172 296.54 642.832 295.715C642.492 294.891 641.915 294.186 641.173 293.69C640.432 293.194 639.56 292.929 638.668 292.929C637.478 292.929 636.336 293.4 635.492 294.239C634.648 295.079 634.171 296.218 634.164 297.409V297.409Z" fill="#407BFF"/>
<path d="M497.28 244.355C497.28 244.355 493.141 267.169 462.974 277.468C462.974 277.468 480.017 260.911 480.017 244.355H497.28Z" fill="#407BFF"/>
<path opacity="0.8" d="M497.28 244.355C497.28 244.355 493.141 267.169 462.974 277.468C462.974 277.468 480.017 260.911 480.017 244.355H497.28Z" fill="white"/>
<path d="M512.741 192.932H465.482C461.73 192.932 458.688 195.974 458.688 199.725V244.744C458.688 248.496 461.73 251.537 465.482 251.537H512.741C516.492 251.537 519.534 248.496 519.534 244.744V199.725C519.534 195.974 516.492 192.932 512.741 192.932Z" fill="#407BFF"/>
<path opacity="0.8" d="M512.741 192.932H465.482C461.73 192.932 458.688 195.974 458.688 199.725V244.744C458.688 248.496 461.73 251.537 465.482 251.537H512.741C516.492 251.537 519.534 248.496 519.534 244.744V199.725C519.534 195.974 516.492 192.932 512.741 192.932Z" fill="white"/>
<path d="M480.874 209.841V209.651C480.878 208.999 480.935 208.478 481.047 208.09C481.163 207.702 481.331 207.389 481.551 207.15C481.771 206.912 482.036 206.695 482.345 206.501C482.576 206.352 482.784 206.197 482.966 206.037C483.149 205.877 483.294 205.699 483.403 205.506C483.511 205.308 483.565 205.088 483.565 204.845C483.565 204.588 483.503 204.362 483.38 204.168C483.257 203.974 483.091 203.825 482.882 203.721C482.677 203.616 482.45 203.564 482.2 203.564C481.957 203.564 481.728 203.618 481.512 203.726C481.295 203.831 481.118 203.987 480.98 204.196C480.842 204.401 480.768 204.657 480.756 204.963H478.474C478.492 204.217 478.671 203.601 479.011 203.117C479.35 202.628 479.8 202.264 480.359 202.026C480.919 201.783 481.536 201.662 482.211 201.662C482.953 201.662 483.61 201.785 484.18 202.031C484.751 202.274 485.199 202.626 485.523 203.089C485.848 203.551 486.01 204.109 486.01 204.761C486.01 205.198 485.937 205.586 485.792 205.925C485.65 206.261 485.45 206.559 485.193 206.82C484.936 207.078 484.632 207.311 484.281 207.52C483.986 207.695 483.744 207.878 483.554 208.068C483.367 208.258 483.227 208.478 483.134 208.728C483.045 208.978 482.998 209.286 482.994 209.651V209.841H480.874ZM481.982 213.422C481.609 213.422 481.29 213.292 481.025 213.031C480.764 212.766 480.635 212.449 480.639 212.079C480.635 211.714 480.764 211.401 481.025 211.139C481.29 210.878 481.609 210.748 481.982 210.748C482.336 210.748 482.647 210.878 482.916 211.139C483.184 211.401 483.321 211.714 483.324 212.079C483.321 212.326 483.255 212.551 483.129 212.756C483.005 212.958 482.843 213.12 482.642 213.243C482.44 213.362 482.22 213.422 481.982 213.422Z" fill="#407BFF"/>
<path d="M824.247 356.233C820.856 354.941 817.092 355.046 813.778 356.524C810.465 358.003 807.873 360.735 806.57 364.122V364.268C804.136 370.501 801.701 377.051 799.266 383.405C796.831 389.76 794.202 396.139 791.572 402.397C788.943 408.654 786.143 414.79 783.245 420.658C781.809 423.579 780.25 426.428 778.741 429.106C778.035 430.299 777.304 431.541 776.598 432.515C775.99 431.687 775.381 430.786 774.772 429.861C772.703 426.671 770.706 423.165 768.734 419.562C766.762 415.958 764.814 412.258 762.915 408.654L762.769 408.386C762.008 406.991 760.788 405.903 759.315 405.307C757.842 404.712 756.209 404.645 754.692 405.119C753.176 405.593 751.871 406.578 750.999 407.906C750.128 409.234 749.744 410.824 749.913 412.404C750.461 416.911 751.274 421.383 752.348 425.795C753.418 430.29 754.768 434.714 756.39 439.04C757.296 441.367 758.329 443.643 759.482 445.858C760.829 448.5 762.515 450.956 764.497 453.162C765.903 454.758 767.546 456.129 769.367 457.228C772.19 459.006 775.479 459.904 778.814 459.809C780.733 459.738 782.627 459.342 784.414 458.64C785.902 457.998 787.308 457.181 788.602 456.205C789.997 455.139 791.271 453.923 792.4 452.578C795.268 449.478 797.897 446.165 800.264 442.668L800.8 441.864C802.821 438.87 804.598 435.899 806.303 432.904C810.052 426.404 813.315 419.878 816.383 413.426C817.503 410.991 818.598 408.557 819.645 406.122C821.52 401.934 823.273 397.722 824.977 393.485C827.607 386.765 830.188 380.216 832.501 373.228C833.574 369.877 833.315 366.242 831.778 363.077C830.241 359.913 827.544 357.462 824.247 356.233V356.233Z" fill="#263238"/>
<path opacity="0.2" d="M819.475 406.219C818.428 408.654 817.333 411.089 816.213 413.524C813.145 420.098 809.882 426.623 806.133 433.002C804.428 435.997 802.651 438.967 800.63 441.962C797.051 422.07 809.517 398.331 809.517 398.331C812.926 398.964 816.335 401.885 819.475 406.219Z" fill="black"/>
<path d="M914.334 432.223C914.334 435.778 914.042 439.527 913.847 443.204C913.239 454.355 912.192 466.553 910.609 479.725C910.106 484.108 909.53 488.612 908.88 493.238L805.402 495.016C800.362 481.235 795.833 451.506 810.004 425.649C810.004 409.117 805.938 390.807 805.426 373.106C805.11 362.028 814.727 351.851 827.851 349.538C847.961 346.212 868.398 345.321 888.72 346.884C899.872 347.638 908.661 354.334 910.39 363.611C912.082 373.196 913.236 382.87 913.847 392.584C914.529 403.663 914.846 416.859 914.334 432.223Z" fill="#263238"/>
<path d="M838.442 346.056C836.016 347.177 834.098 349.166 833.065 351.631C832.033 354.096 831.962 356.859 832.866 359.374C833.844 363.019 835.731 366.355 838.35 369.072C840.969 371.789 844.234 373.797 847.84 374.908C852.004 375.784 876.692 362.734 879.785 351.169C882.877 339.604 838.442 346.056 838.442 346.056Z" fill="#407BFF"/>
<path opacity="0.5" d="M838.442 346.056C836.016 347.177 834.098 349.166 833.065 351.631C832.033 354.096 831.962 356.859 832.866 359.374C833.844 363.019 835.731 366.355 838.35 369.072C840.969 371.789 844.234 373.797 847.84 374.908C852.004 375.784 876.692 362.734 879.785 351.169C882.877 339.604 838.442 346.056 838.442 346.056Z" fill="white"/>
<path opacity="0.2" d="M913.847 443.131C913.238 454.282 912.191 466.48 910.609 479.652C898.435 479.409 880.32 477.924 875.962 471.398C869.29 461.391 874.598 455.451 874.598 455.451C874.598 455.451 903.11 449.169 913.847 443.131Z" fill="black"/>
<path opacity="0.2" d="M914.334 432.223C901.235 419.026 897.875 378.658 897.875 378.658C897.875 378.658 905.447 384.55 913.799 392.609C914.529 403.663 914.845 416.859 914.334 432.223Z" fill="black"/>
<path d="M755.489 420.706L736.011 415.106L750.108 398.355C750.108 398.355 766.543 403.224 763.913 413.426L755.489 420.706Z" fill="#FF8B7B"/>
<path d="M729.729 402.786L734.599 395.068C735 394.41 735.531 393.84 736.158 393.393C736.786 392.945 737.497 392.628 738.25 392.462C739.002 392.296 739.781 392.284 740.538 392.427C741.296 392.569 742.017 392.863 742.658 393.291L750.23 398.355L736.133 415.106L730.752 409.896C729.791 409.008 729.165 407.817 728.979 406.522C728.793 405.228 729.058 403.909 729.729 402.786V402.786Z" fill="#FF8B7B"/>
<path d="M804.793 860.72L824.466 861.037C824.822 861.034 825.167 861.161 825.436 861.394C825.705 861.627 825.88 861.95 825.927 862.303L828.362 878.397C828.418 878.795 828.388 879.2 828.272 879.585C828.157 879.97 827.959 880.325 827.693 880.626C827.427 880.927 827.098 881.167 826.73 881.328C826.362 881.49 825.964 881.57 825.562 881.562C818.452 881.319 808.226 880.759 799.291 880.612C788.845 880.442 789.892 880.88 777.646 880.612C770.341 880.612 768.685 872.967 771.826 872.334C786.119 869.486 787.579 869.315 800.24 861.986C801.617 861.165 803.19 860.727 804.793 860.72Z" fill="#263238"/>
<path d="M834.4 672C856.313 579.868 877.301 539.889 868.999 494.261L805.378 495.016C805.378 495.016 780.299 620.334 785.632 674.362C791.183 730.557 799.291 861.329 799.291 861.329L828.338 861.743C828.338 861.743 845.26 734.842 834.4 672Z" fill="#407BFF"/>
<path opacity="0.3" d="M834.4 672C856.313 579.868 877.301 539.889 868.999 494.261L805.378 495.016C805.378 495.016 780.299 620.334 785.632 674.362C791.183 730.557 799.291 861.329 799.291 861.329L828.338 861.743C828.338 861.743 845.26 734.842 834.4 672Z" fill="black"/>
<path opacity="0.2" d="M837.565 658.95C849.325 611.983 860.355 579.332 866.272 551.965C824.953 566.818 828.484 618.289 837.565 658.95Z" fill="black"/>
<path d="M903.962 860.72L923.635 861.037C923.982 861.041 924.315 861.172 924.57 861.406C924.826 861.639 924.988 861.958 925.023 862.303L926.752 878.397C926.782 878.804 926.728 879.213 926.592 879.597C926.456 879.982 926.242 880.335 925.962 880.632C925.683 880.93 925.345 881.166 924.97 881.326C924.594 881.486 924.19 881.567 923.782 881.562C916.696 881.319 914.481 880.759 905.545 880.612C895.124 880.442 899.921 880.88 887.698 880.612C880.394 880.612 879.128 873.016 882.293 872.334C892.3 870.24 894.929 866.247 899.458 861.986C900.749 861.018 902.356 860.566 903.962 860.72V860.72Z" fill="#263238"/>
<path d="M901.673 672C911.559 579.868 923.197 538.866 908.978 493.19L842.654 494.967C842.654 494.967 840.853 620.285 853.294 674.313C866.247 730.508 896.463 861.28 896.463 861.28L925.68 861.694C925.68 861.694 920.787 734.842 901.673 672Z" fill="#407BFF"/>
<path opacity="0.3" d="M901.673 672C911.559 579.868 923.197 538.866 908.978 493.19L842.654 494.967C842.654 494.967 840.853 620.285 853.294 674.313C866.247 730.508 896.463 861.28 896.463 861.28L925.68 861.694C925.68 861.694 920.787 734.842 901.673 672Z" fill="black"/>
<path d="M866.905 321.537C866.905 332.129 867.538 344.522 876.205 351.972C871.336 358.473 862.011 368.431 848.498 366.703C833.621 364.804 836.494 351.291 839.781 347.054C847.086 342.842 845.065 336.511 844.237 332.104L866.905 321.537Z" fill="#FF8B7B"/>
<path opacity="0.2" d="M861.914 325.871C861.914 325.214 861.914 324.532 861.914 323.875L844.262 332.104C845.128 335.069 845.295 338.195 844.749 341.235C853.222 338.654 861.719 332.275 861.914 325.871Z" fill="black"/>
<path d="M875.743 292.174C873.479 309.924 873.065 320.417 863.447 328.915C849.009 341.673 827.51 331.861 824.491 313.746C821.715 297.457 825.879 271.162 843.799 265.367C847.765 264.094 851.988 263.846 856.076 264.648C860.163 265.45 863.98 267.275 867.171 269.953C870.361 272.63 872.821 276.073 874.32 279.959C875.819 283.845 876.309 288.047 875.743 292.174V292.174Z" fill="#FF8B7B"/>
<path d="M847.305 295.826C847.305 297.287 846.355 298.407 845.405 298.261C844.456 298.115 843.774 296.946 843.872 295.51C843.969 294.073 844.797 292.929 845.746 293.075C846.696 293.221 847.426 294.39 847.305 295.826Z" fill="#263238"/>
<path d="M829.166 295.047C829.166 296.508 828.24 297.628 827.291 297.482C826.341 297.336 825.635 296.167 825.733 294.731C825.83 293.294 826.682 292.15 827.632 292.296C828.581 292.442 829.263 293.586 829.166 295.047Z" fill="#263238"/>
<path d="M834.45 296.897C832.165 301.069 829.313 304.903 825.977 308.292C826.868 309.13 827.93 309.764 829.09 310.151C830.251 310.537 831.481 310.668 832.697 310.532L834.45 296.897Z" fill="#FF5652"/>
<path d="M850.616 286.184C850.761 286.158 850.901 286.108 851.03 286.038C851.218 285.91 851.348 285.714 851.393 285.491C851.438 285.268 851.396 285.037 851.274 284.845C850.555 283.689 849.57 282.721 848.401 282.022C847.232 281.323 845.913 280.914 844.554 280.828C844.441 280.825 844.329 280.844 844.224 280.886C844.119 280.928 844.024 280.99 843.944 281.07C843.864 281.15 843.801 281.245 843.76 281.35C843.718 281.455 843.698 281.567 843.702 281.68C843.702 281.792 843.724 281.903 843.766 282.006C843.809 282.11 843.872 282.204 843.951 282.283C844.03 282.362 844.124 282.425 844.228 282.467C844.331 282.51 844.442 282.532 844.554 282.532C845.63 282.617 846.671 282.957 847.59 283.525C848.509 284.092 849.279 284.87 849.837 285.795C849.925 285.919 850.042 286.019 850.178 286.087C850.314 286.155 850.464 286.188 850.616 286.184Z" fill="#263238"/>
<path d="M823.663 287.645C823.799 287.673 823.94 287.666 824.072 287.623C824.205 287.581 824.324 287.504 824.418 287.402C825.139 286.611 826.039 286.004 827.043 285.631C828.047 285.258 829.125 285.131 830.188 285.259C830.298 285.28 830.412 285.279 830.522 285.257C830.632 285.234 830.736 285.189 830.829 285.126C830.922 285.063 831.001 284.982 831.062 284.887C831.124 284.793 831.166 284.688 831.186 284.578C831.207 284.467 831.207 284.354 831.184 284.244C831.161 284.134 831.116 284.029 831.053 283.937C830.99 283.844 830.909 283.764 830.814 283.703C830.72 283.642 830.615 283.6 830.505 283.579C829.165 283.398 827.802 283.542 826.53 284C825.259 284.457 824.116 285.215 823.2 286.209C823.119 286.288 823.055 286.383 823.011 286.487C822.967 286.592 822.944 286.704 822.944 286.818C822.944 286.931 822.967 287.043 823.011 287.148C823.055 287.252 823.119 287.347 823.2 287.426C823.324 287.551 823.488 287.628 823.663 287.645V287.645Z" fill="#263238"/>
<path d="M834.011 314.087C835.75 316.335 837.329 318.702 838.734 321.172L840.146 320.637C846.501 318.202 848.644 314.988 849.106 312.139C849.359 309.947 848.843 307.735 847.646 305.882C845.04 309.169 839.294 311.896 836.153 313.186C834.863 313.844 834.011 314.087 834.011 314.087Z" fill="#263238"/>
<path d="M836.153 313.284L837.614 315.329C843.579 313.016 847.499 310.581 848.668 308.024C848.42 307.277 848.077 306.565 847.646 305.906C845.04 309.217 839.294 311.944 836.153 313.284Z" fill="white"/>
<path d="M840.146 320.685C846.501 318.251 848.644 315.037 849.106 312.188C846.705 313.163 844.496 314.556 842.581 316.303C841.326 317.469 840.473 319.003 840.146 320.685V320.685Z" fill="#DE5753"/>
<path d="M833.28 272.55C833.28 272.55 827.997 269.482 831.211 261.739C834.425 253.997 865.03 259.645 878.421 271.478C891.812 283.311 874.087 305.931 874.087 305.931L865.882 310.557C865.882 310.557 857.993 292.296 863.447 278.904C860.121 276.445 856.658 274.177 853.075 272.111C850.811 271.113 840.365 277.736 833.28 272.55Z" fill="#263238"/>
<path d="M880.637 310.776C878.208 314.557 874.384 317.226 869.997 318.202C864.178 319.419 861.597 314.111 863.496 308.804C865.2 303.934 870.313 297.628 876.035 298.772C877.28 299.045 878.438 299.623 879.404 300.454C880.371 301.285 881.115 302.343 881.572 303.534C882.028 304.724 882.181 306.009 882.018 307.273C881.855 308.537 881.38 309.74 880.637 310.776Z" fill="#FF8B7B"/>
<path d="M946.205 439.844C946.205 439.089 946.205 438.066 946.059 437.725L945.743 434.852C945.475 432.978 945.207 431.078 944.842 429.277C941.826 415.425 936.996 402.032 930.477 389.444C927.385 383.308 924.122 377.27 920.567 371.524C918.814 368.602 917.012 365.729 915.138 362.88C913.263 360.031 911.412 357.304 909.221 354.285C907.077 351.452 903.914 349.564 900.403 349.02C896.891 348.477 893.305 349.321 890.405 351.373C887.504 353.426 885.516 356.527 884.861 360.019C884.206 363.512 884.935 367.123 886.894 370.087L887.016 370.306C888.598 372.595 890.376 375.346 892.032 377.903C893.687 380.459 895.392 383.162 896.901 385.816C900.115 391.172 903.28 396.504 906.178 401.958C912.03 412.342 916.694 423.351 920.08 434.779C920.494 436.143 920.738 437.458 921.054 438.797L921.419 440.769C921.419 441.231 921.419 441.037 921.419 441.085C921.419 441.134 921.419 441.085 921.419 441.085C921.419 441.085 921.614 440.769 921.687 440.866C921.76 440.964 921.687 441.329 921.225 441.84C919.872 443.337 918.264 444.582 916.477 445.517C914.143 446.893 911.7 448.074 909.172 449.047C903.521 451.21 897.739 453.016 891.861 454.452C888.842 455.183 885.799 455.962 882.706 456.644C879.614 457.325 876.449 457.91 873.503 458.518H873.113C871.475 458.823 870.006 459.719 868.985 461.036C867.964 462.354 867.463 464 867.578 465.663C867.692 467.325 868.413 468.888 869.604 470.053C870.796 471.218 872.374 471.905 874.039 471.983C887.9 473.058 901.843 472.106 915.43 469.158C919.134 468.289 922.764 467.133 926.289 465.701C930.484 463.993 934.361 461.589 937.757 458.591C939.927 456.656 941.754 454.367 943.162 451.823C944.785 448.875 945.748 445.61 945.986 442.254C946.181 441.499 946.254 440.696 946.205 439.844Z" fill="#263238"/>
<path d="M870.216 341.746C870.655 345.861 865.736 360.445 848.498 366.703C855.145 366.703 858.042 375.176 858.042 375.176C858.042 375.176 880.905 363.002 878.178 348.393C877.837 346.53 876.853 344.844 875.399 343.63C873.945 342.416 872.111 341.749 870.216 341.746V341.746Z" fill="#407BFF"/>
<path d="M843.142 342.866C843.58 346.884 838.905 355.357 848.498 366.703C841.827 366.703 837.858 373.374 837.858 373.374C835.289 369.363 833.769 364.77 833.437 360.018C833.105 355.266 833.973 350.507 835.959 346.177C837.96 344.368 840.466 343.213 843.142 342.866Z" fill="#407BFF"/>
<path d="M804.087 491.047L803.479 504.998L911.339 502.077L909.562 488.15L804.087 491.047Z" fill="#407BFF"/>
<path opacity="0.3" d="M804.087 491.047L803.479 504.998L911.339 502.077L909.562 488.15L804.087 491.047Z" fill="black"/>
<path d="M900.772 498.205L911.339 498.011L909.927 490.998L900.772 491.193V498.205Z" fill="#263238"/>
<path d="M897.9 491.242L859.723 492.07V498.985L897.9 498.254V491.242Z" fill="#263238"/>
<path d="M811.806 493.068L803.479 493.263V500.007L811.806 499.861V493.068Z" fill="#263238"/>
<path d="M814.265 493.019V499.812L855.973 499.033V492.143L814.265 493.019Z" fill="#263238"/>
<path d="M836.933 501.127H827.973C827.415 501.127 826.88 500.907 826.483 500.515C826.087 500.123 825.861 499.591 825.854 499.033V493.725C825.854 493.172 826.071 492.64 826.458 492.245C826.844 491.849 827.371 491.62 827.924 491.607L836.884 491.412C837.451 491.43 837.993 491.646 838.418 492.021C838.618 492.218 838.777 492.453 838.886 492.712C838.995 492.971 839.051 493.25 839.051 493.531V499.131C839.02 499.671 838.783 500.179 838.389 500.55C837.995 500.922 837.474 501.128 836.933 501.127ZM828.094 493.823V499.131L836.933 498.985L836.811 493.628L828.094 493.823Z" fill="white"/>
<path d="M835.983 497.402H833.378C833.083 497.396 832.801 497.276 832.593 497.067C832.384 496.858 832.264 496.577 832.258 496.282C832.258 495.985 832.376 495.7 832.586 495.49C832.796 495.28 833.081 495.162 833.378 495.162H835.983C836.131 495.159 836.278 495.185 836.416 495.24C836.553 495.295 836.678 495.378 836.782 495.482C836.887 495.587 836.969 495.712 837.025 495.849C837.08 495.987 837.106 496.134 837.103 496.282C837.103 496.579 836.985 496.864 836.775 497.074C836.565 497.284 836.28 497.402 835.983 497.402V497.402Z" fill="white"/>
<path d="M843.75 471.496H861.938L865.249 439.113H840.414L843.75 471.496Z" fill="#407BFF"/>
<path d="M839.075 440.452H866.588V437.19H839.075V440.452Z" fill="white"/>
<path d="M844.626 454.355C844.835 455.625 845.404 456.809 846.264 457.767C847.125 458.724 848.241 459.416 849.482 459.759C850.723 460.103 852.036 460.084 853.266 459.705C854.497 459.326 855.593 458.603 856.425 457.621C857.258 456.639 857.792 455.439 857.965 454.163C858.137 452.887 857.941 451.589 857.399 450.421C856.857 449.253 855.993 448.265 854.907 447.573C853.822 446.88 852.561 446.513 851.273 446.515C849.356 446.682 847.582 447.6 846.337 449.068C845.093 450.536 844.478 452.436 844.626 454.355V454.355Z" fill="white"/>
<path d="M881.903 457.569L864.543 451.92L863.886 473.833C863.886 473.833 880.223 477.047 883.364 468.623L881.903 457.569Z" fill="#FF8B7B"/>
<path d="M847.572 460.393L848.619 468.111C848.827 469.597 849.555 470.961 850.674 471.96C851.793 472.959 853.231 473.528 854.731 473.565L863.885 473.809L864.543 451.896L853.099 453.235C852.262 453.331 851.452 453.593 850.717 454.008C849.983 454.422 849.339 454.979 848.824 455.646C848.308 456.314 847.932 457.078 847.717 457.893C847.502 458.708 847.453 459.559 847.572 460.393V460.393Z" fill="#FF8B7B"/>
<path opacity="0.7" d="M870.216 341.746C870.655 345.861 865.736 360.445 848.498 366.703C855.145 366.703 858.042 375.176 858.042 375.176C858.042 375.176 880.905 363.002 878.178 348.393C877.837 346.53 876.853 344.844 875.399 343.63C873.945 342.416 872.111 341.749 870.216 341.746V341.746Z" fill="white"/>
<path opacity="0.7" d="M843.142 342.866C843.58 346.884 838.905 355.357 848.498 366.703C841.827 366.703 837.858 373.374 837.858 373.374C835.289 369.363 833.769 364.77 833.437 360.018C833.105 355.266 833.973 350.507 835.959 346.177C837.96 344.368 840.466 343.213 843.142 342.866Z" fill="white"/>
<path d="M707.841 457.885L726.369 455.451L718.481 439.332C718.481 439.332 701.437 444.324 701.924 449.851L707.841 457.885Z" fill="#FFB573"/>
<path d="M735.792 441.743L727.392 431.955L718.48 439.43L726.369 455.548L735.792 441.743Z" fill="#FFB573"/>
<path d="M616.366 428.79C616.366 428.79 629.148 460.247 649.893 471.715C670.637 483.183 709.691 457.885 709.691 457.885L703.653 446.71C703.653 446.71 660.654 457.252 658.877 455.645C657.099 454.038 637.865 402.08 613.249 395.068L616.366 428.79Z" fill="#407BFF"/>
<path opacity="0.7" d="M709.715 457.91C709.715 457.91 670.759 483.207 649.893 471.715C642.984 467.598 636.96 462.153 632.168 455.694C625.799 447.464 620.49 438.466 616.366 428.911L613.347 395.165C637.938 402.104 657.173 454.16 658.974 455.767C660.776 457.374 703.653 446.71 703.653 446.71L709.715 457.91Z" fill="white"/>
<path opacity="0.1" d="M632.168 455.694C628.1 450.498 624.491 444.958 621.382 439.138C621.652 434.77 622.981 430.533 625.253 426.793C625.253 426.793 633.848 437.044 632.168 455.694Z" fill="black"/>
<path d="M552.94 308.706C552.94 308.706 567.062 289.496 592.505 303.837C625.107 322.049 606.14 407.193 606.14 407.193L550.14 416.275C550.14 416.275 516.029 316.035 552.94 308.706Z" fill="#263238"/>
<path d="M624.279 505.899C624.279 505.899 636.624 601.878 635.528 662.845C639.813 720.014 643.417 840 649.893 852.953C649.674 855.875 639.083 856.459 636.332 854.706C636.332 854.706 594.015 755.659 599.81 662.845C560.537 566.038 562.874 505.899 562.874 505.899H624.279Z" fill="#FFB573"/>
<path d="M607.552 505.899C607.552 505.899 579.479 614.247 568.352 667.447C556.689 723.301 544.71 790.793 544.539 854.341C541.423 856.192 537.941 858.919 531.611 856.971C531.611 856.971 504.268 729.729 529.468 669.906C518.414 537.552 553.426 505.899 553.426 505.899H607.552Z" fill="#FFB573"/>
<path d="M552.94 503.416L623.329 513.155C624.181 498.23 631.072 424.529 630.853 418.028C630.439 405.854 620.237 395.287 607.308 393.68C603.729 393.218 600.004 392.779 596.376 392.487C585.295 391.731 574.174 391.731 563.093 392.487C559.927 392.633 556.86 392.877 553.962 393.144C543.103 394.191 535.604 404.15 539.354 414.035C544.077 426.428 551.43 493.482 552.94 503.416Z" fill="#407BFF"/>
<path opacity="0.7" d="M630.853 417.979C631.047 424.504 624.181 498.181 623.329 513.131L552.94 503.391C552.769 502.296 552.55 500.567 552.258 498.327C551.381 491.437 549.969 479.677 548.338 466.967C547.632 461.708 546.926 456.254 546.147 450.946C544.783 441.207 543.371 431.979 542.032 424.918C541.407 421.172 540.503 417.477 539.329 413.864C535.604 403.931 543.079 393.972 553.938 392.95C556.835 392.682 559.903 392.463 563.068 392.292C574.143 391.561 585.253 391.561 596.327 392.292C599.955 392.609 603.632 393.047 607.284 393.51C620.237 395.238 630.463 405.83 630.853 417.979Z" fill="white"/>
<path d="M565.43 354.918C568.328 365.631 571.883 385.256 564.919 392.39C564.919 392.39 559.928 401.788 588.196 400.911C590.63 406.804 595.5 417.59 595.5 417.59C595.5 417.59 595.841 404.904 593.893 400.546C612.056 398.988 598.276 392.317 598.276 392.317C586.102 389.468 585.761 380.605 587.222 372.278L565.43 354.918Z" fill="#FFB573"/>
<path opacity="0.2" d="M574.293 362.028L587.149 372.351C586.763 374.3 586.567 376.282 586.564 378.268C581.938 377.611 575.316 372.595 574.39 367.823C574.002 365.914 573.969 363.949 574.293 362.028V362.028Z" fill="black"/>
<path d="M555.448 336.292C558.516 352.605 559.489 359.544 568.839 367.36C582.936 379.096 602.269 372.887 604.119 356.282C605.775 341.332 600.467 317.204 583.569 311.823C579.995 310.53 576.139 310.216 572.402 310.913C568.665 311.611 565.182 313.294 562.314 315.79C559.447 318.285 557.298 321.502 556.09 325.106C554.883 328.711 554.661 332.573 555.448 336.292V336.292Z" fill="#FFB573"/>
<path d="M569.545 324.532C560.488 336.146 579.09 349.489 560.488 348.71C541.886 347.931 549.458 321.927 560.488 315.937C571.517 309.948 569.545 324.532 569.545 324.532Z" fill="#263238"/>
<path d="M560.561 316.132C562.995 327.235 564.675 330.132 574.634 327.113C573.15 324.883 572.495 322.204 572.783 319.541C573.777 322.217 575.766 324.407 578.334 325.652C581.008 324.55 583.791 323.734 586.637 323.218C586.093 321.655 585.926 319.987 586.15 318.348C586.933 320.19 588.236 321.763 589.9 322.877C592.959 322.927 595.991 323.461 598.884 324.459C598.957 312.724 578.87 300.111 560.561 316.132Z" fill="#263238"/>
<path d="M581.427 339.019C581.621 340.407 582.522 341.454 583.399 341.454C584.275 341.454 584.86 340.212 584.64 338.824C584.421 337.437 583.569 336.39 582.668 336.39C581.767 336.39 581.232 337.631 581.427 339.019Z" fill="#263238"/>
<path d="M598.178 338.045C598.397 339.409 599.274 340.48 600.15 340.48C601.027 340.48 601.611 339.263 601.416 337.875C601.222 336.487 600.321 335.44 599.444 335.44C598.568 335.44 597.983 336.657 598.178 338.045Z" fill="#263238"/>
<path d="M598.957 335.538L602.074 334.344C602.074 334.344 600.881 337.047 598.957 335.538Z" fill="#263238"/>
<path d="M593.844 340.651C595.519 343.711 597.581 346.542 599.979 349.075C599.338 349.629 598.581 350.033 597.764 350.256C596.947 350.479 596.09 350.517 595.256 350.365L593.844 340.651Z" fill="#ED893E"/>
<path d="M553.841 352.021C554.525 353.459 555.498 354.74 556.701 355.783C557.903 356.826 559.309 357.61 560.829 358.084C564.651 359.082 566.307 354.748 565.041 350.39C563.872 346.494 560.512 341.259 556.787 342.209C553.062 343.158 551.918 348.174 553.841 352.021Z" fill="#FFB573"/>
<path d="M576.752 331.617C576.964 331.613 577.165 331.526 577.312 331.374C577.964 330.622 578.793 330.044 579.724 329.691C580.654 329.339 581.658 329.223 582.644 329.353C582.747 329.37 582.852 329.367 582.953 329.343C583.054 329.319 583.149 329.276 583.233 329.214C583.317 329.153 583.388 329.076 583.442 328.987C583.495 328.897 583.531 328.799 583.545 328.696C583.562 328.479 583.5 328.263 583.37 328.089C583.24 327.914 583.052 327.793 582.839 327.746C581.601 327.557 580.335 327.68 579.157 328.105C577.979 328.531 576.926 329.244 576.095 330.181C576.019 330.256 575.959 330.345 575.918 330.443C575.877 330.541 575.855 330.647 575.855 330.753C575.855 330.86 575.877 330.965 575.918 331.063C575.959 331.161 576.019 331.251 576.095 331.325C576.175 331.42 576.276 331.496 576.39 331.547C576.504 331.597 576.628 331.621 576.752 331.617V331.617Z" fill="#263238"/>
<path d="M601.952 330.132C602.157 330.144 602.358 330.074 602.512 329.937C602.588 329.863 602.648 329.774 602.689 329.675C602.73 329.577 602.751 329.472 602.751 329.365C602.751 329.259 602.73 329.153 602.689 329.055C602.648 328.957 602.588 328.868 602.512 328.793C601.666 327.786 600.601 326.986 599.398 326.455C598.195 325.923 596.887 325.673 595.573 325.725C595.469 325.737 595.368 325.77 595.277 325.822C595.186 325.875 595.107 325.946 595.045 326.031C594.984 326.115 594.94 326.212 594.918 326.315C594.895 326.417 594.895 326.523 594.916 326.626C594.962 326.839 595.084 327.027 595.258 327.157C595.433 327.287 595.648 327.349 595.865 327.332C596.902 327.306 597.931 327.511 598.879 327.932C599.826 328.353 600.668 328.98 601.343 329.767C601.414 329.867 601.504 329.951 601.609 330.014C601.714 330.077 601.831 330.117 601.952 330.132V330.132Z" fill="#263238"/>
<path d="M582.304 336.511L585.42 335.318C585.42 335.318 584.13 338.021 582.304 336.511Z" fill="#263238"/>
<path d="M594.21 356.964C592.828 358.747 591.575 360.627 590.46 362.588L589.34 362.174C584.276 360.226 582.596 357.67 582.23 355.43C582.071 354.323 582.188 353.193 582.571 352.143C582.763 351.537 583.041 350.963 583.399 350.438C585.975 353.024 589.082 355.018 592.505 356.282C593.528 356.72 594.21 356.964 594.21 356.964Z" fill="#263238"/>
<path d="M592.505 356.282L591.361 357.913C586.613 356.087 583.497 354.139 582.571 352.143C582.763 351.537 583.041 350.963 583.399 350.438C585.975 353.024 589.082 355.018 592.505 356.282V356.282Z" fill="white"/>
<path d="M589.34 362.174C584.276 360.226 582.596 357.67 582.23 355.43C584.139 356.191 585.895 357.287 587.417 358.668C588.405 359.61 589.077 360.835 589.34 362.174V362.174Z" fill="#DE5753"/>
<path d="M589.559 388.056C589.559 388.056 594.915 393.802 593.819 400.619L606.139 403.224C605.507 399.19 603.522 395.49 600.508 392.733C597.495 389.977 593.634 388.327 589.559 388.056Z" fill="#407BFF"/>
<path d="M588.195 400.911C588.195 400.911 571.687 391.416 568.011 386.303L560.707 391.83C560.707 391.83 558.394 400.449 568.376 408.191L588.195 400.911Z" fill="#407BFF"/>
<path opacity="0.6" d="M589.559 388.056C589.559 388.056 594.915 393.802 593.819 400.619L606.139 403.224C605.507 399.19 603.522 395.49 600.508 392.733C597.495 389.977 593.634 388.327 589.559 388.056Z" fill="white"/>
<path opacity="0.6" d="M588.195 400.911C588.195 400.911 571.687 391.416 568.011 386.303L560.707 391.83C560.707 391.83 558.394 400.449 568.376 408.191L588.195 400.911Z" fill="white"/>
<path d="M634.189 880.685H637.914L638.912 876.205L650.964 881.586H681.472C681.472 881.586 686.342 876.717 671.733 872.845C671.018 872.66 670.324 872.399 669.663 872.066C661.921 868.463 650.843 856.24 650.843 856.24H634.116C633.609 857.022 633.154 857.835 632.752 858.675C630.877 862.279 627.736 870.021 634.189 880.685Z" fill="#263238"/>
<path d="M632.703 858.602C634.894 856.167 644.999 866.905 652.376 870.557C658.95 873.819 666.352 875.232 669.614 871.896C661.872 868.292 649.625 852.418 649.625 852.418H636.161C636.161 852.418 633.482 857.044 632.703 858.602Z" fill="#EBB376"/>
<path d="M528.689 880.685H532.342L533.34 876.205L545.392 881.586H575.9C575.9 881.586 580.769 876.717 566.161 872.845C565.445 872.66 564.751 872.399 564.091 872.066C556.349 868.463 545.27 856.24 545.27 856.24H528.543C528.037 857.022 527.581 857.835 527.18 858.675C525.378 862.279 522.262 870.021 528.689 880.685Z" fill="#263238"/>
<path d="M527.204 858.602C529.395 856.167 539.5 866.905 546.877 870.557C553.475 873.819 560.853 875.232 564.115 871.896C556.373 868.292 544.126 852.418 544.126 852.418H530.661C530.661 852.418 527.983 857.044 527.204 858.602Z" fill="#EBB376"/>
<path d="M524.672 648.626C526.531 650.677 528.73 652.39 531.173 653.691C531.514 641.517 535.044 635.722 535.044 635.722C534.441 642.719 535.084 649.767 536.943 656.539C555.667 664.452 591.775 669.663 636.916 658.609C636.916 605.652 626.446 516.539 625.716 507.847C625.716 507.847 572.15 509.259 550.432 509.259C526.644 537.625 520.241 628.685 524.672 648.626Z" fill="#263238"/>
<path opacity="0.2" d="M524.672 648.626C526.531 650.677 528.73 652.39 531.173 653.691C531.514 641.517 535.044 635.722 535.044 635.722C534.441 642.719 535.084 649.767 536.943 656.539C555.667 664.452 591.775 669.663 636.916 658.609C636.916 605.652 626.446 516.539 625.716 507.847C625.716 507.847 572.15 509.259 550.432 509.259C526.644 537.625 520.241 628.685 524.672 648.626Z" fill="white"/>
<path d="M625.302 511.134C600.213 513.844 574.902 513.795 549.824 510.988C549.552 510.961 549.292 510.867 549.066 510.715C548.84 510.563 548.654 510.357 548.527 510.116C548.399 509.875 548.333 509.606 548.334 509.334C548.335 509.061 548.404 508.793 548.533 508.553L550.359 504.317C550.485 504.002 550.71 503.736 551 503.56C551.29 503.384 551.629 503.308 551.966 503.343C576.059 505.924 600.358 505.924 624.45 503.343C624.661 503.323 624.874 503.345 625.077 503.407C625.279 503.47 625.468 503.572 625.631 503.708C625.794 503.844 625.928 504.011 626.026 504.199C626.125 504.387 626.185 504.592 626.203 504.804L626.641 509.211C626.68 509.425 626.676 509.645 626.629 509.857C626.583 510.07 626.495 510.271 626.37 510.45C626.246 510.629 626.088 510.781 625.904 510.898C625.721 511.016 625.516 511.096 625.302 511.134V511.134Z" fill="#263238"/>
<path opacity="0.1" d="M553.573 424.651C553.573 424.651 552.672 441.816 546.147 450.995C544.784 441.256 543.371 432.028 542.032 424.967C545.719 423.493 549.811 423.381 553.573 424.651V424.651Z" fill="black"/>
<path opacity="0.1" d="M564.602 474.783V490.073C560.795 493.293 556.657 496.101 552.258 498.449C551.381 491.558 549.969 479.798 548.338 467.089C553.587 470.003 559.02 472.573 564.602 474.783Z" fill="black"/>
<path d="M591.215 491.875H573.027L569.716 459.492H594.551L591.215 491.875Z" fill="#407BFF"/>
<path d="M595.889 457.569H568.376V460.831H595.889V457.569Z" fill="white"/>
<path d="M590.339 474.783C590.129 476.053 589.561 477.237 588.701 478.195C587.84 479.152 586.724 479.844 585.483 480.187C584.242 480.53 582.929 480.512 581.699 480.133C580.468 479.754 579.372 479.031 578.54 478.049C577.707 477.067 577.173 475.867 577 474.591C576.828 473.315 577.024 472.017 577.566 470.849C578.108 469.681 578.972 468.693 580.058 468C581.143 467.308 582.404 466.941 583.692 466.943C585.609 467.11 587.383 468.028 588.627 469.496C589.872 470.964 590.487 472.864 590.339 474.783V474.783Z" fill="white"/>
<path d="M581.524 474.393L576.801 471.618C575.924 471.112 574.94 470.82 573.929 470.765C572.918 470.71 571.909 470.894 570.982 471.301L562.217 475.245C560.49 476.019 558.972 477.193 557.79 478.671C556.609 480.149 555.797 481.888 555.424 483.743L554.961 486.178C562.484 491.291 574.439 491.291 574.439 491.291L577.824 491.656C578.517 491.755 579.222 491.716 579.9 491.54C580.577 491.364 581.213 491.056 581.771 490.632C582.328 490.208 582.795 489.678 583.146 489.072C583.497 488.467 583.723 487.797 583.813 487.103L584.641 480.383C584.774 479.188 584.549 477.98 583.994 476.914C583.439 475.847 582.579 474.97 581.524 474.393V474.393Z" fill="#FFB573"/>
<path d="M548.484 394.435C527.788 397.698 506.776 463.023 509.893 474.783C513.009 486.543 559.197 488.758 559.197 488.758L560.561 474.783C560.561 474.783 537.357 467.917 534.046 463.461C530.735 459.005 548.484 432.515 548.484 432.515C552.38 426.585 554.64 419.731 555.034 412.647C555.131 399.061 548.484 394.435 548.484 394.435Z" fill="#407BFF"/>
<path opacity="0.7" d="M548.484 394.435C527.788 397.698 506.776 463.023 509.893 474.783C513.009 486.543 559.197 488.758 559.197 488.758L560.561 474.783C560.561 474.783 537.357 467.917 534.046 463.461C530.735 459.005 548.484 432.515 548.484 432.515C552.38 426.585 554.64 419.731 555.034 412.647C555.131 399.061 548.484 394.435 548.484 394.435Z" fill="white"/>
<path d="M436.605 296.386C434.17 296.386 432.198 293.27 432.028 289.204C431.904 287.43 432.23 285.655 432.977 284.042C433.221 283.392 433.638 282.822 434.183 282.393C434.728 281.963 435.381 281.692 436.069 281.607H436.191C438.626 281.607 440.598 284.724 440.793 288.911C440.909 290.687 440.574 292.462 439.819 294.073C439.575 294.723 439.158 295.293 438.613 295.722C438.068 296.151 437.415 296.423 436.727 296.508L436.605 296.386ZM436.191 282.727C435.387 282.727 434.633 283.409 434.048 284.553C433.389 285.993 433.104 287.576 433.221 289.155C433.367 292.539 434.925 295.364 436.751 295.266C437.239 295.18 437.694 294.966 438.071 294.645C438.448 294.324 438.732 293.908 438.894 293.44C439.561 292.011 439.854 290.436 439.746 288.863V288.863C439.527 285.503 437.944 282.727 436.191 282.727V282.727Z" fill="#263238"/>
<path d="M433.148 289.155C433.148 290.47 433.952 291.59 434.828 291.59C435.705 291.59 436.338 290.445 436.289 289.155C436.24 287.864 435.486 286.72 434.609 286.72C433.732 286.72 433.075 287.816 433.148 289.155Z" fill="#263238"/>
<path d="M433.829 291.517C435.596 295.508 437.907 299.236 440.695 302.595C439.813 303.282 438.793 303.77 437.704 304.026C436.616 304.283 435.485 304.301 434.389 304.08L433.829 291.517Z" fill="#ED847E"/>
<path d="M427.961 281.997C427.76 281.967 427.577 281.863 427.45 281.704C427.387 281.623 427.341 281.53 427.315 281.431C427.288 281.332 427.281 281.228 427.295 281.126C427.309 281.024 427.342 280.926 427.394 280.837C427.445 280.749 427.514 280.671 427.596 280.609C428.55 279.816 429.68 279.262 430.891 278.995C432.103 278.729 433.361 278.756 434.559 279.075C434.75 279.151 434.905 279.296 434.995 279.48C435.085 279.665 435.103 279.876 435.046 280.073C435.013 280.171 434.961 280.262 434.893 280.339C434.825 280.417 434.742 280.48 434.649 280.526C434.556 280.571 434.455 280.597 434.352 280.603C434.249 280.609 434.146 280.594 434.048 280.56V280.56C433.096 280.323 432.101 280.314 431.145 280.534C430.189 280.754 429.298 281.197 428.545 281.826C428.465 281.894 428.372 281.944 428.271 281.973C428.171 282.002 428.065 282.01 427.961 281.997V281.997Z" fill="#263238"/>
<path d="M435.363 308.244C435.363 308.633 435.242 308.998 435.193 309.388C434.22 314.64 431.415 319.378 427.278 322.757C423.141 326.136 417.939 327.939 412.598 327.844C407.616 327.657 402.877 325.647 399.28 322.195C390.661 314.184 390.466 304.591 388.737 288.327C388.288 284.551 388.812 280.723 390.259 277.207C391.705 273.69 394.027 270.602 397.004 268.235C399.98 265.869 403.512 264.303 407.264 263.686C411.016 263.069 414.864 263.421 418.442 264.71C434.316 270.261 437.822 293.367 435.363 308.244Z" fill="#FFC3BD"/>
<path d="M392 314.891C398.038 319.76 424.237 310.824 422.264 290.811C422.264 290.811 433.221 281.193 434.097 268.897C434.974 256.602 427.329 250.515 417.979 251.732C409.75 252.828 409.287 257.162 409.287 257.162C409.287 257.162 371.402 255.701 376.977 272.087C359.13 286.111 384.379 308.852 392 314.891Z" fill="#263238"/>
<path d="M440.184 288.237L422.131 290.24L422.254 291.353L440.307 289.35L440.184 288.237Z" fill="#263238"/>
<path d="M415.179 293.148C415.63 297.185 417.402 300.959 420.219 303.885C423.969 307.708 427.524 305.103 428.084 300.258C428.473 295.899 427.012 288.668 422.557 286.647C418.101 284.626 414.692 288.254 415.179 293.148Z" fill="#FFC3BD"/>
<path opacity="0.2" d="M435.363 308.244C435.363 308.633 435.241 308.998 435.192 309.388C434.219 314.641 431.415 319.378 427.278 322.757C423.14 326.136 417.939 327.939 412.598 327.844C417.102 324.971 423.213 319.979 425.088 312.991C428.18 301.451 423.481 287.183 423.481 287.183L425.916 283.847C425.916 283.847 430.25 302.351 429.739 307.221C429.471 310.557 433.025 309.339 435.363 308.244Z" fill="black"/>
<path d="M514.056 397.284H495.844L492.532 364.901H517.367L514.056 397.284Z" fill="#407BFF"/>
<path d="M518.706 362.978H491.193V366.24H518.706V362.978Z" fill="#407BFF"/>
<path d="M513.155 380.118C512.946 381.386 512.38 382.567 511.523 383.523C510.666 384.48 509.554 385.172 508.317 385.518C507.08 385.863 505.77 385.849 504.541 385.476C503.312 385.103 502.215 384.387 501.38 383.412C500.544 382.436 500.004 381.243 499.823 379.972C499.642 378.7 499.828 377.403 500.359 376.234C500.89 375.065 501.744 374.071 502.82 373.37C503.897 372.67 505.151 372.291 506.435 372.278C508.365 372.428 510.158 373.337 511.418 374.807C512.678 376.278 513.303 378.188 513.155 380.118V380.118Z" fill="white"/>
<path opacity="0.8" d="M518.706 362.978H491.193V366.24H518.706V362.978Z" fill="white"/>
<path d="M394.434 316.254C396.869 328.428 397.332 337.631 388.883 345.691C388.883 345.691 392.194 357.864 414.594 357.864C439.234 357.864 426.354 345.691 426.354 345.691C412.914 342.477 413.255 332.494 415.617 323.144L394.434 316.254Z" fill="#FFC3BD"/>
<path d="M384.111 347.931C382.309 344.571 380.313 340.626 384.427 339.531C388.932 338.216 417.93 335.757 426.452 338.24C423.822 342.915 428.254 348.612 428.254 348.612L384.111 347.931Z" fill="#407BFF"/>
<path opacity="0.2" d="M384.111 347.931C382.309 344.571 380.313 340.626 384.427 339.531C388.932 338.216 417.93 335.757 426.452 338.24C423.822 342.915 428.254 348.612 428.254 348.612L384.111 347.931Z" fill="black"/>
<path d="M320.806 861.037C321.531 861.299 322.302 861.412 323.071 861.37C323.841 861.329 324.594 861.132 325.286 860.793C325.553 860.549 325.736 860.228 325.81 859.874C325.885 859.52 325.846 859.152 325.7 858.821C325.623 858.542 325.485 858.283 325.296 858.064C325.106 857.845 324.87 857.671 324.605 857.555C322.17 856.386 316.57 858.675 316.326 858.772C316.251 858.807 316.186 858.862 316.139 858.931C316.092 858.999 316.064 859.079 316.059 859.162C316.059 859.243 316.082 859.322 316.125 859.391C316.168 859.46 316.229 859.516 316.302 859.552C317.747 860.204 319.257 860.702 320.806 861.037V861.037ZM323.728 858.164C323.907 858.191 324.08 858.249 324.239 858.334C324.396 858.396 324.535 858.495 324.645 858.622C324.756 858.749 324.833 858.901 324.872 859.065C325.116 859.819 324.873 860.063 324.726 860.136C323.753 860.964 320.149 860.136 317.617 859.186C319.583 858.383 321.705 858.033 323.826 858.164H323.728Z" fill="#407BFF"/>
<path d="M316.521 859.479C318.542 858.894 322.925 855.778 322.973 853.733C322.976 853.411 322.869 853.098 322.67 852.846C322.471 852.593 322.191 852.417 321.878 852.345C321.568 852.235 321.237 852.193 320.91 852.223C320.582 852.252 320.264 852.352 319.979 852.515C317.544 853.733 316.059 858.724 315.986 858.943C315.951 859.011 315.934 859.086 315.934 859.162C315.934 859.238 315.951 859.313 315.986 859.381C316.051 859.455 316.139 859.505 316.237 859.523C316.334 859.541 316.434 859.525 316.521 859.479V859.479ZM321.634 853.099H321.805C322.34 853.27 322.34 853.538 322.34 853.635C322.34 854.852 319.419 857.287 317.3 858.261C317.871 856.285 319.015 854.523 320.587 853.197C320.888 853.098 321.212 853.098 321.513 853.197L321.634 853.099Z" fill="#407BFF"/>
<path d="M315.621 856.849L295.802 852.539C295.45 852.469 295.086 852.52 294.768 852.684C294.449 852.847 294.196 853.114 294.048 853.44L287.304 868.341C287.139 868.705 287.058 869.102 287.067 869.502C287.077 869.902 287.177 870.295 287.359 870.651C287.542 871.007 287.803 871.317 288.122 871.558C288.441 871.798 288.811 871.964 289.203 872.042C296.142 873.43 299.575 873.746 308.292 875.621C313.648 876.79 325.749 879.736 333.151 881.343C340.553 882.95 343.109 875.84 340.212 874.501C327.283 868.609 321.878 863.399 318.299 858.553C317.652 857.669 316.696 857.06 315.621 856.849V856.849Z" fill="#263238"/>
<path d="M421.485 492.703C421.485 492.703 402.786 609.353 392.536 653.082C381.287 700.925 321.002 859.284 321.002 859.284L291.492 853.367C291.492 853.367 333.663 724.324 343.085 657.416C350.39 606.018 364.609 492.703 364.609 492.703H421.485Z" fill="#407BFF"/>
<path opacity="0.7" d="M421.485 492.703C421.485 492.703 402.786 609.353 392.536 653.082C381.287 700.925 321.002 859.284 321.002 859.284L291.492 853.367C291.492 853.367 333.663 724.324 343.085 657.416C350.39 606.018 364.609 492.703 364.609 492.703H421.485Z" fill="white"/>
<path d="M372.692 376.978C369.502 380.508 365.923 384.55 362.66 388.494C359.398 392.438 356.159 396.504 353.092 400.668C346.961 408.57 341.573 417.023 336.998 425.917C336.413 426.988 335.951 428.059 335.488 429.131L334.782 430.738L334.441 431.541L334.295 431.858C334.295 431.638 333.905 432.491 334.149 434C335.127 438.066 336.772 441.941 339.019 445.468C344.524 454.066 350.669 462.238 357.401 469.913L349.391 479.336C339.686 473.03 330.923 465.382 323.363 456.619C318.947 451.633 315.525 445.848 313.283 439.576C311.754 435.097 311.526 430.276 312.625 425.673L312.893 424.675L313.112 424.042L313.478 422.946L314.232 420.755C314.719 419.294 315.231 417.833 315.839 416.47C320.368 405.706 326.084 395.481 332.883 385.986C336.219 381.336 339.579 376.758 343.231 372.424C346.883 368.091 350.535 363.878 354.699 359.593L372.692 376.978Z" fill="#FFC3BD"/>
<path d="M352.556 465.044L364.73 465.944L359.252 484.181C359.252 484.181 350.072 482.525 346.542 475.367L352.556 465.044Z" fill="#FFC3BD"/>
<path d="M381.555 468.379L373.666 483.329L359.228 484.278L364.706 466.042L381.555 468.379Z" fill="#FFC3BD"/>
<path d="M433.781 864.08C436.216 864.08 438.334 863.739 439.089 862.717C439.285 862.444 439.391 862.116 439.391 861.779C439.391 861.443 439.285 861.115 439.089 860.842C438.945 860.594 438.752 860.377 438.522 860.205C438.292 860.034 438.029 859.911 437.75 859.844C434.755 859.016 428.449 862.619 428.181 862.765C428.103 862.806 428.039 862.87 428 862.949C427.96 863.028 427.947 863.117 427.962 863.204C427.975 863.292 428.014 863.374 428.075 863.44C428.136 863.505 428.216 863.55 428.303 863.569C430.111 863.893 431.944 864.065 433.781 864.08V864.08ZM436.654 860.574C436.929 860.536 437.207 860.536 437.482 860.574C437.653 860.608 437.816 860.677 437.958 860.778C438.101 860.879 438.221 861.008 438.31 861.159C438.602 861.694 438.505 861.962 438.31 862.108C437.482 863.277 432.929 863.301 429.569 862.839C431.758 861.624 434.166 860.855 436.654 860.574V860.574Z" fill="#407BFF"/>
<path d="M428.327 863.569H428.522C430.689 862.571 434.999 858.699 434.682 856.63C434.682 856.167 434.244 855.559 433.075 855.437C432.641 855.388 432.201 855.428 431.783 855.553C431.365 855.679 430.976 855.888 430.64 856.167C428.352 858.066 427.865 862.912 427.84 863.131C427.831 863.205 427.842 863.281 427.872 863.349C427.902 863.418 427.95 863.477 428.011 863.52C428.107 863.574 428.219 863.591 428.327 863.569V863.569ZM432.734 856.265H433.002C433.757 856.265 433.805 856.654 433.83 856.752C434.025 857.969 431.103 861.037 428.96 862.376C429.18 860.319 430.03 858.38 431.395 856.825C431.766 856.493 432.238 856.296 432.734 856.265V856.265Z" fill="#407BFF"/>
<path d="M426.427 861.061H406.73C406.371 861.057 406.021 861.175 405.737 861.397C405.454 861.618 405.255 861.929 405.172 862.279L401.739 878.324C401.65 878.712 401.651 879.116 401.741 879.504C401.831 879.892 402.009 880.255 402.26 880.564C402.511 880.874 402.829 881.122 403.19 881.291C403.551 881.46 403.945 881.544 404.344 881.538C411.453 881.416 421.704 881.002 430.64 881.002C441.085 881.002 450.118 881.562 462.292 881.562C469.596 881.562 471.739 874.087 468.647 873.406C454.525 870.313 443.008 869.973 430.81 862.449C429.507 861.587 427.989 861.106 426.427 861.061V861.061Z" fill="#263238"/>
<path d="M363.343 348.32C347.492 348.685 327.089 384.842 327.089 384.842L352.703 414.23C362.311 407.448 369.982 398.274 374.957 387.618C384.306 368.456 379.534 347.955 363.343 348.32Z" fill="#407BFF"/>
<path opacity="0.2" d="M370.476 379.388C360.566 385.84 354.845 400.084 351.558 412.842L352.702 414.132C362.29 407.37 369.959 398.233 374.956 387.617C375.508 386.481 376.019 385.337 376.49 384.184L370.476 379.388Z" fill="black"/>
<path d="M459.759 406.609C459.492 416.08 458.834 427.037 457.568 439.771C456.472 451.044 454.89 463.68 452.699 477.851H365.046C364.413 465.677 372.521 406.365 359.471 349.075C369.235 347.399 379.088 346.285 388.98 345.739C401.454 345.081 413.954 345.081 426.427 345.739C434.961 346.511 443.43 347.878 451.773 349.83C451.773 349.83 461.05 359.131 459.759 406.609Z" fill="#407BFF"/>
<path opacity="0.2" d="M459.76 406.609C459.492 416.08 458.834 427.037 457.568 439.771C450.264 432.271 440.866 420.56 441.791 410.553L459.76 406.609Z" fill="black"/>
<path opacity="0.2" d="M409.676 534.264C388.055 538.184 390.344 612.908 392.949 651.329C399.182 624.157 408.313 571.906 414.546 534.8C413.019 534.113 411.315 533.925 409.676 534.264V534.264Z" fill="black"/>
<path d="M452.869 492.703C452.869 492.703 455.158 607.844 453.356 654.786C451.506 703.628 433.245 863.569 433.245 863.569H405.196C405.196 863.569 404.174 706.501 402.932 658.511C401.569 606.212 394.824 492.703 394.824 492.703H452.869Z" fill="#407BFF"/>
<path d="M459.492 366.849C460.904 371.329 462.56 376.344 464.362 381.044C466.164 385.743 467.917 390.539 469.864 395.165C473.515 404.284 477.955 413.066 483.134 421.412C484.4 423.409 485.739 425.308 487.103 427.11L488.15 428.424C487.68 428.025 487.165 427.682 486.616 427.402C485.369 426.766 483.97 426.487 482.574 426.598C481.611 426.648 480.675 426.932 479.847 427.426C479.068 428.011 479.53 427.889 479.847 427.426C480.455 426.853 481.009 426.225 481.503 425.551C482.85 423.766 484.094 421.904 485.228 419.976C490.097 411.624 494.577 401.958 498.984 392.609L510.915 395.944C509.505 407.07 506.834 418 502.953 428.522C501.873 431.414 500.579 434.222 499.082 436.922C498.175 438.509 497.158 440.031 496.038 441.475C494.433 443.592 492.432 445.378 490.146 446.734C488.156 447.874 485.933 448.548 483.645 448.706C480.917 448.875 478.195 448.285 475.781 447.002C474.071 446.076 472.524 444.875 471.203 443.447L469.645 441.743C467.6 439.47 465.701 437.157 463.948 434.804C457.234 425.54 451.521 415.591 446.904 405.124C444.64 400.011 442.473 394.873 440.623 389.663C438.772 384.452 436.97 379.339 435.437 373.593L459.492 366.849Z" fill="#FFC3BD"/>
<path d="M425.649 368.017C414.838 388.007 447.854 419.148 447.854 419.148L480.797 396.504C475.64 383.909 469.577 371.703 462.658 359.983C449.632 338.435 433.903 352.824 425.649 368.017Z" fill="#407BFF"/>
<path d="M506.873 401.544L523.162 388.908L509.989 376.734C509.989 376.734 497.353 384.038 499.13 395.823L506.873 401.544Z" fill="#FFC3BD"/>
<path d="M526.01 380.946L517.172 368.724L509.989 376.612L523.161 388.908L526.01 380.946Z" fill="#FFC3BD"/>
<path opacity="0.7" d="M452.869 492.703C452.869 492.703 455.158 607.844 453.356 654.786C451.506 703.628 433.245 863.569 433.245 863.569H405.196C405.196 863.569 404.174 706.501 402.932 658.511C401.569 606.212 394.824 492.703 394.824 492.703H452.869Z" fill="white"/>
<path d="M365.338 474.783C359.584 494.025 357.592 514.195 359.471 534.191H453.478L453.916 475.757L365.338 474.783Z" fill="#407BFF"/>
<path opacity="0.7" d="M365.338 474.783C359.584 494.025 357.592 514.195 359.471 534.191H453.478L453.916 475.757L365.338 474.783Z" fill="white"/>
<path d="M386.765 476.974L363.732 476.706L363.123 482.696L386.765 482.915V476.974Z" fill="#263238"/>
<path d="M425.818 477.437L390.319 477.023V482.939L425.818 483.28V477.437Z" fill="#263238"/>
<path d="M428.327 477.461V483.304L453.917 483.524V477.753L428.327 477.461Z" fill="#263238"/>
<path opacity="0.2" d="M407.388 330.668C408.028 330.279 408.705 329.953 409.409 329.694C408.313 330.278 407.558 330.595 407.388 330.668Z" fill="black"/>
</svg>
